<mxfile host="Electron" modified="2023-10-08T21:33:50.355Z" agent="Mozilla/5.0 (Windows NT 10.0; Win64; x64) AppleWebKit/537.36 (KHTML, like Gecko) draw.io/22.0.2 Chrome/114.0.5735.289 Electron/25.8.4 Safari/537.36" etag="okYBfcLHaYQrTghi4YkI" version="22.0.2" type="device" pages="6">
  <diagram name="Schema in chiaro" id="wvbtK3t-Q8GG0E1eaAiW">
    <mxGraphModel dx="1036" dy="606" grid="1" gridSize="10" guides="1" tooltips="1" connect="1" arrows="1" fold="1" page="1" pageScale="1" pageWidth="1169" pageHeight="827" math="0" shadow="0">
      <root>
        <mxCell id="0" />
        <mxCell id="1" parent="0" />
        <mxCell id="hj_JpkwJhwX_zgl7k75b-4" value="" style="rounded=0;whiteSpace=wrap;html=1;" parent="1" vertex="1">
          <mxGeometry x="80" y="40" width="920" height="440" as="geometry" />
        </mxCell>
        <mxCell id="hj_JpkwJhwX_zgl7k75b-5" value="ECU1" style="whiteSpace=wrap;html=1;aspect=fixed;" parent="1" vertex="1">
          <mxGeometry x="140" y="110" width="80" height="80" as="geometry" />
        </mxCell>
        <mxCell id="hj_JpkwJhwX_zgl7k75b-6" value="ECU3" style="whiteSpace=wrap;html=1;aspect=fixed;" parent="1" vertex="1">
          <mxGeometry x="530" y="110" width="80" height="80" as="geometry" />
        </mxCell>
        <mxCell id="hj_JpkwJhwX_zgl7k75b-7" value="ECU2" style="whiteSpace=wrap;html=1;aspect=fixed;" parent="1" vertex="1">
          <mxGeometry x="320" y="310" width="80" height="80" as="geometry" />
        </mxCell>
        <mxCell id="hj_JpkwJhwX_zgl7k75b-8" value="ECUn" style="whiteSpace=wrap;html=1;aspect=fixed;" parent="1" vertex="1">
          <mxGeometry x="810" y="320" width="80" height="80" as="geometry" />
        </mxCell>
        <mxCell id="hj_JpkwJhwX_zgl7k75b-11" value="" style="endArrow=none;html=1;rounded=0;entryX=0.5;entryY=1;entryDx=0;entryDy=0;" parent="1" target="hj_JpkwJhwX_zgl7k75b-5" edge="1">
          <mxGeometry width="50" height="50" relative="1" as="geometry">
            <mxPoint x="180" y="257" as="sourcePoint" />
            <mxPoint x="180" y="187" as="targetPoint" />
          </mxGeometry>
        </mxCell>
        <mxCell id="hj_JpkwJhwX_zgl7k75b-12" value="" style="endArrow=none;html=1;rounded=0;entryX=0.5;entryY=0;entryDx=0;entryDy=0;" parent="1" target="hj_JpkwJhwX_zgl7k75b-7" edge="1">
          <mxGeometry width="50" height="50" relative="1" as="geometry">
            <mxPoint x="360" y="257" as="sourcePoint" />
            <mxPoint x="360" y="307" as="targetPoint" />
          </mxGeometry>
        </mxCell>
        <mxCell id="hj_JpkwJhwX_zgl7k75b-13" value="" style="endArrow=none;html=1;rounded=0;entryX=0.5;entryY=1;entryDx=0;entryDy=0;" parent="1" target="hj_JpkwJhwX_zgl7k75b-6" edge="1">
          <mxGeometry width="50" height="50" relative="1" as="geometry">
            <mxPoint x="570" y="257" as="sourcePoint" />
            <mxPoint x="570" y="197" as="targetPoint" />
          </mxGeometry>
        </mxCell>
        <mxCell id="hj_JpkwJhwX_zgl7k75b-14" value="" style="endArrow=none;html=1;rounded=0;exitX=0.5;exitY=0;exitDx=0;exitDy=0;" parent="1" source="hj_JpkwJhwX_zgl7k75b-8" edge="1">
          <mxGeometry width="50" height="50" relative="1" as="geometry">
            <mxPoint x="850" y="317" as="sourcePoint" />
            <mxPoint x="850" y="257" as="targetPoint" />
          </mxGeometry>
        </mxCell>
        <mxCell id="hj_JpkwJhwX_zgl7k75b-15" value="Veicolo" style="text;html=1;strokeColor=none;fillColor=none;align=center;verticalAlign=middle;whiteSpace=wrap;rounded=0;" parent="1" vertex="1">
          <mxGeometry x="90" y="50" width="60" height="30" as="geometry" />
        </mxCell>
        <mxCell id="0atFZW0Sq15jGeucD1__-1" value="" style="endArrow=none;html=1;rounded=0;" parent="1" edge="1">
          <mxGeometry width="50" height="50" relative="1" as="geometry">
            <mxPoint x="740" y="257" as="sourcePoint" />
            <mxPoint x="180" y="257" as="targetPoint" />
          </mxGeometry>
        </mxCell>
        <mxCell id="0atFZW0Sq15jGeucD1__-2" value="" style="endArrow=none;dashed=1;html=1;rounded=0;" parent="1" edge="1">
          <mxGeometry width="50" height="50" relative="1" as="geometry">
            <mxPoint x="740" y="257" as="sourcePoint" />
            <mxPoint x="800" y="257" as="targetPoint" />
          </mxGeometry>
        </mxCell>
        <mxCell id="0atFZW0Sq15jGeucD1__-3" value="" style="endArrow=none;html=1;rounded=0;" parent="1" edge="1">
          <mxGeometry width="50" height="50" relative="1" as="geometry">
            <mxPoint x="850" y="257" as="sourcePoint" />
            <mxPoint x="800" y="257" as="targetPoint" />
          </mxGeometry>
        </mxCell>
      </root>
    </mxGraphModel>
  </diagram>
  <diagram name="Schema Protetto" id="ZmHrxCn8VpEDuyIGCrYh">
    <mxGraphModel dx="1036" dy="606" grid="1" gridSize="10" guides="1" tooltips="1" connect="1" arrows="1" fold="1" page="1" pageScale="1" pageWidth="1169" pageHeight="827" math="0" shadow="0">
      <root>
        <mxCell id="Xp3GHB0pVQdIjV-C1IXq-0" />
        <mxCell id="Xp3GHB0pVQdIjV-C1IXq-1" parent="Xp3GHB0pVQdIjV-C1IXq-0" />
        <mxCell id="Xp3GHB0pVQdIjV-C1IXq-2" value="" style="rounded=0;whiteSpace=wrap;html=1;" parent="Xp3GHB0pVQdIjV-C1IXq-1" vertex="1">
          <mxGeometry x="80" y="40" width="920" height="440" as="geometry" />
        </mxCell>
        <mxCell id="Xp3GHB0pVQdIjV-C1IXq-3" value="ECU1" style="whiteSpace=wrap;html=1;aspect=fixed;" parent="Xp3GHB0pVQdIjV-C1IXq-1" vertex="1">
          <mxGeometry x="140" y="110" width="80" height="80" as="geometry" />
        </mxCell>
        <mxCell id="Xp3GHB0pVQdIjV-C1IXq-4" value="ECU3" style="whiteSpace=wrap;html=1;aspect=fixed;" parent="Xp3GHB0pVQdIjV-C1IXq-1" vertex="1">
          <mxGeometry x="530" y="110" width="80" height="80" as="geometry" />
        </mxCell>
        <mxCell id="Xp3GHB0pVQdIjV-C1IXq-5" value="ECU2" style="whiteSpace=wrap;html=1;aspect=fixed;" parent="Xp3GHB0pVQdIjV-C1IXq-1" vertex="1">
          <mxGeometry x="320" y="310" width="80" height="80" as="geometry" />
        </mxCell>
        <mxCell id="Xp3GHB0pVQdIjV-C1IXq-6" value="ECUn" style="whiteSpace=wrap;html=1;aspect=fixed;" parent="Xp3GHB0pVQdIjV-C1IXq-1" vertex="1">
          <mxGeometry x="810" y="320" width="80" height="80" as="geometry" />
        </mxCell>
        <mxCell id="Xp3GHB0pVQdIjV-C1IXq-7" value="" style="endArrow=none;html=1;rounded=0;" parent="Xp3GHB0pVQdIjV-C1IXq-1" edge="1">
          <mxGeometry width="50" height="50" relative="1" as="geometry">
            <mxPoint x="740" y="257" as="sourcePoint" />
            <mxPoint x="180" y="257" as="targetPoint" />
          </mxGeometry>
        </mxCell>
        <mxCell id="Xp3GHB0pVQdIjV-C1IXq-8" value="" style="endArrow=none;html=1;rounded=0;entryX=0.5;entryY=1;entryDx=0;entryDy=0;" parent="Xp3GHB0pVQdIjV-C1IXq-1" source="3xVwpiMAcfwQ6NR2Mcac-1" target="Xp3GHB0pVQdIjV-C1IXq-3" edge="1">
          <mxGeometry width="50" height="50" relative="1" as="geometry">
            <mxPoint x="180" y="257" as="sourcePoint" />
            <mxPoint x="180" y="187" as="targetPoint" />
          </mxGeometry>
        </mxCell>
        <mxCell id="Xp3GHB0pVQdIjV-C1IXq-9" value="" style="endArrow=none;html=1;rounded=0;entryX=0.5;entryY=0;entryDx=0;entryDy=0;" parent="Xp3GHB0pVQdIjV-C1IXq-1" source="3xVwpiMAcfwQ6NR2Mcac-2" target="Xp3GHB0pVQdIjV-C1IXq-5" edge="1">
          <mxGeometry width="50" height="50" relative="1" as="geometry">
            <mxPoint x="360" y="257" as="sourcePoint" />
            <mxPoint x="360" y="307" as="targetPoint" />
          </mxGeometry>
        </mxCell>
        <mxCell id="Xp3GHB0pVQdIjV-C1IXq-10" value="" style="endArrow=none;html=1;rounded=0;entryX=0.5;entryY=1;entryDx=0;entryDy=0;" parent="Xp3GHB0pVQdIjV-C1IXq-1" source="3xVwpiMAcfwQ6NR2Mcac-4" target="Xp3GHB0pVQdIjV-C1IXq-4" edge="1">
          <mxGeometry width="50" height="50" relative="1" as="geometry">
            <mxPoint x="570" y="257" as="sourcePoint" />
            <mxPoint x="570" y="197" as="targetPoint" />
          </mxGeometry>
        </mxCell>
        <mxCell id="Xp3GHB0pVQdIjV-C1IXq-11" value="" style="endArrow=none;html=1;rounded=0;exitX=0.5;exitY=0;exitDx=0;exitDy=0;" parent="Xp3GHB0pVQdIjV-C1IXq-1" source="3xVwpiMAcfwQ6NR2Mcac-7" edge="1">
          <mxGeometry width="50" height="50" relative="1" as="geometry">
            <mxPoint x="850" y="317" as="sourcePoint" />
            <mxPoint x="850" y="257" as="targetPoint" />
          </mxGeometry>
        </mxCell>
        <mxCell id="Xp3GHB0pVQdIjV-C1IXq-12" value="Veicolo" style="text;html=1;strokeColor=none;fillColor=none;align=center;verticalAlign=middle;whiteSpace=wrap;rounded=0;" parent="Xp3GHB0pVQdIjV-C1IXq-1" vertex="1">
          <mxGeometry x="90" y="50" width="60" height="30" as="geometry" />
        </mxCell>
        <mxCell id="3xVwpiMAcfwQ6NR2Mcac-0" value="" style="endArrow=none;html=1;rounded=0;entryX=0.5;entryY=1;entryDx=0;entryDy=0;" parent="Xp3GHB0pVQdIjV-C1IXq-1" target="3xVwpiMAcfwQ6NR2Mcac-1" edge="1">
          <mxGeometry width="50" height="50" relative="1" as="geometry">
            <mxPoint x="180" y="257" as="sourcePoint" />
            <mxPoint x="180" y="190" as="targetPoint" />
          </mxGeometry>
        </mxCell>
        <mxCell id="3xVwpiMAcfwQ6NR2Mcac-1" value="" style="html=1;verticalLabelPosition=bottom;align=center;labelBackgroundColor=#ffffff;verticalAlign=top;strokeWidth=2;strokeColor=#0080F0;shadow=0;dashed=0;shape=mxgraph.ios7.icons.locked;" parent="Xp3GHB0pVQdIjV-C1IXq-1" vertex="1">
          <mxGeometry x="168" y="205" width="24" height="30" as="geometry" />
        </mxCell>
        <mxCell id="3xVwpiMAcfwQ6NR2Mcac-3" value="" style="endArrow=none;html=1;rounded=0;entryX=0.5;entryY=0;entryDx=0;entryDy=0;" parent="Xp3GHB0pVQdIjV-C1IXq-1" target="3xVwpiMAcfwQ6NR2Mcac-2" edge="1">
          <mxGeometry width="50" height="50" relative="1" as="geometry">
            <mxPoint x="360" y="257" as="sourcePoint" />
            <mxPoint x="360" y="310" as="targetPoint" />
          </mxGeometry>
        </mxCell>
        <mxCell id="3xVwpiMAcfwQ6NR2Mcac-2" value="" style="html=1;verticalLabelPosition=bottom;align=center;labelBackgroundColor=#ffffff;verticalAlign=top;strokeWidth=2;strokeColor=#0080F0;shadow=0;dashed=0;shape=mxgraph.ios7.icons.locked;" parent="Xp3GHB0pVQdIjV-C1IXq-1" vertex="1">
          <mxGeometry x="348" y="270" width="24" height="30" as="geometry" />
        </mxCell>
        <mxCell id="3xVwpiMAcfwQ6NR2Mcac-5" value="" style="endArrow=none;html=1;rounded=0;entryX=0.5;entryY=1;entryDx=0;entryDy=0;" parent="Xp3GHB0pVQdIjV-C1IXq-1" target="3xVwpiMAcfwQ6NR2Mcac-4" edge="1">
          <mxGeometry width="50" height="50" relative="1" as="geometry">
            <mxPoint x="570" y="257" as="sourcePoint" />
            <mxPoint x="570" y="190" as="targetPoint" />
          </mxGeometry>
        </mxCell>
        <mxCell id="3xVwpiMAcfwQ6NR2Mcac-4" value="" style="html=1;verticalLabelPosition=bottom;align=center;labelBackgroundColor=#ffffff;verticalAlign=top;strokeWidth=2;strokeColor=#0080F0;shadow=0;dashed=0;shape=mxgraph.ios7.icons.locked;" parent="Xp3GHB0pVQdIjV-C1IXq-1" vertex="1">
          <mxGeometry x="558" y="205" width="24" height="30" as="geometry" />
        </mxCell>
        <mxCell id="3xVwpiMAcfwQ6NR2Mcac-6" value="" style="endArrow=none;html=1;rounded=0;exitX=0.5;exitY=0;exitDx=0;exitDy=0;" parent="Xp3GHB0pVQdIjV-C1IXq-1" source="Xp3GHB0pVQdIjV-C1IXq-6" target="3xVwpiMAcfwQ6NR2Mcac-7" edge="1">
          <mxGeometry width="50" height="50" relative="1" as="geometry">
            <mxPoint x="850" y="320" as="sourcePoint" />
            <mxPoint x="850" y="257" as="targetPoint" />
          </mxGeometry>
        </mxCell>
        <mxCell id="3xVwpiMAcfwQ6NR2Mcac-7" value="" style="html=1;verticalLabelPosition=bottom;align=center;labelBackgroundColor=#ffffff;verticalAlign=top;strokeWidth=2;strokeColor=#0080F0;shadow=0;dashed=0;shape=mxgraph.ios7.icons.locked;" parent="Xp3GHB0pVQdIjV-C1IXq-1" vertex="1">
          <mxGeometry x="838" y="275" width="24" height="30" as="geometry" />
        </mxCell>
        <mxCell id="3xVwpiMAcfwQ6NR2Mcac-11" value="" style="group" parent="Xp3GHB0pVQdIjV-C1IXq-1" vertex="1" connectable="0">
          <mxGeometry x="230.5" y="112" width="50" height="68.5" as="geometry" />
        </mxCell>
        <mxCell id="3xVwpiMAcfwQ6NR2Mcac-8" value="" style="sketch=0;aspect=fixed;pointerEvents=1;shadow=0;dashed=0;html=1;strokeColor=none;labelPosition=center;verticalLabelPosition=bottom;verticalAlign=top;align=center;fillColor=#00188D;shape=mxgraph.mscae.enterprise.key_permissions;rotation=90;" parent="3xVwpiMAcfwQ6NR2Mcac-11" vertex="1">
          <mxGeometry x="12" y="-12" width="26" height="50" as="geometry" />
        </mxCell>
        <mxCell id="3xVwpiMAcfwQ6NR2Mcac-9" value="" style="image;sketch=0;aspect=fixed;html=1;points=[];align=center;fontSize=12;image=img/lib/mscae/Key.svg;rotation=90;" parent="3xVwpiMAcfwQ6NR2Mcac-11" vertex="1">
          <mxGeometry x="9.5" y="28" width="31" height="50" as="geometry" />
        </mxCell>
        <mxCell id="3xVwpiMAcfwQ6NR2Mcac-12" value="" style="group" parent="Xp3GHB0pVQdIjV-C1IXq-1" vertex="1" connectable="0">
          <mxGeometry x="630" y="112" width="50" height="68.5" as="geometry" />
        </mxCell>
        <mxCell id="3xVwpiMAcfwQ6NR2Mcac-13" value="" style="sketch=0;aspect=fixed;pointerEvents=1;shadow=0;dashed=0;html=1;strokeColor=none;labelPosition=center;verticalLabelPosition=bottom;verticalAlign=top;align=center;fillColor=#00188D;shape=mxgraph.mscae.enterprise.key_permissions;rotation=90;" parent="3xVwpiMAcfwQ6NR2Mcac-12" vertex="1">
          <mxGeometry x="12" y="-12" width="26" height="50" as="geometry" />
        </mxCell>
        <mxCell id="3xVwpiMAcfwQ6NR2Mcac-14" value="" style="image;sketch=0;aspect=fixed;html=1;points=[];align=center;fontSize=12;image=img/lib/mscae/Key.svg;rotation=90;" parent="3xVwpiMAcfwQ6NR2Mcac-12" vertex="1">
          <mxGeometry x="9.5" y="28" width="31" height="50" as="geometry" />
        </mxCell>
        <mxCell id="3xVwpiMAcfwQ6NR2Mcac-15" value="" style="group" parent="Xp3GHB0pVQdIjV-C1IXq-1" vertex="1" connectable="0">
          <mxGeometry x="410" y="310" width="50" height="68.5" as="geometry" />
        </mxCell>
        <mxCell id="3xVwpiMAcfwQ6NR2Mcac-16" value="" style="sketch=0;aspect=fixed;pointerEvents=1;shadow=0;dashed=0;html=1;strokeColor=none;labelPosition=center;verticalLabelPosition=bottom;verticalAlign=top;align=center;fillColor=#00188D;shape=mxgraph.mscae.enterprise.key_permissions;rotation=90;" parent="3xVwpiMAcfwQ6NR2Mcac-15" vertex="1">
          <mxGeometry x="12" y="-12" width="26" height="50" as="geometry" />
        </mxCell>
        <mxCell id="3xVwpiMAcfwQ6NR2Mcac-17" value="" style="image;sketch=0;aspect=fixed;html=1;points=[];align=center;fontSize=12;image=img/lib/mscae/Key.svg;rotation=90;" parent="3xVwpiMAcfwQ6NR2Mcac-15" vertex="1">
          <mxGeometry x="9.5" y="28" width="31" height="50" as="geometry" />
        </mxCell>
        <mxCell id="3xVwpiMAcfwQ6NR2Mcac-18" value="" style="group" parent="Xp3GHB0pVQdIjV-C1IXq-1" vertex="1" connectable="0">
          <mxGeometry x="910" y="322" width="50" height="68.5" as="geometry" />
        </mxCell>
        <mxCell id="3xVwpiMAcfwQ6NR2Mcac-19" value="" style="sketch=0;aspect=fixed;pointerEvents=1;shadow=0;dashed=0;html=1;strokeColor=none;labelPosition=center;verticalLabelPosition=bottom;verticalAlign=top;align=center;fillColor=#00188D;shape=mxgraph.mscae.enterprise.key_permissions;rotation=90;" parent="3xVwpiMAcfwQ6NR2Mcac-18" vertex="1">
          <mxGeometry x="12" y="-12" width="26" height="50" as="geometry" />
        </mxCell>
        <mxCell id="3xVwpiMAcfwQ6NR2Mcac-20" value="" style="image;sketch=0;aspect=fixed;html=1;points=[];align=center;fontSize=12;image=img/lib/mscae/Key.svg;rotation=90;" parent="3xVwpiMAcfwQ6NR2Mcac-18" vertex="1">
          <mxGeometry x="9.5" y="28" width="31" height="50" as="geometry" />
        </mxCell>
        <mxCell id="3xVwpiMAcfwQ6NR2Mcac-21" value="Kyber-512" style="text;html=1;strokeColor=none;fillColor=none;align=center;verticalAlign=middle;whiteSpace=wrap;rounded=0;" parent="Xp3GHB0pVQdIjV-C1IXq-1" vertex="1">
          <mxGeometry x="291" y="135" width="69" height="30" as="geometry" />
        </mxCell>
        <mxCell id="3xVwpiMAcfwQ6NR2Mcac-22" value="AES-256" style="text;html=1;strokeColor=none;fillColor=none;align=center;verticalAlign=middle;whiteSpace=wrap;rounded=0;" parent="Xp3GHB0pVQdIjV-C1IXq-1" vertex="1">
          <mxGeometry x="200" y="205" width="60" height="30" as="geometry" />
        </mxCell>
        <mxCell id="3xVwpiMAcfwQ6NR2Mcac-23" value="AES-256" style="text;html=1;strokeColor=none;fillColor=none;align=center;verticalAlign=middle;whiteSpace=wrap;rounded=0;" parent="Xp3GHB0pVQdIjV-C1IXq-1" vertex="1">
          <mxGeometry x="770" y="275" width="60" height="30" as="geometry" />
        </mxCell>
        <mxCell id="3xVwpiMAcfwQ6NR2Mcac-24" value="AES-256" style="text;html=1;strokeColor=none;fillColor=none;align=center;verticalAlign=middle;whiteSpace=wrap;rounded=0;" parent="Xp3GHB0pVQdIjV-C1IXq-1" vertex="1">
          <mxGeometry x="590" y="205" width="60" height="30" as="geometry" />
        </mxCell>
        <mxCell id="3xVwpiMAcfwQ6NR2Mcac-25" value="AES-256" style="text;html=1;strokeColor=none;fillColor=none;align=center;verticalAlign=middle;whiteSpace=wrap;rounded=0;" parent="Xp3GHB0pVQdIjV-C1IXq-1" vertex="1">
          <mxGeometry x="372" y="270" width="60" height="30" as="geometry" />
        </mxCell>
        <mxCell id="3xVwpiMAcfwQ6NR2Mcac-26" value="Kyber-512" style="text;html=1;strokeColor=none;fillColor=none;align=center;verticalAlign=middle;whiteSpace=wrap;rounded=0;" parent="Xp3GHB0pVQdIjV-C1IXq-1" vertex="1">
          <mxGeometry x="900.5" y="290" width="69" height="30" as="geometry" />
        </mxCell>
        <mxCell id="3xVwpiMAcfwQ6NR2Mcac-27" value="Kyber-512" style="text;html=1;strokeColor=none;fillColor=none;align=center;verticalAlign=middle;whiteSpace=wrap;rounded=0;" parent="Xp3GHB0pVQdIjV-C1IXq-1" vertex="1">
          <mxGeometry x="701" y="135" width="69" height="30" as="geometry" />
        </mxCell>
        <mxCell id="3xVwpiMAcfwQ6NR2Mcac-28" value="Kyber-512" style="text;html=1;strokeColor=none;fillColor=none;align=center;verticalAlign=middle;whiteSpace=wrap;rounded=0;" parent="Xp3GHB0pVQdIjV-C1IXq-1" vertex="1">
          <mxGeometry x="470" y="329.25" width="69" height="30" as="geometry" />
        </mxCell>
        <mxCell id="hG5JgGcQHgq_AYHXXFue-0" value="" style="group" parent="Xp3GHB0pVQdIjV-C1IXq-1" vertex="1" connectable="0">
          <mxGeometry x="80" y="562" width="50" height="68.5" as="geometry" />
        </mxCell>
        <mxCell id="hG5JgGcQHgq_AYHXXFue-1" value="" style="sketch=0;aspect=fixed;pointerEvents=1;shadow=0;dashed=0;html=1;strokeColor=none;labelPosition=center;verticalLabelPosition=bottom;verticalAlign=top;align=center;fillColor=#00188D;shape=mxgraph.mscae.enterprise.key_permissions;rotation=90;" parent="hG5JgGcQHgq_AYHXXFue-0" vertex="1">
          <mxGeometry x="12" y="-12" width="26" height="50" as="geometry" />
        </mxCell>
        <mxCell id="hG5JgGcQHgq_AYHXXFue-2" value="" style="image;sketch=0;aspect=fixed;html=1;points=[];align=center;fontSize=12;image=img/lib/mscae/Key.svg;rotation=90;" parent="hG5JgGcQHgq_AYHXXFue-0" vertex="1">
          <mxGeometry x="9.5" y="28" width="31" height="50" as="geometry" />
        </mxCell>
        <mxCell id="hG5JgGcQHgq_AYHXXFue-3" value="Chiave Pubblica" style="text;html=1;align=center;verticalAlign=middle;resizable=0;points=[];autosize=1;strokeColor=none;fillColor=none;" parent="Xp3GHB0pVQdIjV-C1IXq-1" vertex="1">
          <mxGeometry x="150" y="562" width="110" height="30" as="geometry" />
        </mxCell>
        <mxCell id="hG5JgGcQHgq_AYHXXFue-4" value="Chiave Privata" style="text;html=1;align=center;verticalAlign=middle;resizable=0;points=[];autosize=1;strokeColor=none;fillColor=none;" parent="Xp3GHB0pVQdIjV-C1IXq-1" vertex="1">
          <mxGeometry x="155" y="600.5" width="100" height="30" as="geometry" />
        </mxCell>
        <mxCell id="hG5JgGcQHgq_AYHXXFue-5" value="" style="html=1;verticalLabelPosition=bottom;align=center;labelBackgroundColor=#ffffff;verticalAlign=top;strokeWidth=2;strokeColor=#0080F0;shadow=0;dashed=0;shape=mxgraph.ios7.icons.locked;" parent="Xp3GHB0pVQdIjV-C1IXq-1" vertex="1">
          <mxGeometry x="93" y="640" width="24" height="30" as="geometry" />
        </mxCell>
        <mxCell id="hG5JgGcQHgq_AYHXXFue-6" value="Chiave di sessione" style="text;html=1;align=center;verticalAlign=middle;resizable=0;points=[];autosize=1;strokeColor=none;fillColor=none;" parent="Xp3GHB0pVQdIjV-C1IXq-1" vertex="1">
          <mxGeometry x="145" y="640" width="120" height="30" as="geometry" />
        </mxCell>
        <mxCell id="Bbk42M3tlGiakMjjTgRx-0" value="" style="endArrow=none;dashed=1;html=1;rounded=0;" parent="Xp3GHB0pVQdIjV-C1IXq-1" edge="1">
          <mxGeometry width="50" height="50" relative="1" as="geometry">
            <mxPoint x="740" y="257" as="sourcePoint" />
            <mxPoint x="800" y="257" as="targetPoint" />
          </mxGeometry>
        </mxCell>
        <mxCell id="Bbk42M3tlGiakMjjTgRx-1" value="" style="endArrow=none;html=1;rounded=0;" parent="Xp3GHB0pVQdIjV-C1IXq-1" edge="1">
          <mxGeometry width="50" height="50" relative="1" as="geometry">
            <mxPoint x="850" y="257" as="sourcePoint" />
            <mxPoint x="800" y="257" as="targetPoint" />
          </mxGeometry>
        </mxCell>
      </root>
    </mxGraphModel>
  </diagram>
  <diagram name="Schema Protetto CA" id="Ic7N32XQTjBmKlzOkYeD">
    <mxGraphModel dx="1036" dy="606" grid="1" gridSize="10" guides="1" tooltips="1" connect="1" arrows="1" fold="1" page="1" pageScale="1" pageWidth="1169" pageHeight="827" math="0" shadow="0">
      <root>
        <mxCell id="PeOGeigSReAF_w0CeqYM-0" />
        <mxCell id="PeOGeigSReAF_w0CeqYM-1" parent="PeOGeigSReAF_w0CeqYM-0" />
        <mxCell id="PeOGeigSReAF_w0CeqYM-2" value="" style="rounded=0;whiteSpace=wrap;html=1;" vertex="1" parent="PeOGeigSReAF_w0CeqYM-1">
          <mxGeometry x="80" y="40" width="920" height="440" as="geometry" />
        </mxCell>
        <mxCell id="PeOGeigSReAF_w0CeqYM-3" value="ECU1" style="whiteSpace=wrap;html=1;aspect=fixed;" vertex="1" parent="PeOGeigSReAF_w0CeqYM-1">
          <mxGeometry x="140" y="110" width="80" height="80" as="geometry" />
        </mxCell>
        <mxCell id="PeOGeigSReAF_w0CeqYM-4" value="ECU3" style="whiteSpace=wrap;html=1;aspect=fixed;" vertex="1" parent="PeOGeigSReAF_w0CeqYM-1">
          <mxGeometry x="530" y="110" width="80" height="80" as="geometry" />
        </mxCell>
        <mxCell id="PeOGeigSReAF_w0CeqYM-5" value="ECU2" style="whiteSpace=wrap;html=1;aspect=fixed;" vertex="1" parent="PeOGeigSReAF_w0CeqYM-1">
          <mxGeometry x="320" y="310" width="80" height="80" as="geometry" />
        </mxCell>
        <mxCell id="PeOGeigSReAF_w0CeqYM-6" value="ECUn" style="whiteSpace=wrap;html=1;aspect=fixed;" vertex="1" parent="PeOGeigSReAF_w0CeqYM-1">
          <mxGeometry x="810" y="320" width="80" height="80" as="geometry" />
        </mxCell>
        <mxCell id="PeOGeigSReAF_w0CeqYM-7" value="" style="endArrow=none;html=1;rounded=0;" edge="1" parent="PeOGeigSReAF_w0CeqYM-1">
          <mxGeometry width="50" height="50" relative="1" as="geometry">
            <mxPoint x="740" y="257" as="sourcePoint" />
            <mxPoint x="180" y="257" as="targetPoint" />
          </mxGeometry>
        </mxCell>
        <mxCell id="PeOGeigSReAF_w0CeqYM-8" value="" style="endArrow=none;html=1;rounded=0;entryX=0.5;entryY=1;entryDx=0;entryDy=0;" edge="1" parent="PeOGeigSReAF_w0CeqYM-1" source="PeOGeigSReAF_w0CeqYM-14" target="PeOGeigSReAF_w0CeqYM-3">
          <mxGeometry width="50" height="50" relative="1" as="geometry">
            <mxPoint x="180" y="257" as="sourcePoint" />
            <mxPoint x="180" y="187" as="targetPoint" />
          </mxGeometry>
        </mxCell>
        <mxCell id="PeOGeigSReAF_w0CeqYM-9" value="" style="endArrow=none;html=1;rounded=0;entryX=0.5;entryY=0;entryDx=0;entryDy=0;" edge="1" parent="PeOGeigSReAF_w0CeqYM-1" source="PeOGeigSReAF_w0CeqYM-16" target="PeOGeigSReAF_w0CeqYM-5">
          <mxGeometry width="50" height="50" relative="1" as="geometry">
            <mxPoint x="360" y="257" as="sourcePoint" />
            <mxPoint x="360" y="307" as="targetPoint" />
          </mxGeometry>
        </mxCell>
        <mxCell id="PeOGeigSReAF_w0CeqYM-10" value="" style="endArrow=none;html=1;rounded=0;entryX=0.5;entryY=1;entryDx=0;entryDy=0;" edge="1" parent="PeOGeigSReAF_w0CeqYM-1" source="PeOGeigSReAF_w0CeqYM-18" target="PeOGeigSReAF_w0CeqYM-4">
          <mxGeometry width="50" height="50" relative="1" as="geometry">
            <mxPoint x="570" y="257" as="sourcePoint" />
            <mxPoint x="570" y="197" as="targetPoint" />
          </mxGeometry>
        </mxCell>
        <mxCell id="PeOGeigSReAF_w0CeqYM-11" value="" style="endArrow=none;html=1;rounded=0;exitX=0.5;exitY=0;exitDx=0;exitDy=0;" edge="1" parent="PeOGeigSReAF_w0CeqYM-1" source="PeOGeigSReAF_w0CeqYM-20">
          <mxGeometry width="50" height="50" relative="1" as="geometry">
            <mxPoint x="850" y="317" as="sourcePoint" />
            <mxPoint x="850" y="257" as="targetPoint" />
          </mxGeometry>
        </mxCell>
        <mxCell id="PeOGeigSReAF_w0CeqYM-12" value="Veicolo" style="text;html=1;strokeColor=none;fillColor=none;align=center;verticalAlign=middle;whiteSpace=wrap;rounded=0;" vertex="1" parent="PeOGeigSReAF_w0CeqYM-1">
          <mxGeometry x="90" y="50" width="60" height="30" as="geometry" />
        </mxCell>
        <mxCell id="PeOGeigSReAF_w0CeqYM-13" value="" style="endArrow=none;html=1;rounded=0;entryX=0.5;entryY=1;entryDx=0;entryDy=0;" edge="1" parent="PeOGeigSReAF_w0CeqYM-1" target="PeOGeigSReAF_w0CeqYM-14">
          <mxGeometry width="50" height="50" relative="1" as="geometry">
            <mxPoint x="180" y="257" as="sourcePoint" />
            <mxPoint x="180" y="190" as="targetPoint" />
          </mxGeometry>
        </mxCell>
        <mxCell id="PeOGeigSReAF_w0CeqYM-14" value="" style="html=1;verticalLabelPosition=bottom;align=center;labelBackgroundColor=#ffffff;verticalAlign=top;strokeWidth=2;strokeColor=#0080F0;shadow=0;dashed=0;shape=mxgraph.ios7.icons.locked;" vertex="1" parent="PeOGeigSReAF_w0CeqYM-1">
          <mxGeometry x="168" y="205" width="24" height="30" as="geometry" />
        </mxCell>
        <mxCell id="PeOGeigSReAF_w0CeqYM-15" value="" style="endArrow=none;html=1;rounded=0;entryX=0.5;entryY=0;entryDx=0;entryDy=0;" edge="1" parent="PeOGeigSReAF_w0CeqYM-1" target="PeOGeigSReAF_w0CeqYM-16">
          <mxGeometry width="50" height="50" relative="1" as="geometry">
            <mxPoint x="360" y="257" as="sourcePoint" />
            <mxPoint x="360" y="310" as="targetPoint" />
          </mxGeometry>
        </mxCell>
        <mxCell id="PeOGeigSReAF_w0CeqYM-16" value="" style="html=1;verticalLabelPosition=bottom;align=center;labelBackgroundColor=#ffffff;verticalAlign=top;strokeWidth=2;strokeColor=#0080F0;shadow=0;dashed=0;shape=mxgraph.ios7.icons.locked;" vertex="1" parent="PeOGeigSReAF_w0CeqYM-1">
          <mxGeometry x="348" y="270" width="24" height="30" as="geometry" />
        </mxCell>
        <mxCell id="PeOGeigSReAF_w0CeqYM-17" value="" style="endArrow=none;html=1;rounded=0;entryX=0.5;entryY=1;entryDx=0;entryDy=0;" edge="1" parent="PeOGeigSReAF_w0CeqYM-1" target="PeOGeigSReAF_w0CeqYM-18">
          <mxGeometry width="50" height="50" relative="1" as="geometry">
            <mxPoint x="570" y="257" as="sourcePoint" />
            <mxPoint x="570" y="190" as="targetPoint" />
          </mxGeometry>
        </mxCell>
        <mxCell id="PeOGeigSReAF_w0CeqYM-18" value="" style="html=1;verticalLabelPosition=bottom;align=center;labelBackgroundColor=#ffffff;verticalAlign=top;strokeWidth=2;strokeColor=#0080F0;shadow=0;dashed=0;shape=mxgraph.ios7.icons.locked;" vertex="1" parent="PeOGeigSReAF_w0CeqYM-1">
          <mxGeometry x="558" y="205" width="24" height="30" as="geometry" />
        </mxCell>
        <mxCell id="PeOGeigSReAF_w0CeqYM-19" value="" style="endArrow=none;html=1;rounded=0;exitX=0.5;exitY=0;exitDx=0;exitDy=0;" edge="1" parent="PeOGeigSReAF_w0CeqYM-1" source="PeOGeigSReAF_w0CeqYM-6" target="PeOGeigSReAF_w0CeqYM-20">
          <mxGeometry width="50" height="50" relative="1" as="geometry">
            <mxPoint x="850" y="320" as="sourcePoint" />
            <mxPoint x="850" y="257" as="targetPoint" />
          </mxGeometry>
        </mxCell>
        <mxCell id="PeOGeigSReAF_w0CeqYM-20" value="" style="html=1;verticalLabelPosition=bottom;align=center;labelBackgroundColor=#ffffff;verticalAlign=top;strokeWidth=2;strokeColor=#0080F0;shadow=0;dashed=0;shape=mxgraph.ios7.icons.locked;" vertex="1" parent="PeOGeigSReAF_w0CeqYM-1">
          <mxGeometry x="838" y="275" width="24" height="30" as="geometry" />
        </mxCell>
        <mxCell id="PeOGeigSReAF_w0CeqYM-21" value="" style="group" vertex="1" connectable="0" parent="PeOGeigSReAF_w0CeqYM-1">
          <mxGeometry x="230.5" y="112" width="50" height="68.5" as="geometry" />
        </mxCell>
        <mxCell id="PeOGeigSReAF_w0CeqYM-22" value="" style="sketch=0;aspect=fixed;pointerEvents=1;shadow=0;dashed=0;html=1;strokeColor=none;labelPosition=center;verticalLabelPosition=bottom;verticalAlign=top;align=center;fillColor=#00188D;shape=mxgraph.mscae.enterprise.key_permissions;rotation=90;" vertex="1" parent="PeOGeigSReAF_w0CeqYM-21">
          <mxGeometry x="12" y="-12" width="26" height="50" as="geometry" />
        </mxCell>
        <mxCell id="PeOGeigSReAF_w0CeqYM-23" value="" style="image;sketch=0;aspect=fixed;html=1;points=[];align=center;fontSize=12;image=img/lib/mscae/Key.svg;rotation=90;" vertex="1" parent="PeOGeigSReAF_w0CeqYM-21">
          <mxGeometry x="9.5" y="28" width="31" height="50" as="geometry" />
        </mxCell>
        <mxCell id="PeOGeigSReAF_w0CeqYM-24" value="" style="group" vertex="1" connectable="0" parent="PeOGeigSReAF_w0CeqYM-1">
          <mxGeometry x="630" y="112" width="50" height="68.5" as="geometry" />
        </mxCell>
        <mxCell id="PeOGeigSReAF_w0CeqYM-25" value="" style="sketch=0;aspect=fixed;pointerEvents=1;shadow=0;dashed=0;html=1;strokeColor=none;labelPosition=center;verticalLabelPosition=bottom;verticalAlign=top;align=center;fillColor=#00188D;shape=mxgraph.mscae.enterprise.key_permissions;rotation=90;" vertex="1" parent="PeOGeigSReAF_w0CeqYM-24">
          <mxGeometry x="12" y="-12" width="26" height="50" as="geometry" />
        </mxCell>
        <mxCell id="PeOGeigSReAF_w0CeqYM-26" value="" style="image;sketch=0;aspect=fixed;html=1;points=[];align=center;fontSize=12;image=img/lib/mscae/Key.svg;rotation=90;" vertex="1" parent="PeOGeigSReAF_w0CeqYM-24">
          <mxGeometry x="9.5" y="28" width="31" height="50" as="geometry" />
        </mxCell>
        <mxCell id="PeOGeigSReAF_w0CeqYM-27" value="" style="group" vertex="1" connectable="0" parent="PeOGeigSReAF_w0CeqYM-1">
          <mxGeometry x="410" y="310" width="50" height="68.5" as="geometry" />
        </mxCell>
        <mxCell id="PeOGeigSReAF_w0CeqYM-28" value="" style="sketch=0;aspect=fixed;pointerEvents=1;shadow=0;dashed=0;html=1;strokeColor=none;labelPosition=center;verticalLabelPosition=bottom;verticalAlign=top;align=center;fillColor=#00188D;shape=mxgraph.mscae.enterprise.key_permissions;rotation=90;" vertex="1" parent="PeOGeigSReAF_w0CeqYM-27">
          <mxGeometry x="12" y="-12" width="26" height="50" as="geometry" />
        </mxCell>
        <mxCell id="PeOGeigSReAF_w0CeqYM-29" value="" style="image;sketch=0;aspect=fixed;html=1;points=[];align=center;fontSize=12;image=img/lib/mscae/Key.svg;rotation=90;" vertex="1" parent="PeOGeigSReAF_w0CeqYM-27">
          <mxGeometry x="9.5" y="28" width="31" height="50" as="geometry" />
        </mxCell>
        <mxCell id="PeOGeigSReAF_w0CeqYM-30" value="" style="group" vertex="1" connectable="0" parent="PeOGeigSReAF_w0CeqYM-1">
          <mxGeometry x="910" y="322" width="50" height="68.5" as="geometry" />
        </mxCell>
        <mxCell id="PeOGeigSReAF_w0CeqYM-31" value="" style="sketch=0;aspect=fixed;pointerEvents=1;shadow=0;dashed=0;html=1;strokeColor=none;labelPosition=center;verticalLabelPosition=bottom;verticalAlign=top;align=center;fillColor=#00188D;shape=mxgraph.mscae.enterprise.key_permissions;rotation=90;" vertex="1" parent="PeOGeigSReAF_w0CeqYM-30">
          <mxGeometry x="12" y="-12" width="26" height="50" as="geometry" />
        </mxCell>
        <mxCell id="PeOGeigSReAF_w0CeqYM-32" value="" style="image;sketch=0;aspect=fixed;html=1;points=[];align=center;fontSize=12;image=img/lib/mscae/Key.svg;rotation=90;" vertex="1" parent="PeOGeigSReAF_w0CeqYM-30">
          <mxGeometry x="9.5" y="28" width="31" height="50" as="geometry" />
        </mxCell>
        <mxCell id="PeOGeigSReAF_w0CeqYM-33" value="Kyber-512" style="text;html=1;strokeColor=none;fillColor=none;align=center;verticalAlign=middle;whiteSpace=wrap;rounded=0;" vertex="1" parent="PeOGeigSReAF_w0CeqYM-1">
          <mxGeometry x="291" y="135" width="69" height="30" as="geometry" />
        </mxCell>
        <mxCell id="PeOGeigSReAF_w0CeqYM-34" value="AES-256" style="text;html=1;strokeColor=none;fillColor=none;align=center;verticalAlign=middle;whiteSpace=wrap;rounded=0;" vertex="1" parent="PeOGeigSReAF_w0CeqYM-1">
          <mxGeometry x="200" y="205" width="60" height="30" as="geometry" />
        </mxCell>
        <mxCell id="PeOGeigSReAF_w0CeqYM-35" value="AES-256" style="text;html=1;strokeColor=none;fillColor=none;align=center;verticalAlign=middle;whiteSpace=wrap;rounded=0;" vertex="1" parent="PeOGeigSReAF_w0CeqYM-1">
          <mxGeometry x="770" y="275" width="60" height="30" as="geometry" />
        </mxCell>
        <mxCell id="PeOGeigSReAF_w0CeqYM-36" value="AES-256" style="text;html=1;strokeColor=none;fillColor=none;align=center;verticalAlign=middle;whiteSpace=wrap;rounded=0;" vertex="1" parent="PeOGeigSReAF_w0CeqYM-1">
          <mxGeometry x="590" y="205" width="60" height="30" as="geometry" />
        </mxCell>
        <mxCell id="PeOGeigSReAF_w0CeqYM-37" value="AES-256" style="text;html=1;strokeColor=none;fillColor=none;align=center;verticalAlign=middle;whiteSpace=wrap;rounded=0;" vertex="1" parent="PeOGeigSReAF_w0CeqYM-1">
          <mxGeometry x="372" y="270" width="60" height="30" as="geometry" />
        </mxCell>
        <mxCell id="PeOGeigSReAF_w0CeqYM-38" value="Kyber-512" style="text;html=1;strokeColor=none;fillColor=none;align=center;verticalAlign=middle;whiteSpace=wrap;rounded=0;" vertex="1" parent="PeOGeigSReAF_w0CeqYM-1">
          <mxGeometry x="900.5" y="290" width="69" height="30" as="geometry" />
        </mxCell>
        <mxCell id="PeOGeigSReAF_w0CeqYM-39" value="Kyber-512" style="text;html=1;strokeColor=none;fillColor=none;align=center;verticalAlign=middle;whiteSpace=wrap;rounded=0;" vertex="1" parent="PeOGeigSReAF_w0CeqYM-1">
          <mxGeometry x="701" y="135" width="69" height="30" as="geometry" />
        </mxCell>
        <mxCell id="PeOGeigSReAF_w0CeqYM-40" value="Kyber-512" style="text;html=1;strokeColor=none;fillColor=none;align=center;verticalAlign=middle;whiteSpace=wrap;rounded=0;" vertex="1" parent="PeOGeigSReAF_w0CeqYM-1">
          <mxGeometry x="470" y="329.25" width="69" height="30" as="geometry" />
        </mxCell>
        <mxCell id="PeOGeigSReAF_w0CeqYM-41" value="" style="group" vertex="1" connectable="0" parent="PeOGeigSReAF_w0CeqYM-1">
          <mxGeometry x="80" y="562" width="50" height="68.5" as="geometry" />
        </mxCell>
        <mxCell id="PeOGeigSReAF_w0CeqYM-42" value="" style="sketch=0;aspect=fixed;pointerEvents=1;shadow=0;dashed=0;html=1;strokeColor=none;labelPosition=center;verticalLabelPosition=bottom;verticalAlign=top;align=center;fillColor=#00188D;shape=mxgraph.mscae.enterprise.key_permissions;rotation=90;" vertex="1" parent="PeOGeigSReAF_w0CeqYM-41">
          <mxGeometry x="12" y="-12" width="26" height="50" as="geometry" />
        </mxCell>
        <mxCell id="PeOGeigSReAF_w0CeqYM-43" value="" style="image;sketch=0;aspect=fixed;html=1;points=[];align=center;fontSize=12;image=img/lib/mscae/Key.svg;rotation=90;" vertex="1" parent="PeOGeigSReAF_w0CeqYM-41">
          <mxGeometry x="9.5" y="28" width="31" height="50" as="geometry" />
        </mxCell>
        <mxCell id="PeOGeigSReAF_w0CeqYM-44" value="Chiave Pubblica" style="text;html=1;align=center;verticalAlign=middle;resizable=0;points=[];autosize=1;strokeColor=none;fillColor=none;" vertex="1" parent="PeOGeigSReAF_w0CeqYM-1">
          <mxGeometry x="150" y="562" width="110" height="30" as="geometry" />
        </mxCell>
        <mxCell id="PeOGeigSReAF_w0CeqYM-45" value="Chiave Privata" style="text;html=1;align=center;verticalAlign=middle;resizable=0;points=[];autosize=1;strokeColor=none;fillColor=none;" vertex="1" parent="PeOGeigSReAF_w0CeqYM-1">
          <mxGeometry x="155" y="600.5" width="100" height="30" as="geometry" />
        </mxCell>
        <mxCell id="PeOGeigSReAF_w0CeqYM-46" value="" style="html=1;verticalLabelPosition=bottom;align=center;labelBackgroundColor=#ffffff;verticalAlign=top;strokeWidth=2;strokeColor=#0080F0;shadow=0;dashed=0;shape=mxgraph.ios7.icons.locked;" vertex="1" parent="PeOGeigSReAF_w0CeqYM-1">
          <mxGeometry x="93" y="640" width="24" height="30" as="geometry" />
        </mxCell>
        <mxCell id="PeOGeigSReAF_w0CeqYM-47" value="Chiave di sessione" style="text;html=1;align=center;verticalAlign=middle;resizable=0;points=[];autosize=1;strokeColor=none;fillColor=none;" vertex="1" parent="PeOGeigSReAF_w0CeqYM-1">
          <mxGeometry x="145" y="640" width="120" height="30" as="geometry" />
        </mxCell>
        <mxCell id="PeOGeigSReAF_w0CeqYM-48" value="" style="endArrow=none;dashed=1;html=1;rounded=0;" edge="1" parent="PeOGeigSReAF_w0CeqYM-1">
          <mxGeometry width="50" height="50" relative="1" as="geometry">
            <mxPoint x="740" y="257" as="sourcePoint" />
            <mxPoint x="800" y="257" as="targetPoint" />
          </mxGeometry>
        </mxCell>
        <mxCell id="PeOGeigSReAF_w0CeqYM-49" value="" style="endArrow=none;html=1;rounded=0;" edge="1" parent="PeOGeigSReAF_w0CeqYM-1">
          <mxGeometry width="50" height="50" relative="1" as="geometry">
            <mxPoint x="850" y="257" as="sourcePoint" />
            <mxPoint x="800" y="257" as="targetPoint" />
          </mxGeometry>
        </mxCell>
        <mxCell id="RqjqjK5sT8vHKk-kmXX3-0" value="CA" style="whiteSpace=wrap;html=1;aspect=fixed;" vertex="1" parent="PeOGeigSReAF_w0CeqYM-1">
          <mxGeometry x="800" y="110" width="80" height="80" as="geometry" />
        </mxCell>
        <mxCell id="RqjqjK5sT8vHKk-kmXX3-1" value="" style="endArrow=none;html=1;rounded=0;entryX=0.5;entryY=1;entryDx=0;entryDy=0;" edge="1" parent="PeOGeigSReAF_w0CeqYM-1" target="RqjqjK5sT8vHKk-kmXX3-0">
          <mxGeometry width="50" height="50" relative="1" as="geometry">
            <mxPoint x="840" y="257" as="sourcePoint" />
            <mxPoint x="840" y="197" as="targetPoint" />
          </mxGeometry>
        </mxCell>
      </root>
    </mxGraphModel>
  </diagram>
  <diagram id="ag0G65U9No4Y_QhAEy6o" name="Scambio Chiavi">
    <mxGraphModel dx="1036" dy="606" grid="1" gridSize="10" guides="1" tooltips="1" connect="1" arrows="1" fold="1" page="1" pageScale="1" pageWidth="1169" pageHeight="827" math="0" shadow="0">
      <root>
        <mxCell id="0" />
        <mxCell id="1" parent="0" />
        <mxCell id="DBaoS5iAthSgVeB0_g5Z-11" value="" style="shape=umlLifeline;perimeter=lifelinePerimeter;whiteSpace=wrap;html=1;container=1;dropTarget=0;collapsible=0;recursiveResize=0;outlineConnect=0;portConstraint=eastwest;newEdgeStyle={&quot;edgeStyle&quot;:&quot;elbowEdgeStyle&quot;,&quot;elbow&quot;:&quot;vertical&quot;,&quot;curved&quot;:0,&quot;rounded&quot;:0};participant=umlActor;" parent="1" vertex="1">
          <mxGeometry x="40" y="40" width="20" height="520" as="geometry" />
        </mxCell>
        <mxCell id="DBaoS5iAthSgVeB0_g5Z-15" value="" style="html=1;points=[];perimeter=orthogonalPerimeter;outlineConnect=0;targetShapes=umlLifeline;portConstraint=eastwest;newEdgeStyle={&quot;edgeStyle&quot;:&quot;elbowEdgeStyle&quot;,&quot;elbow&quot;:&quot;vertical&quot;,&quot;curved&quot;:0,&quot;rounded&quot;:0};" parent="DBaoS5iAthSgVeB0_g5Z-11" vertex="1">
          <mxGeometry x="5" y="80" width="10" height="420" as="geometry" />
        </mxCell>
        <mxCell id="DBaoS5iAthSgVeB0_g5Z-13" value=":ECU1" style="shape=umlLifeline;perimeter=lifelinePerimeter;whiteSpace=wrap;html=1;container=1;dropTarget=0;collapsible=0;recursiveResize=0;outlineConnect=0;portConstraint=eastwest;newEdgeStyle={&quot;edgeStyle&quot;:&quot;elbowEdgeStyle&quot;,&quot;elbow&quot;:&quot;vertical&quot;,&quot;curved&quot;:0,&quot;rounded&quot;:0};" parent="1" vertex="1">
          <mxGeometry x="240" y="40" width="100" height="520" as="geometry" />
        </mxCell>
        <mxCell id="DBaoS5iAthSgVeB0_g5Z-16" value="" style="html=1;points=[];perimeter=orthogonalPerimeter;outlineConnect=0;targetShapes=umlLifeline;portConstraint=eastwest;newEdgeStyle={&quot;edgeStyle&quot;:&quot;elbowEdgeStyle&quot;,&quot;elbow&quot;:&quot;vertical&quot;,&quot;curved&quot;:0,&quot;rounded&quot;:0};" parent="DBaoS5iAthSgVeB0_g5Z-13" vertex="1">
          <mxGeometry x="45" y="90" width="10" height="400" as="geometry" />
        </mxCell>
        <mxCell id="DBaoS5iAthSgVeB0_g5Z-28" value="SalvaChiave" style="html=1;align=left;spacingLeft=2;endArrow=block;rounded=0;edgeStyle=orthogonalEdgeStyle;curved=0;rounded=0;" parent="DBaoS5iAthSgVeB0_g5Z-13" source="DBaoS5iAthSgVeB0_g5Z-16" target="DBaoS5iAthSgVeB0_g5Z-16" edge="1">
          <mxGeometry relative="1" as="geometry">
            <mxPoint x="60" y="170" as="sourcePoint" />
            <Array as="points">
              <mxPoint x="90" y="260" />
              <mxPoint x="90" y="280" />
            </Array>
            <mxPoint x="65" y="200" as="targetPoint" />
          </mxGeometry>
        </mxCell>
        <mxCell id="DBaoS5iAthSgVeB0_g5Z-31" value="GeneraChiavi" style="html=1;align=left;spacingLeft=2;endArrow=block;rounded=0;edgeStyle=orthogonalEdgeStyle;curved=0;rounded=0;" parent="DBaoS5iAthSgVeB0_g5Z-13" source="DBaoS5iAthSgVeB0_g5Z-16" target="DBaoS5iAthSgVeB0_g5Z-16" edge="1">
          <mxGeometry relative="1" as="geometry">
            <mxPoint x="65" y="100" as="sourcePoint" />
            <Array as="points">
              <mxPoint x="100" y="110" />
              <mxPoint x="100" y="130" />
            </Array>
            <mxPoint x="65" y="120" as="targetPoint" />
          </mxGeometry>
        </mxCell>
        <mxCell id="DBaoS5iAthSgVeB0_g5Z-36" value="GeneraCapsulaSessione" style="html=1;align=left;spacingLeft=2;endArrow=block;rounded=0;edgeStyle=orthogonalEdgeStyle;curved=0;rounded=0;" parent="DBaoS5iAthSgVeB0_g5Z-13" source="DBaoS5iAthSgVeB0_g5Z-16" target="DBaoS5iAthSgVeB0_g5Z-16" edge="1">
          <mxGeometry relative="1" as="geometry">
            <mxPoint x="65" y="310" as="sourcePoint" />
            <Array as="points">
              <mxPoint x="100" y="310" />
              <mxPoint x="100" y="330" />
            </Array>
            <mxPoint x="65" y="330" as="targetPoint" />
          </mxGeometry>
        </mxCell>
        <mxCell id="_ktdqWeV7fVdSu887R9G-1" value="DecifraTraffico" style="html=1;align=left;spacingLeft=2;endArrow=block;rounded=0;edgeStyle=orthogonalEdgeStyle;curved=0;rounded=0;" edge="1" parent="DBaoS5iAthSgVeB0_g5Z-13" source="DBaoS5iAthSgVeB0_g5Z-16" target="DBaoS5iAthSgVeB0_g5Z-16">
          <mxGeometry relative="1" as="geometry">
            <mxPoint x="80" y="460" as="sourcePoint" />
            <Array as="points">
              <mxPoint x="100" y="460" />
              <mxPoint x="100" y="480" />
            </Array>
            <mxPoint x="80" y="480" as="targetPoint" />
          </mxGeometry>
        </mxCell>
        <mxCell id="DBaoS5iAthSgVeB0_g5Z-14" value=":ECU2" style="shape=umlLifeline;perimeter=lifelinePerimeter;whiteSpace=wrap;html=1;container=1;dropTarget=0;collapsible=0;recursiveResize=0;outlineConnect=0;portConstraint=eastwest;newEdgeStyle={&quot;edgeStyle&quot;:&quot;elbowEdgeStyle&quot;,&quot;elbow&quot;:&quot;vertical&quot;,&quot;curved&quot;:0,&quot;rounded&quot;:0};" parent="1" vertex="1">
          <mxGeometry x="520" y="40" width="100" height="520" as="geometry" />
        </mxCell>
        <mxCell id="DBaoS5iAthSgVeB0_g5Z-18" value="" style="html=1;points=[];perimeter=orthogonalPerimeter;outlineConnect=0;targetShapes=umlLifeline;portConstraint=eastwest;newEdgeStyle={&quot;edgeStyle&quot;:&quot;elbowEdgeStyle&quot;,&quot;elbow&quot;:&quot;vertical&quot;,&quot;curved&quot;:0,&quot;rounded&quot;:0};" parent="DBaoS5iAthSgVeB0_g5Z-14" vertex="1">
          <mxGeometry x="45" y="100" width="10" height="390" as="geometry" />
        </mxCell>
        <mxCell id="DBaoS5iAthSgVeB0_g5Z-30" value="SalvaChiave" style="html=1;align=left;spacingLeft=2;endArrow=block;rounded=0;edgeStyle=orthogonalEdgeStyle;curved=0;rounded=0;" parent="DBaoS5iAthSgVeB0_g5Z-14" source="DBaoS5iAthSgVeB0_g5Z-18" target="DBaoS5iAthSgVeB0_g5Z-18" edge="1">
          <mxGeometry y="-70" relative="1" as="geometry">
            <mxPoint x="40" y="130" as="sourcePoint" />
            <Array as="points">
              <mxPoint y="190" />
              <mxPoint y="210" />
            </Array>
            <mxPoint x="40" y="160" as="targetPoint" />
            <mxPoint as="offset" />
          </mxGeometry>
        </mxCell>
        <mxCell id="DBaoS5iAthSgVeB0_g5Z-33" value="GeneraChiavi" style="html=1;align=left;spacingLeft=2;endArrow=block;rounded=0;edgeStyle=orthogonalEdgeStyle;curved=0;rounded=0;" parent="DBaoS5iAthSgVeB0_g5Z-14" source="DBaoS5iAthSgVeB0_g5Z-18" target="DBaoS5iAthSgVeB0_g5Z-18" edge="1">
          <mxGeometry y="-75" relative="1" as="geometry">
            <mxPoint x="30" y="110" as="sourcePoint" />
            <Array as="points">
              <mxPoint x="-15" y="110" />
              <mxPoint x="-15" y="130" />
            </Array>
            <mxPoint x="30" y="130" as="targetPoint" />
            <mxPoint as="offset" />
          </mxGeometry>
        </mxCell>
        <mxCell id="DBaoS5iAthSgVeB0_g5Z-38" value="Decapsula" style="html=1;align=left;spacingLeft=2;endArrow=block;rounded=0;edgeStyle=orthogonalEdgeStyle;curved=0;rounded=0;" parent="DBaoS5iAthSgVeB0_g5Z-14" source="DBaoS5iAthSgVeB0_g5Z-18" target="DBaoS5iAthSgVeB0_g5Z-18" edge="1">
          <mxGeometry y="-60" relative="1" as="geometry">
            <mxPoint x="35" y="390" as="sourcePoint" />
            <Array as="points">
              <mxPoint x="-10" y="390" />
              <mxPoint x="-10" y="410" />
            </Array>
            <mxPoint x="35" y="410" as="targetPoint" />
            <mxPoint as="offset" />
          </mxGeometry>
        </mxCell>
        <mxCell id="DBaoS5iAthSgVeB0_g5Z-17" value="AccendiMotore" style="html=1;verticalAlign=bottom;startArrow=oval;endArrow=openAsync;startSize=8;edgeStyle=elbowEdgeStyle;elbow=vertical;curved=0;rounded=0;endFill=0;" parent="1" source="DBaoS5iAthSgVeB0_g5Z-15" target="DBaoS5iAthSgVeB0_g5Z-16" edge="1">
          <mxGeometry relative="1" as="geometry">
            <mxPoint x="70" y="130" as="sourcePoint" />
            <Array as="points">
              <mxPoint x="160" y="130" />
            </Array>
          </mxGeometry>
        </mxCell>
        <mxCell id="DBaoS5iAthSgVeB0_g5Z-19" value="InviaChiavePubblica" style="html=1;verticalAlign=bottom;startArrow=oval;endArrow=openAsync;startSize=8;edgeStyle=elbowEdgeStyle;elbow=vertical;curved=0;rounded=0;endFill=0;" parent="1" source="DBaoS5iAthSgVeB0_g5Z-16" target="DBaoS5iAthSgVeB0_g5Z-18" edge="1">
          <mxGeometry relative="1" as="geometry">
            <mxPoint x="297" y="142" as="sourcePoint" />
            <Array as="points">
              <mxPoint x="430" y="210" />
            </Array>
          </mxGeometry>
        </mxCell>
        <mxCell id="DBaoS5iAthSgVeB0_g5Z-23" value="InviaChiavePubblica" style="html=1;verticalAlign=bottom;startArrow=oval;startFill=1;endArrow=openAsync;startSize=8;edgeStyle=elbowEdgeStyle;elbow=vertical;curved=0;rounded=0;endFill=0;" parent="1" source="DBaoS5iAthSgVeB0_g5Z-18" target="DBaoS5iAthSgVeB0_g5Z-16" edge="1">
          <mxGeometry width="60" relative="1" as="geometry">
            <mxPoint x="555" y="170.06" as="sourcePoint" />
            <mxPoint x="290" y="169.99999999999994" as="targetPoint" />
            <Array as="points">
              <mxPoint x="510" y="280" />
            </Array>
          </mxGeometry>
        </mxCell>
        <mxCell id="DBaoS5iAthSgVeB0_g5Z-34" value="AccendiMotore" style="html=1;verticalAlign=bottom;startArrow=oval;endArrow=openAsync;startSize=8;edgeStyle=elbowEdgeStyle;elbow=vertical;curved=0;rounded=0;endFill=0;" parent="1" source="DBaoS5iAthSgVeB0_g5Z-15" target="DBaoS5iAthSgVeB0_g5Z-18" edge="1">
          <mxGeometry x="0.2353" y="10" relative="1" as="geometry">
            <mxPoint x="340" y="130.33333333333337" as="sourcePoint" />
            <mxPoint x="580" y="130" as="targetPoint" />
            <Array as="points">
              <mxPoint x="330" y="140" />
            </Array>
            <mxPoint as="offset" />
          </mxGeometry>
        </mxCell>
        <mxCell id="DBaoS5iAthSgVeB0_g5Z-37" value="InviaCapsula" style="html=1;verticalAlign=bottom;startArrow=oval;startFill=1;endArrow=openAsync;startSize=8;edgeStyle=elbowEdgeStyle;elbow=vertical;curved=0;rounded=0;endFill=0;" parent="1" source="DBaoS5iAthSgVeB0_g5Z-16" target="DBaoS5iAthSgVeB0_g5Z-18" edge="1">
          <mxGeometry width="60" relative="1" as="geometry">
            <mxPoint x="370" y="420" as="sourcePoint" />
            <mxPoint x="430" y="420" as="targetPoint" />
            <Array as="points">
              <mxPoint x="440" y="410" />
            </Array>
          </mxGeometry>
        </mxCell>
        <mxCell id="DBaoS5iAthSgVeB0_g5Z-40" value="Diagramma Scambio Chiavi" style="text;align=center;fontStyle=1;verticalAlign=middle;spacingLeft=3;spacingRight=3;strokeColor=none;rotatable=0;points=[[0,0.5],[1,0.5]];portConstraint=eastwest;html=1;" parent="1" vertex="1">
          <mxGeometry x="40" width="170" height="26" as="geometry" />
        </mxCell>
        <mxCell id="5AtZAZMFv1BDhY_HT7Su-1" value="InviaTrafficoCifrato" style="html=1;verticalAlign=bottom;startArrow=oval;startFill=1;endArrow=openAsync;startSize=8;edgeStyle=elbowEdgeStyle;elbow=vertical;curved=0;rounded=0;endFill=0;" edge="1" parent="1" source="DBaoS5iAthSgVeB0_g5Z-18" target="DBaoS5iAthSgVeB0_g5Z-16">
          <mxGeometry width="60" relative="1" as="geometry">
            <mxPoint x="670" y="510" as="sourcePoint" />
            <mxPoint x="730" y="510" as="targetPoint" />
            <Array as="points">
              <mxPoint x="430" y="480" />
            </Array>
          </mxGeometry>
        </mxCell>
      </root>
    </mxGraphModel>
  </diagram>
  <diagram name="V2X" id="mL_t-uIFh5BsPB--bqcZ">
    <mxGraphModel dx="987" dy="577" grid="1" gridSize="10" guides="1" tooltips="1" connect="1" arrows="1" fold="1" page="1" pageScale="1" pageWidth="1169" pageHeight="827" math="0" shadow="0">
      <root>
        <mxCell id="xfIXe2Qn87EwwuHYDTUL-0" />
        <mxCell id="xfIXe2Qn87EwwuHYDTUL-1" parent="xfIXe2Qn87EwwuHYDTUL-0" />
        <mxCell id="uHGu2uEaStD5_-rpgMvh-0" value="" style="ellipse;whiteSpace=wrap;html=1;" vertex="1" parent="xfIXe2Qn87EwwuHYDTUL-1">
          <mxGeometry x="490" y="420" width="70" height="40" as="geometry" />
        </mxCell>
        <mxCell id="xfIXe2Qn87EwwuHYDTUL-2" value="" style="shape=image;verticalLabelPosition=bottom;labelBackgroundColor=default;verticalAlign=top;aspect=fixed;imageAspect=0;image=data:image/png,iVBORw0KGgoAAAANSUhEUgAAAgAAAAFRCAYAAAACQhU1AAAAAXNSR0IArs4c6QAAAARnQU1BAACxjwv8YQUAAAAJcEhZcwAAkKIAAJCiATBbtuYAACnHSURBVHhe7d0HvB1lgfdxWJqEGlqkiRCKCCoIUgSUKh0MAusqRWDFZZEiKyqL7OLrirqwLyDwCsILiItUARtFOgICokhZeijSO6EFQnH//5lzIbl5bu4pz8w8M/P7fj6/PefcNSH3JPM8c+fMPDPzTEB15lQrqEXU2GHNroCmmKJeGNbT6h41WQGlYwcAZVlQbahWVh/pPI5Xf6eAtnpHTVR3qNs7j1eo5xRQKHYAUKQl1WfVBPUpNYsCMGNvq2vU+eoC9YgComMHALF9SHnC306t7i8AGMjN6jzlHYK7/QUgBnYAEIMnek/4nvi9AwCgGN4B8I6Adwi8YwD0jR0A9GuM+monH+oHUC5/NHBsp9f8BaAX7ACgVz5zfy/1TeWz9wFUy1cT/FD9WHFFAbrGDgC6NYfaUx2kFvUXACTlCfV99RP1hr8AzAg7ABiNr8ffXR2slvAXACTtUfU9dbLy+gMA0JNZ1T+qh9TfiKh2edv1NuxtGZgORwAQsr3yZ4rLZK8A1NkDyufsnJu9AjrYAcDU5lPHqS9mrwA0yelqbzUpe4XWYwcAQzZQP1Vc0gc0ly8d3FVdmb1Cq7E0K/z54H+q45WPAABoLm/ju6h5lO854HsRoKU4AtBu8yp/LrhJ9gpAm1yqfL7PS9krtA47AO3lQ/0XKt+VD0A7+e6DWyhuONRC3Iq1nT6ublRM/kC7eQzwWOAxAS3DDkD7rK+uVqzmB8A8FnhM8NiAFmEHoF02VT7sP3f2CgByHhM8NniMQEuwA9Ae26hfKt/MBwCG89jgMcJjBVqAywDbYQd1lvK6/gAwEl8W7CsD7lZ3+gtoLnYAmm9n9TPFeuAAuuF5YTv1oLrNX0AzsQPQbF9WJyn+ngH0wh8Pb6t8i+E/+wtoHiaG5tpXeV1/zvMA0A+vE7OVekH5UkE0DDsAzeQ7f/2XYqEnAIPwGLK5el1d5y+gOdgBaJ5D1X/kTwEgio2Vdwauyl6hEdgBaBbfw//g/CkAROWFgsaoy7JXqD0OETeD/x6PVvtkr+rHhxd9xvH9nSaqVxXQFHOp8WrZTkur96k6Okbtp/6WvQJQGZ/k9xPljbEu+Rak16sD1QqKHVG0jf/N+9++twFvC94mQttKqnnM4QRjoEL+COc0FdpAU2uK+p3aS3EfAmBa3ia8bXgb8bYS2oZSy2MPHyMDFZhNna1CG2ZKPaMOUQsoAKPztuJtxttOaJtKKY9BHosAlGQO5TW7QxtkKj2kfE6CTxoC0DtvO96GvC2FtrFU8ljkMQlAwXzDjktUaENModuVlx9m6WEgDm9L3qa8bYW2uRTymMSNxoAC+ZadV6rQBlh1L6ovKU7oA4rhbcvbmLe10DZYdR6buNU4UID5lM8WDm14VXexWkIBKJ63NW9zoW2x6jxGeawCEIlPCrpZhTa4KntJ/aMCUD5ve94GQ9tmlXms4qRfIIJFlG/JGdrQqsyrgX1AAaiOt0Fvi6FttMo8ZnnsAtCnxdRdKrSBVdmpikVAgDR4W/Q2GdpWq8xjl8cwAD1aSnlZ3NCGVWUnKE70A9LibfJ4Fdpmq8xjmMcyAF3ymuEPq9AGVWW+3wCAdHkbDW27VeaxzGMaElPnn+R8Iw1//uW9S+fnPjvWl6H4elQvojH1o9fafmqqnuw8eg/1WvW2SsGH1OUqtUNnh6tv5E8BJMx3BU1tW31cbaTuzl5Vz0sYf1Itr8Z1ev9Uz/2xymT12rDHV9Sj6q/KOzbOz31DMxTEE/v26gh1jfLkHfPmGV5y8yS1uZpdVeWjyjsloT9jlf0fBaA+vqNC23KVeWzzGFcVj+2bqRPV0yr0Z+wnz0Wekzw3eY7yXMVl0QPwXtnX1S/UYyr0pheVF9k4TJV9q87V1XMq9Geqsn9VAOrnIBXapqvMY5zHujJ5LPeYXvYCSp67PId5LvOchhnwIXzfGvNPKvRmlt09aj1VBh+KSnF1rwMUgPr6mgpt21Xmsc5jXhk8hnssD/05ys5zm+c4Lp/u8J7ZP6vrVIr3w/af6RhV5CVv66uXVei/X1X+vvdWAOrPY2xq46vHPI99RfGY7bE71XnFc57/Xso+0pwE/+XsqnzyROgNSq0fqSJsqnxySei/WVU+GZLV/YBm2UN52w5t81Xlsc9jYBE8Zof+m6nlOdBzYZE/ZCbFJ9qluLLdaMU+HL6N8pmjof9WVb2lfNcxAM2zk/I2Htr2q8pjoMfCmDxWh/5bKec50XNjYy2kfqdC33wd8mGbLVUMO6opKvTfqao3lf9cAJprB5Xa2OM/T6yxx2N0iof9u81zpOfKRvEiEPeq0Ddcp3wNq68fHcQuKrW98DfUtgpA8/knbm/zobGgqjwmemwchMdmj9Gh379Oea5szMJJa6iY11xW3W6qX3uq1PZOvbhFow89AZiOr4f3th8aE6rKY6PHyH55bA79vnXMc6bnzlrbSr2qQt9gXXtQ9bNY0L4qtcnffzdenQtA+2yovLJdaGyoKo+RHit75THZY3Po96xrHp89h9bS4iq1y9ti1eu5AN9Uod+nynwf8bLWOQCQpnWVx4LQGFFlHjN74TE59PvUPc+hnktr50wV+oaakO+61a1DVej3qDIvxLGWAoA11QsqNFZUmcfObqV4J8RYeS6tFR9aCn0jTck3g+jmRkq+KUfo11eZl+JcTQHAkFXVsyo0ZlSZx9DReCz2mBz69U3Jc2otzKbuVKFvoknN6KYW/geZ4kIUPrGkyptxAEjXyirFm5F5LJ3RD1we00K/rkl5TvXcmjxfYhL6BprWBBXiFZ18t6nQr6ky345zRQUAI/HtyMu+AVs3eUwdabU8j8WhX9O0Yi+YVMjyg6t0HpsudGKGr0P9qUptKd1H1KfVXdkrAAjzdfSfUl6iNiUeUz22htZhqeVJcn2IPrcWsQPwsc5j0w3/R+fDM2coL7eZEl8a4w36vuwVAMzYROUx44HsVTo8tnqMHX4ovC07ALWYWz3RhA5fNK3T1JA51K9U6H9XZV5RakkFAL3yxJrKrXSnzmOtx9whHotD/7umlfwPcXOrOq/D3EuXK5tTXaJC/5sq80kjiyoA6Nf71R0qNMZUmcdcj73msTj0v2lanls9xyZrWRX6gzcxf1bmv4yrpvpaKt2qFlYAMCjfnOYWFRprqsxjr8fgJqz/322eY5Plz2ZSu9FNUXkJzeuHfS2FblYLKACIZay6SYXGnCrzGJzacsZF5bk1+UsB23IOQIr9Qc2nACC2edV1KjT2UPFFPwegiKsAfNIIyneN+oyalL0CgLh8zwCPMT70jvJFn1vZAWgGnwTjW/r6xhEAUBTfoW4L9bvsFcpUix0An52J8lykfMvI17JXAFCsycqr0v0me4Wy1GKny2s2t+FeACl0vvJ9sAGgbD4h7VwVGpsobp5Tu7kBXRK+okLfBMXrLDWrAoCqeAz6uQqNURQvz6m1MUb5trOhb4QGzytfhdbEBoCy+aPkU1RorKLB81zqOTW6oiaRN5UvR1sve4WYTlK+MYZXhQKAqnmS8vK849Tq/gKiOlLV7tw677G0aYWmMjpW1eZzIACtc5QKjV3UX55DC/npvwyrqSkq9I1Rb/2XAoDU/UCFxjDqLc+dnkNr7Vsq9M1R931PAUBdHKpCYxl1n+fO2vMJIineMKcuHaIAoG744a//PGcWsU5PJXxLSc4H6L0DFQDU1f4qNLbRyHmu9JzZKL43vZcyDH3DNG0+w39fBQB1t5fymBYa62jaPEd6rmykxdS9KvSNU543lD0VADTF7uptFRrzKM9zo+fIRltcccvgcN5AdlUA0DRfUL6nfWjsa3ueEz03toIPcfxehd6ItubFkz6vAKCptldcGj5tngsbe9h/JF5D+ggVekPaljeI7RQANN3W6nUVGgvblufAVt/TZYKapEJvThvyhrClAoC22FT5FuahMbENec7z3AdZVv1Zhd6oJucNYBMFAG2zgXpFhcbGJue5znMepuIbE31VPa9Cb1rTelmtrwCgrdZRbTkC/ILaR3En1xlYSB2vmnzJiP/Bf1IBQNutoTw5hsbKJuS57ES1sEKXVlXXqNAbWud8hOMTCgCQ83j/jAqNmXXuesUtkgewtjpL+TK50Btcp/wPfBUFAJjWyupJFRo765TXOjhXrasQyQfUf6q6niPwhFpJAQDCVlCPqtAYmnr+GONwtZRCQeZSO6mzVV1OHvE/6OUVAGDGxquHVWgsTS3PQZ6LPCd5bkKJZlMbq6NVqv9gHlLLKABAd/xT9P0qNKZWnecazzmeezwHoWILqD+q0F9WlfkfsD+6AAD0xmvjp3gbec81nnOQAF9a8RcV+ouqsrtU4+/sBAAFGqduV6Extso853BZX8V8A4U7VegvqMr8D9b/cAEAg/HaMCmuFOu5p3U38UnFkirF2wr7H+qCCgAQx1h1owqNuVXmOchzEUrkk+oeVKG/kCrzP9D5FQAgrnnVtSo09laZ5yJO9C5JqteJ+p7O/gcKACiGL7W7QoXG4CrznOS5qVZm7jzWhVeKukyl9vn6U2pv9Wr2CgBQlDnVMcpXCaTE84AvDbwje1UDddoB8FrRlyo+XwcApOg55Vu835K9StzfdR5Tt6byYR8mfwBAqjxHea7ynJW8OuwArKf8kz8n1wEAUue5ynOW566kpb4D4M9TLlbzZK8AAEif5yzPXZ7DkpXyDsCW6tdqTPYKAID68NzlOcxzWZJS3QHYTp2n3pe9AgCgfjyHeS7znJacWTqPKfkH9XPFXZYAAHXnefZzyjeHS+oSwdR2AHZTp6oUd0wAAOiHj7ZPUI8o30goCSlNtHupE1QdrkwAAKAXXndnG/W0utlfqFoqOwBfUz9SdVuZEACAbnmO80mBL6kb/IUqpbADsK86Kn8KAEDjbaomqUp3AqreAdhRnaj4yR8A0CbeCXhA3Za9qkCVOwCfV6erlM5DAACgDP7Bd1v1sLrVXyhbVZPvTuo0xeQPAGiroRMDH1Ol30Coign4S+oUxeQPAGg77wRsrXw74VKvDih7Ev6yOklxqR8AALmhqwN8O+Gb/IUylLkD4Ov8f6w44Q8AgGl5btxClXZ1QFk7APuoYxWTPwAAI9tMvaauz14VqIwdgF3UT/KnAABgFJuoJ9SfslcFKfon8o+r6xR39QMAoHtT1KdVYR8HFLkDsJDyGY1LZa8AAEAvHlf+QdpXCERX1Nn4/mjhTMXkDwBAfxZT56hZs1eRFXUOwA+VF/sBAAD98w/SY9VF2auIitgB2EFxcx8AAOJYU0W/b0DscwBWUjequbJXAAAghslqHRVtyeCYOwDzqT+q5bJXAAAgpofU6sorBg4s5kmARysmfwAAivFBdVz+dHCxjgBsqC7PnwIAgAJtri7On/Yvxg6AF/m5XS2bvQIAAEV6UK2svGRw32JcBXCo+mz+FAAAFMyXBc6mLste9WnQIwA+699nJPoPAgAAyvGWWk31fWngICcBeufBN/lh8gcAoFxeHdBzcN/z+CAfAfj+/v+UPwUAACVbQj2jfAl+z/r9CGBRdZfytf8AAKAaL6kVlW8c1JN+Dx14qV8mfwAAqjWvOjJ/2pt+jgCsqv6cPwUAAAnwbYN7Wia4n3MATlAr5E8BAEAC/NG8b8PftV6PAPiSg5vzpwAAICG+T8Cf8qej6/UIgC85WD5/CgAAErKYOiN/OrpejgB4z6KvSw0AAEApPqG6OlLfy1UA3+k8AgCANHU9V3d7BGANdWP+tDJT1B/UX9VjnXzdox/fVOOUT4JYSq2r1lZzKgAA+vW6ukH9Xvl+/E928iq4PuS+eCc/9/zjuWd2VaU11U3505F1uwNwofLtB8v2qrpInad+q7zgQbf8F+Adl03UF9V4BQDAaHy3vdPVpco//L6huuXr8rdQEzqPc6uyed70f3tg3pP4W8ldp7ZVvtVwLOupk5R3IkL/TSIiam8vq5PVp1U/a+SEzKG2Uler0H+zyDx3D+xnKvSbF5H3unZURRqjfETAe3Zvq9Cfg4iImp/nAN9Sd2fluaFIn1MTVejPUUSeu2dotL2c+ZU/Zy/6s3T/VH6Y8hLDvRxqGdSSyn/xuyoubwSAdrhXndbpEX+hJD4isJ86WPmjgiJNVj4v4cXsVR/2VqE9i5j58xWfvFe1TZU/egj9GYmIqP55jPdYXzXPeZ77Qn/GmHkO79tfVOg3jdXZKrUz9TdW16jQn5eIiOqXx3SP7Snx3Oc5MPTnjZXn8L544Z/Qbxir76lYJ1oUYQN1lQr92YmIKP08hnssT5XnQM+FoT97rDyX98w3/Qn9ZoPmky6+pOriU+pyFfpeiIgovTxme+yuC8+JRZ2U7rm8J3Opoi6XO0jV0Trqdyr0PRERUfV5jPZYXUffUqHvadA8l3tO79puKvQbDZoX9En5sH831lJeESr0/RERUfl5TPbYXHfnqND3N2ie07t2vQr9JoN0l5pHNYXXEvAlkqHvlYiIis9jsMfipvBP6rer0Pc6SJ7Tu7K0Cv0GgzRJraCaxjs0hyvfpyD0fRMRUfw85nrsbdIPlUO8bP0LKvR9D5Ln9mmE7gYYZf3gYbzowT3500bx0pEHqo8qryYFACiWx1qPuR57PQY3jVcL/Eb+NKqu5nbfdCe099BvXt636jsjlcVLPT6sQu8DERH1n8dWj7FtMKu6T4Xeh37z3D5DvvnOayr0i/ttF9UmXtzhu8q3kAy9H0RE1H0eSz2mtu327l9Qofej3zy3z/AGe77lb+gX9tsdKvQxQxsso36lQu8LERGNnsdQj6Vt5LnzNhV6X/ptmtv6D5+cY3/+78/+38mfts4Dahu1vXrOXwAAdOV55bHTY6jH0jby3Pnt/Gk008zxw6/J98kHsfa2HlW+2x7yOzKdqjbJXgEARnKF8kfHj2Wv4LsVLpE/HZh3pnyVQWbqIwC+TC/moZZRTzhoEV+r6jtQfU2VebtjAKgLX9rnM/t90x4m//f8uvMYg+f4dy/Jn3oHIPbhf3YApuXPX45SvjGDF3oAAOS8UJxX8jtCeazEe2LuANi7c/3UOwAx75HsszZ9MwZMzydGfkIdqfiHDqDtfqxWU7dkrzDclerV/GkU7871U+8A9HXLwBH4MxxfcoAwfwxwgPqM4lAXgDZ6Rm2t/llN9hcQ5B+oL82fRuGdrczQDsDiasH8aRS+IxNGN7Si1bnZKwBoh4vVR9RvslcYzSWdxxgWUov6ydAOwMc6j7F49T90x5e77KD2UJwgCKDJfM/7/ZWvR3/KX0BXHuo8xpLN+UXtADzReUT3Tlb+SMA3gQCApnlF+ZD/0dkr9CL2nOojz4XtAPiyN/TuGrWO8prXANAUnsA+rS7KXqFXT3YeY5lmB2CVzmMMXr0o9h+2TYYuh/lz9goA6u1OtbZiTOufT5j0xyexvLsDMEYt5xeRPK1i/kHbyDtQ3lv2iTIAUFdXKY5qDs4/WHtujeVDanbvAKysho4ExMBn2HEMfV52UvYKAOrldOVrzl/MXmFQMd/H2dSKnvizQwERLdJ5xODeUl9W/5a9AoB6OEztrLy8L+Lw5XsxfcQ7ANn1gBF5PYHZ86eIxPfC3lW9mb0CgDT549+vKN8JlpVO45lVxd4BWNQ7APPnz6OKvVOBmWY6TW2nfFQAAFLjyf/v1U+yV4hpnBp+995BLeAdgLH586h8+1vE51Wz9syfAkBSvKTvL/KniOz9nceY2AGooVOUD68BQCp8nhI/+ReniKPqY4v6CCDmZYWYnk+wOTZ/CgCVOk75PCUUp4g5tbAjAF7nGcXyetrX5k8BoBLXqf3ypyjQlp3HmMb6pAIv0PCB7GU8PhlkYcWaAMVaSt2q5steFetudXX+FEDCvIiYF3op2kvKy8jHvlENpuXx3SsB+tr9mLK/t0nKl2vE7h8Uivd5FXr/Y3eGApA+b6uhbTh2OykUz1dWhN7/QZvkjwDmVUUo4pAFpnemKmNyLuKjIgDxlbGtnqP+O3+KgnlF2CLM4/8T2jOI0XPKixegeOOV1wcI/T3E6kYFIH3eVkPbcKz8EW8ZHzEgP+z/vAr9PQycjwAUZQG1W/4UBZuofCSgSBwBAOqh6G31AuVzglC8PVShf5/BPYNIParmVCjeSsp3jAr9PcTIJ6EASJ+31dA2HKvVFYr3PuU5NPR3EKvgF2N2oEI5blOhv4MYcR8CoB68rYa24Rjdp1COf1Ghv4OYBb8YM58LUMZlashvvxn6O4hVdtIIgGR5Gw1tu7E6W6F4/nss+khOoecADPG5AAflT1Gw2zuPReE8ACBtRW+jf+k8olj+6T/23f+mU8YOgH1dbZQ/RYFe7DwWhR0AIG1Fb6Ms7la8T6lS7vdS1g7ALMpnqcdecRDTWrXzWJRFOo8A0lT0NsoJgMVaQnmNhVIuoS9rB8B8OOM85TMbUYzVOo9FWaXzCCBNRW+ja3QeEd8cynNkqT9oBU8OKDDfzhbx+bCRF+gIveex4gQgIG3eRkPbbqx8qfHGCvGdrELveZEFv1h0R6oyjz40nZdzflCF3uuYPaAApMvbaGjbjdkjqojbyLeV50LPiaH3uuiCXyyjX6m5FQYzl/qlCr3HRbSgApAeb5uhbbaILlRcFjw4z4GeC0PvcRkFv1hWtyif9ID+fFjdqULvbVF9RgFIj7fN0DZbVPeolRX647nPc2DovS2r4BfL7DG1rkL3vOf9TfWKCr2nRVbK5SkAeuZtM7TNFtmrymNRUXeVbSrPeZ77Qu9pmQW/WEVnqaUVRraw+g/la3FD72EZna8ApMfbZmibLSOvQfJ9NU5hZB9UviQ+9B5WUfCLVfWGOlxxgknOl4VsoDzp/0EVucZ3t/kEIADp8bYZ2mbLzLcl9+2ID1Ne/I3LvnM+QvID9boKvW9VFfxi1T2rvDfZtkUnvGCSr7P10smXqckq9P5U3WIKQDq8TYa21arzhHeF8scTa6lSFrhJiNdm8Q9wT6vQ+1NpM3eepMx7tT605QUSrlW+1r3OZlOLq6WUV0YcevShIU/+dbhx0r7qmPwpgATso36UP03ay+om9ZD6q/L47seh595hqDP/EOfP9yd0Snr12zrsAEztNeUTJ4Z6vPP4vPLh8ambEvjaSF/314bupd+N2ZUvvxvTeZzRc6/N7X8EQ3lPve5rIHgDXjN/CiABN6gmbJP+SXnqHQOf7+QTDX3Csx+nfj78ax7Lu+Ux2OO4fyAbXujroa/5Rncez/0DnfNzn9nv8b8W6rYDgHQsr7g3OFC9ZRXbInrGanzo1xc7jwCqxbaIvnAEAP26Xy2XPwVQoXsV2yJ6xhEA9MuHHX1WL4Dq+MRhJn/0hR0ADGKnziOAanD4H33jIwAMwus1LKq8+AeAcvmSM18JVer949EcHAHAIBZSu+dPAZRsV8Xkj75xBACDekL5fACv0QCgHHMqX/rn68+BvnAEAIPyRwAH5E8BlGR/xeSPgXAEADF4ec/x6pnsFYAi+aM3X4Zbh2XDkTCOACCGedQh+VMABfu2YvLHwDgCgFi8DveKamL2CkARllF3Ka9NDwyEIwCIxTfH+F7+FEBBfJ99Jn9EwREAxOR/S1upC7NXAGLaXP1WedwGBsYOAGJ7UXl5Uu5OBsTjS23/qObPXgER8BEAYvMAdYGaO3sFYFBzqfMVkz+iYgcARfiwOk1xqBIY3Clq5fwpEA87ACjKBHVw/hRAn76hdsifAnFxDgCK9I7aRvnEJQC92URdpHzTHyA6jgCgSP73dYbaLHsFoFsbqbMVkz8Kww4AiuZVAn+j9steARjN3upixUl/KBQfAaBMJyoPbl41EMC0ZlXHqH/KXgEFYwcAZbtKba+ey14BsAXUuWqD7BVQAj4CQNnWVzeqT2SvAHhbuEkx+aNU7ACgCr51sAe8SxSDHtrKO8PeBrwteJsASsVHAEiBB8AfKK8gyL9HNJnHXF8a+y21lr8AVIUdAKTkbnWC+r26Vb2lgLrzyX0fVeuqPdVKCqgcOwBI1WvqFvW4errTFAWkzrfrXaTTYmpVNUYBSWEHAACAFuIkQAAAWogdAAAAWogdAAAAWogdAAAAWogdAAAAWogdAAAAWij1ywB/pp7PnzbKbOrLnUcAaLN31GnqjexVs/gmTzvkT9OT8g6A74yV7BsXwa7q1PwpALTWvsq3QW6qXyov/5ycVHcAXlbLqGezV8317+rQ/CkAtM6R6oD8aWONU/erubNXCUn1HIAfqaZP/vYd9dP8KQC0ynnq6/nTRntKHZc/TUuKRwD80/8HVRM/+w/xeQAXqY2yVwDQfDeoDdXk7FXzLaQeVEkdBUjxCMCxqi2Tv72pPqfuyF4BQLNNVFurtkz+5iPayR0FSO0IwCvKP/0/l71qlyXVjWrR7BUANI/H9rXVfdmrdknuKEBqRwB+rto4+dsjakvlnSAAaJrXlc+Gb+Pkbz4K4DkuGantAPikkDbz/e93VG9nrwCgGXykeRd1ffaqvZKa41L6COBFtYjyZ+Jt9xV1fP4UAGrvQHVE/rTVfNL302r+7FXFUjoCcJli8s+doH6YPwWAWvt/isk/5znOc10SvAMwJX9auds6j8gdpM7MnwJALf1aeaU/vCeVue4NfwTgExMWzF5Wazt1fv4UHXOoS9V62at6uEJxJAeIz4ePfe18Xdys1levZq8wZIJK4VyAZ/x/HlI+D6DqllOYnm8mcbcKvWcpxt8jUIzxKrTNpZgvd/MSuJiex8jQe1Z2E/0RQCqXnbX18r/ReFGkLZRPHKmDxTuPAOJarPOYuheUxywvgYvppTLXvZTSDsCsnUdM7wFVl5Wz6jJIAXVTh23L55T5EPdd2SuEpDLXvewdAK+9nwJ2AGbsJvUF5Xtnp4wjAEAxUl8l1IeVd1dXZ68wklTmuuwIwKP588qxAzC6C1Tqt85kBwAoRupHAL6tTs+fYgZSmese8Q7AvfnzyvkEF4zu6E6p+kDnEUBcvl9Iqk5Sh+VPMQrf7yYF93oHIJV1mdftPGJ0PgqQ6iWTvuyHozlAXB6rN8ifJucStVf+FF34ZOexatnc/1E1/PKAKrpYoXtzKt9TO/ReVl2qAxVQV76DXmhbq7q/qHkUuvcrFXovy255NdMY5RPLQv+DMpukvJeL7i2sfG/t0PtZZUcpAPH8QIW2tSrzHUy56qd3XoAn9H6WmRdr88JSmYdV6H9Udr58BL3xXpyvKw29n1XlRUAAxJPaYmD+ge0jCr3ZRIXez7K7R73LZ26G/kdl5z8Unx/3zudP+F7bofe0qj6mAAxuBRXaxqrK1/pvrNAbH+H2Ryah97TsTlbvHnL3+u0p8E+ze+ZP0YNr1a7Kf7Gp2K3zCGAwqW1Lvl15Mne0qxGP0an8YHRV5zGzjBq+h1BVXj6Sk0r6800Vek+r6A2VyuUuQF0toV5ToW2sir6j0Dufa/eYCr2nVbSUmkYq5wG47yr053gVek+r6GcKQP9OUaFtq4p+qtCfQ1ToPa2i4Dlap6rQ/7iKfPvIZRV6N4v6rQq9r2Xnq0s4FwDoj0+ye1uFtq2yu1y9e9Y4euIjoV5yP/S+VpF3Kqezowr9j6vKZ72OVejd3OpPKvS+lh3rOwD9uUiFtqmyu0PNp9C7eZXfv9D7WlWe66fjhWVeUqFfUFU+OZG9zv74xiGpfKzz9wpA91L5gexxxfLe/fHRWP8AFHpfq8pzvOf6oNNU6BdV2TlqDoXeraReVKH3tcx8EtNqCsDoVlX+GDS0LZWZD1v7z4Le+QfX/1ah97XKPMePaDMV+kVVd6XiEFR/NlS+bjf0vpaZ7zqZ+u1Mgaotov6qQttQmb2ltlDonT+C9f0RQu9r1XmOH5EX4XlahX5h1d2quNVsf3ZRofe07G5U71MApje78poeoW2n7HytP3o3Tt2sQu9p1XluH3WhPa/jHvrFKeQ1lD+r0Lt/V6H3tOzOVKz2CEzLnxf7MrvQNlN231fo3ZbqCRV6T1Ooq3u0+JIF3ygg9Buk0v9XPsyC3qRyTbEvKVpAAZhppvlVKieLnaFmVuie56ITVOj9TCXP6V0vzJbiyQvD813wNlfonk9MuVSF3s+y89+fT1IE2szLn6dyo59rFCdc98Zz0P0q9H6mlOf0rnkBihRuEdxN/mny4wrd8XWpt6vQe1l2viRlawW00WfUCyq0bZSdd0I4Ktc9zzmee0LvZWp5Lu/5zo2/VqHfLMX8DXrZWdae786SKpV1qb3S2bFqYQW0gRc4O0L5TPvQNlF2vv/K0gqj8xzjuaYuPyA7z+U9W1uFfrOU82RyofqcYgGhGVtFpbQ8pY8GHKx80wygiXwFzIHqeRXaBqrI6w2soTAyzyUTlJdYT2Vp5l7yXN4Xn7Ed+g3rkC958F72igph/vwqtRM+fWRiD+WzooEm8G3XfSluSjdcc57MtlUI8/kZP1RPqtD7V4c8h/fNh4pTWJFq0K5TuyuuHJjenir0nlWdd+B8tcc2asSlK4FE+af9rdSJKtUJZB+FaXms2VldrULvWZ3y3O05fCD/pkK/eR3zIW9vkGspvMfX/Yber1TyP+QLlI8MrKuWUewUIBWe7P0Z+jpqN/UL9YoK/VtOpf+r8B4veXycSmHp9Fh57p6hbq739EB7l1oqe9Ucd6r78qfvGv5+lP26W1P/uhjPfYjSE6sf68Qbq29W4p+wvNwxUBav2vd+5eWt63bXUp/A5jPY/RFA2aYef4Z4sqry0Yf6m3bPA3/c5I+/J2evRhD6ywjx50T+CQwAAKTNK+b+Mn86sm5PtLpHLaG43h4AgHSdpA7Pn85Yt0cAbC51i1ouewUAAFLij7WHbic9ql4+8/Vv+AXly8YAAEA6PDd7ju5q8rder7X2CVdevWqj7BUAAEjBIers/Gl3+llsxdfUf1hxIxcAAKp3jto/f9q9Xs4BmJqve71C9b3EIAAAGNgf1Ibq9exVD/rdAbCF1A1qfPYKAACUybdV98J2z2avejTIwi/+D26hfGMLAABQHs+9noP7mvxt0JXf7lW+NSIAACiP517PwX2r29KvAAAgAnYAAABoIXYAAABoIXYAAABoIXYAAABoIXYAAABoIXYAAABoIXYAAABoIXYAAABoIXYAAABoIXYAAABoIXYAAABoIXYAAABoIXYAAABoIXYAAABoIXYAAABoIXYAAABoIXYAAABooZk7j4M4Su2XP0VBjlUH5k8BIHmHq6/mT1GQo9X++dPqeAfgb1Rofo8BoC6YF4pv4HmBjwAAAGghdgAAAGghdgAAAGghdgAAAGihGDsAb3ceURzeYwB1wphVvIHf4xg7AE91HlEc3mMAdcKYVbyB3+MYOwCPdR5RHN5jAHXCmFW8gd/jGDsAj3ceURzeYwB1wphVvIHfY44A1APvMYA6Ycwq3sDvcYylgOdWL+dPUZB51Cv5UwBIHvNC8QaeF2IcAfAf4H/ypyiA31smfwB1wrxQrCjzQowdADuv84j4eG8B1BFjV3GivLfsAKTv/M4jANQJY1dxosy5Mc4BGDJRLZM/RSQPqaXzpwBQOw+qD+ZPEckDanz+dDCxjgAYRwHi4z0FUGeMYfEl+Z56j+QNFbpvMfXeFLW8AoC68hjmsSw0xlHveY6N8tO/xTwC4I8AjsufIoIfq3vzpwBQSx7DPJYhDs+xnmujiHkOgI1V96sFslfo1wtqWfV89goA6svzgecFzw/on+cDzwueH6KYpfMYy+vKh3s2y16hXwerK/OnAFBrk5XnhU2zV+jXv6qr8qfpmk3dqUKfX9Do+b2bXQFAU3hMY17oP793nltrYTn1nAp9IzRyzyof4gGApvHY5jEuNPbRyHku9ZxaK+srzv7sPp/duZ4CgKbyGMfVYt3nOdRzaS3toULfFE3fzgoAms5jXWgMpOnzHFpr31Whb4ze69sKANrCY15oLKT38tzZCF9SvkIg9E22OZ8du5MCgLbx2OcxMDQ2tjnPlZ4zG2UN9agKfcNt7BG1mgKAtvIY6LEwNEa2Mc+RnisbaZz6vQp9423K78EiCgDazmMh80L+HniObDQvP7yL8l2iQm9Ck/P37O895hLMAFB3zAstmxe8MMQ+6ikVelOalL9Hf68s8AMAI2NeaJm51AHKhz/eUqE3qo75e/H35O/N3yMAoDtNnRfeVtcq5oWABZWvET1LTVKhNzDl/Gf2n93fg78XAMBg6j4vvKTOUT7Mv5BKRuy7AcbkP9vCarFh+Y5SVf+5/ZfqOzM9rp7oPLpnlP9/AID4hs8Li3YefcfBFOYF36lvaD4Ymhs8L7yjAAAAqjbTTP8LY3VbtJADN18AAAAASUVORK5CYII=;" vertex="1" parent="xfIXe2Qn87EwwuHYDTUL-1">
          <mxGeometry x="120" y="415.5" width="167.12" height="110" as="geometry" />
        </mxCell>
        <mxCell id="xfIXe2Qn87EwwuHYDTUL-5" value="" style="shape=image;verticalLabelPosition=bottom;labelBackgroundColor=default;verticalAlign=top;aspect=fixed;imageAspect=0;image=data:image/png,iVBORw0KGgoAAAANSUhEUgAAAgAAAAIACAYAAAD0eNT6AAAABHNCSVQICAgIfAhkiAAAAAlwSFlzAAAOxAAADsQBlSsOGwAAABl0RVh0U29mdHdhcmUAd3d3Lmlua3NjYXBlLm9yZ5vuPBoAACAASURBVHic7d15tGVFfejxbzfdDa3Mk4AMIhgZRBCjRI0jYhRUnorxaTQ+H1E0Rn2a917UmJjExJjEJclzilFjnI0jahRnjbOiUUQUEWlAmWSelKG77/ujbi+apu/tc0/Vrt+uU9/PWrVgLbj796va++z9O/vsXQWSJEmSJEmSJEmSJEmSJEmSJEmSJEmSJGkslkUnIEmLmMv8e89x0gKWRycgSZLqswCQJKlDFgCSJHXIAkCSpA5ZAEiS1CELAEmSOmQBIElShywAJEnqkAWAJEkdsgCQJKlDFgCSJHXIAkCSpA5ZAEiS1CELAEmSOmQBIElSh1ZEJyBp1OYy/35ZkSzi9N5/zTDvAEiS1CELAEmSOmQBIElShywAJEnqkAWAJEkdsgCQJKlDFgCSJHXIAkCSpA5ZAEiS1CELAEmSOmQBIElShywAJEnqkAWAJEkdcjVASdIGOwL33qg9KTYdDcmlKiUtJno53N7jD2l74J7c9oJ/ELe9Mzzm/JXJOwCSNPsmudirMxYAkjRbvNhrIhYAktQuL/aamgWAJLXBi72KsgCQpPHxYq/BWQBIUiwv9gphASBJ9Xix12hYAEjScB7GbS/2B+C79RoJD0RJi4meCKf1+K3zGjHDvO0kSVKHLAAkSeqQzwBIUrLpQjj3jk1HGpYFgKQe+TS+umcBIGnWebGXNsMCQNIsO4f06p2kTfiKh6TF+Bpe37xGzDBvgUmS1CF/ApA0NjsCR+JT+Ll+hj9/aBEWAJIi+YBeGRcD392ofRO4DH9C0SIsACTV4sW+jE0v9t8ALg/NSE2yAJA0pP+DC+FMa450G3/ji/1/AVdHJqXZ4YdR0mK8hVzPEN/so9/i0Ih5B0CS6vM2vsJZAEhayA7RCcwAb+NrtCwAJAFsBxzO7R/Q09L4zV7NsACQ+rPQxd6n8ZfGi72aZgEgzTYv9mV4sdfMsQCQZocX+zK82KsLFgBSm7zYl+HFXt2yAJDGz4t9GV7spY1YAEjj4sW+DC/20hZYAEhxvNiX4cVemoIFgFSHF/syvNhLhVgASMN6D+lifzecV30p5oBzuP0MetdEJiXNEk9I0rBcTGcyfrMfhosBaUHeAZBUmxd7aQQsACQNyYu9NFIWAJJK8WIvNcQCQNI0vNhLjbMAkLQlXuylGWQBIGljm17svw5cEZqRpEFYAEj98mIvdcwCQOqDF3tJt2EBIM0eL/aStsgCQGqbF3tJU7EAkNrhxV6SpEbMZbY/Bh4CbF85b82G3ONPM8yFHqRhuRiLInn8aUGuRS5JUocsACRJ6pAFgCRJHbIAkCSpQxYAkiR1yAJAkqQOWQBIktQhCwBJkjpkASBJUocsACRJ6pAFgCRJHbIAkCSpQxYAkiR1yAJAkqQOWQBIktQhCwBJkjq0IjoBSYOai04g07LMv++9/9KCvAMgSVKHLAAkSeqQBYAkSR2yAJAkqUMWAJIkdcgCQJKkDlkASJLUIQsASZI6ZAEgSVKHLAAkSeqQBYAkSR2yAJAkqUMWAJIkdcgCQJKkDlkASJLUoRXRCTSg9fXEpRy569G3/vnpvf+aYd4BkCSpQxYAkiR1yAJAkqQOWQBIktQhCwBJkjpkASBJUocsACRJ6pAFgCRJHbIAkCSpQxYAkiR1yAJAkqQOWQBIktQhCwBJkjpkASBJUocsACRJ6tCK6AQaEL0eeG58xXI9eGl6nj8H5B0ASZI6ZAEgSVKHLAAkSeqQBYAkSR2yAJAkqUMWAJIkdcgCQJKkDlkASJLUIQsASZI6ZAEgSVKHLAAkSeqQBYAkSR2yAJAkqUMWAJIkdcgCQJKkDq2ITkCDi15Pu/f4rcsdv9b13n/NMO8ASJLUIQsASZI6ZAEgSVKHLAAkSeqQBYAkSR2yAJAkqUMWAJIkdcgCQJKkDlkASJLUIQsASZI6ZAEgSVKHLAAkSeqQBYAkSR2yAJAkqUMWAJIkdaj3tc5rcD36vrn/FSn6+MuNH22mP3/eAZAkqUMWAJIkdcgCQJKkDlkASJLUIQsASZI6ZAEgSVKHLAAkSeqQBYAkSR2yAJAkqUMWAJIkdcgCQJKkDlkASJLUIQsASZI6ZAEgSVKHLAAkSerQiugENLjW1wNvPX4012NXy6I//zPNOwCSJHXIAkCSpA5ZAEiS1CELAEmSOmQBIElShywAJEnqkAWAJEkdsgCQJKlDFgCSJHXIAkCSpA5ZAEiS1CELAEmSOmQBIElShywAJEnqkAWAJEkdWhGdgAYXvZ567/Fb53rs0ozyDoAkSR2yAJAkqUMWAJIkdcgCQJKkDlkASJLUIQsASZI6ZAEgSVKHLAAkSeqQBYAkSR2yAJAkqUMWAJIkdcgCQJKkDlkASJLUIQsASZI6ZAEgSVKHVkQnoMHlrscevR586/HVttzjp3XR/W89/qjPH94BkCSpQxYAkiR1yAJAkqQOWQBIktQhCwBJkjpkASBJUocsACRJ6pAFgCRJHbIAkCSpQxYAkiR1yAJAkqQOWQBIktQhCwBJkjpkASBJUocsACRJ6tCK6ARGbGfgSOA3gAOBA4DdgN3n/9tWwPbAzcANwFXz//wlsAY4d75Fi16Puvf4rYtej711Hn9tm+nj34PzVvsCRwMPA+5HuuCPgfuobbknkNz93/oJLPr4j95/ijXT+7/3OwCHACfMt8OCc5EkqZoeC4DtgScDJwL3Cc5FkqQQPRUAewDPBp4P7BSciyRJoXooAHYF/ox08V8VnIskSaMwy68BrgZeDJxD+tbf6sX/hcDK6CQkSWrBU4ELSE9wzkL7EXBM0RFSLbn7Pjp+dIvWev7K4/5vyO7AKcSftIZq7wd2KTZaqiH6BBJ9zEb3P1fr+SuP+78RxwOXEn/CGrpdBBxXaMw0vOgTSPTxGt3/XK3nrzzu/5HbDngL8Seqmm098Gp8NqAF0SeQ6GM1uv+5Ws9fedz/I7YfcAbxJ6mo9jXgztmjqCFFn0Cij9Ho/udqPX/lcf+P1H2Bi4k/QUW3i4DfzBxLDSf6BBJ9fEb3P1fr+SvPTO//Vl8DfDzwRdLkPr3bE/gS6RkISZJm1ouAdcR/MxlbWws8PWNcNYzobxDRx2V0/3O1nr/yuP9H5PnEn5DG3NYDz5t6dDWE6BNI9DEZ3f9creevPDO9/0e9VOEmTgLeSP2c1wCnAz+YbxcA12zUAHbYqO0L3BM4fP6f+1fOdw74I+ANleMuJPdDEL0cbuvxezf6k7C0CD//wNOod9t/LfBV4AXAPgVy3wd4FvBx4KZKfVgP/I8CuZcQXUH3Hr93NT5vNttQrXsnkC7KQw/0T0nfnHcYsC87kn7GOKdCf24Gjh2wL5OK/gD0Hr930Sdwmy2nde1I4FcMO8BfBh5L3TcilpOe2v9KwX5srl1H+hkiUvQHoPf4vYs+gdtsOa1buwDnMtzAXgD8frXeLOwxwM8Yrp/nkdZIiBL9Aeg9fu+iT+A2W07r0grg8wwzoDeQlgneulpvtmwb4KWk3Ibo83+SxjRC9Aeg9/i9iz6B22w5rUuvYZjBPBM4rGI/luog4HsM0/e/rtiPjUV/AHqP37voE7jNltO68zjKD+J64LWkb9pjtw3wesqPwTrg4RX7sUH0B6D3+L2LPoHbbDltUGN7x3Bn0rf0klP83kR6Je59BbdZw5OBfwNWFdzmNaR5DbYnve2w3fz2ryYdbFeR1le4CPg58GPS/vgRt855sFS5B3Hr7+FHx+/d4CdRaUCDfv7HdnJ5B+md/1KuId1R+GLBbdZ0NPBh0gU70npSIfBV0psLnwaunPBvoy+AvcfvnQWAWtZNAXAs8ImC27sYeBRpFr+WHQGcyrgWPlpHWor4o8B7SWO9kOgLYO/xe2cBoJZ1UQBsD/yQMjPvAVwOPBA4q9D2oh1M+ua9S3Qim7EO+CzwNtLdirWb/PfoC2Dv8XtnAaCWdfH5P5lyD01cB9y3bvpVHAVcT/xDKYu1C4A/AXbaKO/oh2B6j9+76M+EzZbTZt5+wI2UGaybgUfWTb+qh1FurIZs1wGvIk19HP0B6D1+76I/CzZbTpt5b6fcYD2rcu4RTiL+oJy0XVFgG7l6j9+76M+AzZbTBhX9+8I9SA/plZiH/32kV+d6UPptiTFr/Tf46Pi9G/wkKg1opj//H6NMlXQW6Z32XmxLejc/ujpdavsksNcA4zFm0d8Aovd56/2Xcnj8LeAoypwgbgQOqZz7GBxGmuQo+gS91PZL4AkDjMdYRZ8Aovd36/2Xcnj8LeA9lDlBvLx24iPyCuJP0NO2NzOuBZmGEn0CiN7PrfdfyuHxtxl7UObb69m0Mb//ULYm/fwRfZKetn0XuEvpQRmZ6BNA9D5uvf9SjlEffyUevpvGs8if436O9ET8jfnpNOsm4I+ik8hwJPBt0qRNkqQZtxK4kPzK6P21Ex+xDxP/TS2n/Zq0ZsMsiv4GEL1vW++/lMPjbxNPIn9Q1pEeglNyD9KYRJ+sc9pa4NmlB2YEok8A0fu19f5LOTz+NnEq+YPynupZj98HiD9Zl2h/XHpggkWfAKL3Z+v9l3KM+virPcnAjsCl5P3+v470jXdWFvop5VDgB+Q91zFHej5jX9IYHw7cNT+1JefwPOD1leMOJfdDHD0RUbTo/s/0RCwanMffRp5KfkX0oepZt+Oj5I/v726yzbuSHjT8FOm3+hrf+tYDJ5YZknDR3wBq7K8hW3T/pRwefxv5CPkD8ojqWbfjOPLH912LbH8H0h2CMwvE2VJbBxyfMxgjEX0CGHo/Dd2i+y/l8Pibd0fgBvIG41ziXl1swVbAeeSN8ZXAii3EWQ48CvhWZqwtteuAI6Yci7GIPgHUvFgP0aL7L+Xw+Jt3AvmD8ZLqWbfnZeSP80OXEO8xpAmZhroAXAjsvcQxGJPoE0CtC/VQLbr/Ug6Pv3n/TN5ArKO/hWSmsTfpN/ScsT55iTFXAi9luLUJvsqW70qMVfQJIOKiXbJF91/K4fE37wzyBuIb9VNu1rfJG+v/mjLuoaTpfYe4ELxqypyiRZ8AIi7aJVt0/6UcHn+kh8dyJ6p5afWs2/Vn5I31LaRnNqaxinQHofSFYB3puYPWRJ8Aoi7cpVp0/6UcHn+kJ/dzB+Ie1bNu1+Hkj/eDMnM4kfI/CVwK7JqZV23RJwDjtx3fFttyRcdfVK0n6u+X+fdrgB+WSKQTpwMXZG7jqMy/fyup8Lsiczsb2x34p4Lbk6Ru1SoAHpD5918ukkVfvpL597kFAMB/Ag8DLi+wrQ2eAvy3gtuTpC7VKgAOz/z7bxfJoi/fyvz7EgUApOmJj6HsnYDXAdsV3J4kdadGAbAd6dZtjtyLWY9yx+zOTP8g4Ka+TyoCrim0vTvjQ6GSlKVGAZC7mMyNpG+RWprvk8ZuWsuAu5RJBYDvkdYZWFtoey8CDiy0LUnqTgsFwBmk19K0NDeT5uzPUXolwM8A/7vQtlYBryy0LUnqTgsFwLlFsuhT7tjtXySL2/on0hsCJZwA/GahbUlSV2oUAAdk/v2aIllMb9TvcW7BeZl/f5cCOWzOH5F/dwLSzxR/WmA7ktSdGgXAvpl/f36RLPp0Xubfl/4JYIMbgWdQ5nmA44F7FtiOJHWlRgGwfebfR98BaFnu2O1UJIvNOw346wLb8S6AJE2hRgGQ+yrZpUWy6NMlmX+/bZEsFvZK4KwC23k8sE+B7UhSN2oUALkXkeuLZNGnX2X+fal5ABZyC/C8AttZATyrwHYkqRst3AHIvYj17IbMvx+6AAD4HPDJAts5Cdi6wHYkqQs1CoA7ZP69BcD0cu+e1CgAAP6YtNxvjt1wjQBJmlgLPwHkfovt2dh/AtjgLOCDBbbzewW2IUldWFYhxs3Ayoy/X0m56WOnkfsuf40xXshK0vhPay15+24pDidNF5wzXrcAe1J24aFc0ceP8fuOn8v8246/qBp3AHK/ha4ukkWfcn9++XWRLCZzOvCpzG2sBB5XIBdJmnk1CoDcW/i5F7Ge5RZPNQsAgFcX2MbvFtiGJM28GgVA7kXEOwDTy/0Nv3YB8EXy1y94MMPPXyBJzWvhDsAORbLo03aZf1+7AJgD3pm5jVXAQwvkIkkzrYVnAO5cJIs+7Z3591cWyWJp3k7+gzOPLJGIJM2yGgXALzP/3ilep5c7dhcXyWJp1gBfy9zGI0okIkmzrEYBcEHm3+d+i+1ZbgHwiyJZLF3uzIAHAncqkYgkzaoaBcB5mX+/X4kkOpW7FHPuYkLTOrXANu5bYBuSNLNqFADnZ/79YUWy6NM9M//+oiJZLN3p5P/8cFSJRCRpVrVwB+AQ0pPdWpptgIMyt3F2iUSmMAd8JnMb3gGQpEW0cAdgFXBwiUQ6cyh50/jOAWcWymUa38r8e+8cSdIiahQAl5F/O/fIEol0JnfMLgCuK5HIlL6T+fd74BwSkrSgGgUAwGmZf/+QEkl05iGZf39GiSQy/IC8hYwAfqNEIpI0i2oVALnf5h5O/KpSLVkGHJ25jR+WSCTDTQVyyH0GQpJmVit3APYiPQyoydyD/Pfgv14ikUw/yfz7/YtkIUkzqFYB8N0C23B2t8nljtV64KslEsmU+wCpkwHlm8tskkaqVgFwGXBO5jZc5nVyT8r8+x8CV5VIJFPuLJIWAJK0gFoFAMCnMv/+t0hTvGpxBwD3ydzGV0okUkBuAbBHkSwkaQbVLAA+UWAbTyywjVn3ewW28fkC2yjhwsy/361IFpI0g2oWAF8if2ngp+HbAItZDjw1cxu/Jn8WvlKuz/z7OxTJQpJmUM0C4EbgC5nbOBg4pkAus+pY4G6Z2/gMcEOBXErILRi3LpKFJM2gmgUAlPkZ4AUFtjGrnl9gG6cU2EYpuQXA6iJZSNIMqn07fVfS77o5i/vMke4E5L4jvpR4OWqN8SGkp/dz4q0F9gQuL5JRvpXkzQa4lrz1EEqIPn5afxUvuv+tx89l/m3HX1TtOwCXAx/P3MYy4GUFcpk1f07+wfIfjOfiD/EfPkmaWbULAIC3FdjGU4DDC2xnVtyTMm9IvLXANkq6Y+bfj+VZBkkanYgC4NPARZnbWA78VYFcZsWryN+Xl5A/V0NpFgCSNJCIAmAt8I4C23ksrhIIadGfRxXYzttI+2ZMcl/jy32IUJJmVkQBAPDPwC2FttPzq17bAG8ssJ1bSGM5Nrl3ACwAJGkBUQXA+cC7C2zn7sCfFthOq15G/nv/AO8hf9rdIeyZ+ff+BCBJI3R3YB35q43dBBw2YJ5jXQ3tcFLfc/NbR3qtcoz+kLy+faR+yrcTffzkxo9u0f1vPX4u8287/qKi7gBAeo//wwW2swr4ILBdgW21YlvgveTNp7DBx4AfF9jOEPbP/Pvc5YQlSQO5F2nt+RLfFEo8WLg5Y6zg3l0grznSt/8jB8qxhA+Q178X1k/5dsZ4/PQkevyj4+cy/7bjj957KXMxmwOeNUB+Y9uBubfFN25DFU2lfIe8/j2+fsq3M7bjpzfR4x8dP5f5tx1/9PYmrfpW4oK2lvR6YElj2oHHkp7YLzFWvwb2LZxfSVuTFpDK6eMY7m6M6fjpUfT4R8fPZf5tx2/Cn1HmojYHXAfcu2BuY9mB96FcoTQHvLJgbkM4ivw+7lI969sby/HTq+jxj46fy/zbjt+EbYBzyR+sDe0S4NBCuY1hBx4GXFoglw3tfMb/0OTzyevjL+qnvFljOH56Fj3+0fFzmX/b8RcV+RbAxm4EXlRwe3cCvsQ4bgHnug+pL7sX3OazSXdKxuyozL8/rUgWkqQq3kGZb7gb2tXAAzJziqzgHgRcUyCHjdvbM3OqYRlpYqKcfr60etabN+pvAB2IHv/o+LnMv+34TdkBWEOZC92GdiNwYkZOUTvwmeQ/BLdpuxjYOSOnWo4gv6+PqJ715nkCiBU9/tHxc5l/2/Gb8wDS0/y5A7dpexPTTZxTeweuIK3uV7r/6xjPRXFLXk5eX9czjgcAwRNAtOjxj46fy/zbjt+kv6XMRW/T9h3gnkvMpeYOPBz47gD9nqOt5ZNPI6+vZ9VPeUGeAGJFj390/Fzm33b8Jq0EvkCZC9+m7SbSN8yVE+ZSYweuAv4SuHmgPn8B2GrCXKLtTf7skCdXz3phngBiRY9/dPxc5t92/GbtDPyUMhfAzbWzgBNID5wtZsgduAx4EnD2gP28ANhjC3mMSYk5IY6pnvXCPAHEih7/6Pi5zL/t+E07CLiK/EFcrH0beBQLvxI5xA5cDhxH/lS3W2pXM+xKiaVtRZqjIKfP15FmERwLTwCxosc/On4u8287fvOOodz0t4u1c4A/AXbdJH7JHbgDab2CH1Xoz82M65vwJB5Nfr9PqZ714jwBxIoe/+j4ucy/7fgz4akM82bA5tqNwKeA5wL7FdjefvPb+jTlX+tbqK0Hnj7VSMf6OPl9f2b1rBfnCSBW9PhHx89l/m3Hnxn/nXpFQMttPWnFwNYcSnpVMafvN3H7OzjRPAHEih7/6Pi5zL/t+DPFImDx1urFH+BD5Pf/36tnvWXRJ4DoY7L1/rceP5f5tx1/5vwPLAI219YCfzD9sIY6gvxX/+aAR9ZOfALRJ4Do47L1/rceP5f5tx1/Jj2K8nPkt9yuAx6TNaKxTiF/DH7OOOc6iD4BRB+brfe/9fi5zL/t+DPrUMouIdxquxC4d+ZYRnoEZcbhFbUTn1D0CSD6+Gy9/63Hz2X+bcefabsBXyX+JBXVvg3cOXsU46wmvX6ZOw43AftUzn1S0SeA6GO09f63Hj+X+bcdf1ELTX7TisuAo4FXk35D7sUcqc+/TboD0KqXAQcU2M47ST8BSJI69GDgPOK/sQzdLmWcD7st1eGkb+6547EWuFvl3Jci+htA9PHaev9bj5/L/NuO35UdgLcTf9Iaqr0LuFOx0YqzHfATyozJeyvnvlTRJ4DoY7b1/rceP5f5tx2/Sw8Dvk/8yatUOwf4naIjFOudlBmX9cC9Kue+VNEngOhjt/X+tx4/l/m3Hb9bW5Gmhb2E+JPYtO1K4CXANoXHJtJzKDc+76qc+zSiTwDRx3Dr/W89fi7zbzt+97YD/gq4gviT2aTt2vmcdxxgPCI9kjK/+8+R5j5o4Q2I6BNA9LHcev9bj5/L/NuOr3l3AJ4NnEX8SW1L7QkDjUGk+wHXU26MXlI3/alFnwCij+XW+996/Fzm33Z8bWI5cBzwMeqtzrfUdj3woKEGIMChlL0Dcw6wddUeTC/6BBB9LLfe/9bj5zL/tuNrEdsDvwd8BPgV8Se7jdt1wAOH63o196b8cxiPrtqDPNEngOjjuPX+tx4/l/m3HV8T2hY4FvhL4NPA1cSf/K4Hjh+y0wM7hvQ8Q8kxeVvVHuSLPgFEH8Ot97/1+LnMv+34mtJy4BDiT4DrSL93Lxu2u8U9jXIP/G1o55Lu2rQk+gQQffy23v/W4+cy/7bjL6qFi8r+pFnj7jnf9iVN+LOhbUX6pnw1aYXAnwBnAz8Cvkb+FLFjOIgB3g2cBNwQncgWrAZOJuVa0jrgIaS1H1qSe/zkfkaN33f8XObfdvzmrCLdOn49cAH5FdRPgX8hTaQzzXKxQ367WWo7hzT//1gdBvyQYfr+yor9KCn6G4Dx+46fy/zbjt+MA4HXMuxv7xcBr5mPNamhcpm2rSMtBLR6CX0Y2mrgzxnuQcrPAyur9aas6BOA8fuOn8v8244/eg8EPkq6sOUO1qRtLfDvwJET5Fcrp6W2XwAnMt1djZKeyLCLMP0E2LlWZwYQfQIwft/xc5l/2/FH667Ah8kfoJy2HngPsPcieebGGPptgjOBE4AViw12YVsBjyc9YzFk364EfqNSn4YSfQIwft/xc5l/2/FH5w7A3zKuSXiuB/6Uzd9mzt32g6kzx8AvSLfh91p8+LPsDLyQ9DT+0P25GTh6wL7UEn0CMH7f8XOZf9vxR+Vw0tP5uYMyVPsWt//GWWIHPha4pVIfbib9Zv7HwEEL74qJ7Qc8f36btfqwFnhygdzHIPoEYPy+4+cy/7bjL6rWKwbLgOcC/8D4V7a7AXget044k7sTNozx7wP/Rv3XOi4Avkf6qeAHwBrSrfVrSa9NLiMtOrQj6bXKfUmvW2549XK/yvmuA55Oeu1xFpQ6foxv/Ajm33b8cFsD7yW/EqrdXkP6rbtkBXcSdR92bK2tBZ7KbCl5/Bjf+LWZf9vxQ+0AfIH8QYhqnyiwjU09kXE9/zCWdgtp9sBZU/r4Mb7xazL/tuMvasjbC3sCp5JuJfdsc2P8cNICRNtWzmWsrgGeRFqDYdbkfohbvwVp/Nj4ucy/7fghG98V+AplHkJr3UJjfB/gFIZ9ar8FPwMeA/w4OpGBRJ8AjN93/Fzm33b8RS0fYJt3IE3s48V/cacBRwCfi04k0NeB+zO7F39JGq3SBcAq0rfa+xfe7qy6DHgU8HeM4/eyWtaR+vxQ4JfBuUiSCngT+Q89zFqb1GOBi0eQ79BtDWn6517UOn6Mb/whmH/b8av57+R3dhbbUuxIKqLWjyDvIdr7gZ2WOCatq3n8GN/4pZl/2/EXVeoBg0OAbwN3LLS9zTmP9FreaaSJbS4Drpr/bzsBu5EW97kPcBz1J7BZyDRj/HBSIXDXwrlEOZ00M+HnoxMJkPshbv0hJOPHxs9l/m3HH9zWpFnmciudzbWbgbcAR7G0gVgG3I80m9/NA+U2dAW3DfAiUqETmX9Ouxj4A+JXLIwU/Q3A+H3Hz2X+bccf3F+Q38lN23rStLl3KZDf/sA7iLutnms74OWkd+Uj8p+mXQ78Jc5zAPHHj/H7jp/L/NuOP6i7U35Wu58xzCpwx1BnFbuhduAuwJ+QHqKr3YdJ249J0x3foWC/Wxd9/Bi/7/i5zL/t+INZRvlpfj9JehBuKDsBnyqcc+0duJw0cc6pjGNdgV+T5n04lgZ+rwoQffwYv+/4ucy/7fiDeSL5ndu4/SN1fivezXN3bQAAFmJJREFUCnht4dyjduAewLNIhVPN9QV+BXwYeAqw/cB9bF308WP8vuPnMv+24w9iOfBD8ju3of1D3fSBtNpfqfzHsAO3Ax4PvBr4MmlZ41J9uJp05+QvSRMX+dv+5KKPH+P3HT+X+bcdfxBPJr9jG9rrK+e+sRoTF0VZQZpqODf/QxhmyuheRB8/xu87fi7zbzt+cVuRHvbK7dgc6Zvqqrrp38ZK0rvpJfoy1h3Yev6tix5/4/cdP5f5tx1/UdN8szueMgv9/AJ4HOk9/Si3kJahvTAwB0mSqpumADipQNw54JnAFQW2lety4BmMo1qVJGmU9qfMq2dvqJ34BP6F/H55C0ybih5/4/cdP5f5tx2/qFeS36ErSZPajM3OpDsSuf0b2w5sPf/WRY+/8fuOn8v8246/qKX8BLAceHqBmK9gHLf+N3Ul8KroJCRJqmEpM7cdBXwzM95FpJ8RIh/8W8w2pKl29yi4zejZ8XKryOj8Wxc9/sbvO34u8287/qKWcgfgsQXi/SPjvfhDmk3vddFJSJI0tKVUF2cA98iIdR2wD2lVuzHbGbgAuGOh7fVeAfcuevzH8Dtsjuj+tx4/l/m3HX9Rk94B2J+8iz/Ahxj/xR/SswAfiU5CkqQhTVoAPKhArHcV2EYtLeUqSdKSTVoA3DczzsXAFzO3UdPngEujk5AkaSiTFgC/lRnn08D6zG3UtA74THQSkiQNZZICYDVwWGacFi+mn45OoIAToxOQJI3TJAXAPUir5uX4XObfR/h8dAKZHg68MToJSdI4TVIA3DUzxvnAZZnbiHAJacXCFh0MvJ/8wk2SNKMmKQD2z4zxX5l/H6nF3HcFPgbsFJ2IJGm8JikA9suM8YPMv490enQCS7Qa+DhwYHQikqRxq3EH4LzMv490XnQCS7AceDv5b2xIkjowSQFwp8wYP8/8+0gt5f43wBMLb/PvC29PkjQSkxQAuXPit3QR3VQruZ8IvLjwNj8EvKTwNiVJI1GjAGhh/v+FXBudwAQeDLyh8Da/CzydtiZvkiQtQY0C4FeZfx9p7LkfTFq4aFXBbZ4HHAfcUHCbkqSRmaQAuENmjF9n/n2kMV8Eh3jd71rgsbgOgiTNvBUT/D/R6znr9rYhXfxLvu53C3ACcEbBbSqen19JmzXJHYDcb/C5dxAi5f78MYRlwFuB+xXe7guAzxbepiSpYZcCcxkt9zXCSHuR1/e5AXJ6VYGcNm2vGiBPJWM7fnoTPf7R8XOZf9vxs60hrwN3r59yMQczrh14YoF8Nm0fZPJlobV0Yzp+ehQ9/tHxc5l/2/EXNcmJP/c1vr0z/z7SmHI/mvKr+30LeBq+7idJ3ZmkALgwM8Y+mX8fad/oBOYdDHyAsqv7nQccT9tvaUiSpjRJAZA7G95dMv8+0n7RCQC7A5+g7Ot+1wCPxtf9JKlbkxQAv8iMcUTm30e6V3D8bYBTyF+QaWO3kNYMOLPgNiVJjZmkADg/M0b0RTRHZO7LgXdQ/nW/P8TX/SRJEziC/CcZd6+edb49ye93zlOcf1so/sbt7zLy0XRG/RRwB6LHPzp+LvNvO362VcBN5HXiydWzzvc0ylx0p/GMQrE3br7uF6P5E0Djosc/On4u8287/qImuSDcDPw4M84jMv8+wjFBcR8M/HPhbX4HV/eTJE3hX8mrYi4Gtqqe9fS2Ai6hzDfvpTgEuKpQ3A1tDW3Pxti6UX8D6ED0+EfHz2X+bcdf1KS3hL+UGWcP4KGZ26jpGOpfNHcFPgrsWHCbru4nScqyF+n2cU4l87bqWU/v3ZT59j1pBbcN8PWCMedIP91E/YyhW436G0AHosc/On4u8287fjE/JK8j11H22+1QdgFuoMxFeJIduBx4f8F4G9ofTDsAKmpmTgCNih7/6Pi5zL/t+ItasYT/9zPAoRmxtgWezfhXnnsOdZcw/hvSxDwl/T3wlsLb1HisBA4C7gEcCNx5vu1L+pztQCosdyQtH30tsI5U2F66UTsH+Ol8O5M0SZTasBdpnpIDSbOt7kPa/7uQzl9bk46DZcDVpP1/LemL2M9JE7xdSDoGfgCcDayt2QG15bfIr2YuIh2YY7UN5R7+m6SCG2J1vw/g635jUuL42YP0Ku2/AN8j/7XczbUbSYtDvY5UkO5afCRiRH8DKxF/BfAA4M+BUyl/jpojrQnyHeD1wBNIhUSp/CNF5x8dv5hlwLnkd+hFtRNfgv9L+Q/WQo4m/U5fMtY3gdWZY6Cycvdp7k9v07Z1wHeBl5PuNLQq+gScG/9jpG/uEfv/v0Ywfrmi84+OX9Qrye/QldxaXY7JbqRbZaU/SJvj6379GPpEXaudBbyUdOu5JdEn4Oj9Ft2iRecfHb+og8l/G2AOeFPtxCfwFup8AHanzJ2UjdvV5D2foeFEn4BLt7Wkb6UPKzlIA4o+AUfvr+gWLTr/6PjFfZr8Tq0Hfqd24ot4FGUKmy3twNXANwpv/2bg4cVGQqVFn4CHbN8BfpdxP3MSfQKO3kfRLVp0/tHxizuWMgfGzxnHTwG7kp6GHfoDsAxf9+tR9Am4RjsdeEypASus1Oc3Kn7rLVp0/tHxi1tG+j2wxMHxBdIrTVFWkmY5rPEBGGJ1v7G/Uqn4E3DN9mXg8DLDVkypz29U/NZbtOj8o+MP4qmUO0BKL3wzqWUM97v/pjvQ1/36FX0Crt1uAf4fsH2JwSugxOc3Mn7rLVp0/tHxB7Ec+D7lDpKTSRfkWpYB/1Qw/8Xagyn/3vZp1J2sSNOLPgFHtYuA4wqMX67cfkTHb71Fi84/Ov5gHkvZA+V11FkxcAXwxsK5L9Z83a9PK0kzMkaefKPbetLnepvMscyR24dpLQP+pED81tufEnunMmr/jyX+oL5I2YPl08DOA+a7C/C5wjnXbFeT5hDQuN2F8m97tNy+C9w1Z0Az5OY+jd2ATxaIPSvtM8R9aYnY/2OKP6i7k6YQLXmwrAEeMUCujwTOL5xrzebrfm14BGmyq+jjZWztKtIbRLXl5r1U9yfNsx893mNrF5Gmk6+t9v4fW/zB/RnDHDDvpMy3hgOAdw2UY83m637j92zSQ3DRx8pY21rgeVOP7nRyc16KJ5Hm1I8e57G2X8+PUU019/8Y4w9uFWk1qSEOmFuAfyMthLGUhwSXAb8NvIPZOCH7ut+4LQNeQ/xx0kr7R+o99Jub66RezHCTic1SW096LqCWWvt/rPGrOJi0zOSQB875wBuAZ5DeNd6LNLPe6vl/PwL4n6QH/C4YOJeazdf9xm0r4K3EHyettbdS56Hf3Dy3ZBnw2gJxemv/MMHYljD0/h97/EWVrMKfRvrGrXK+BTyUdOusRbuR1iy/O2n9+t8gPQx0R2Cn+X/OAdds1K7g1jXKzyCthndd7cQntAJ4O/CUoPiXkR6w+x7p2ZnzSTNsXk16Nuda0qpuO5JyvROpWN6HVLQfBhxJ2k8R3keaU2TdlH+/krQGxkHzbT/SWhu7c+uXg9yfERc7Ry4jveXwh5kxpnUZacW+M4Afkfb9RcClpDG9mvTlYQfSMuw7AfvOt7uS9v29iZuR9XXA8xn2Qpe77dxrZHT8qt5EfGU5K20N7b3ut5o0JezJpOlhS9wSXQ+cSXql7oHU+dY4ieXAu6l7TFwLfBh4JulNgxKWkd4seQ7wCer/hv2vTH6SWw7cD3gF8J/ADRXyW2zcXl95rH4N/AfpWZNDljBuW3Igaf9/HLi+cp9eW6gPCxlq/7cSv6oVwKnUPYBmsV1FO6/7LQMeRJpV8RqGH5vLSd+6H1Cjc4s4mTrHwi2kE/MJpG9xQ9uW9K38i9T7Tfs1W8jpKNLF9peV8tm4LeQfKsVfD3yedJdp2y2MUwl3AH6P9Er2ugr9myM9SD6UofZ/K/Gr25a0SljtD+qstFZe99saOIl0uz5qrE4j/fS0auC+bqrGBC9Xk9aP2LNSnzbnbqRnamrcFfhfm8TemvS8z1APGE/afpfb33U6qULcX5GKngOJcxfSjKk17go8a6A+5ObVevwQdyL9dhv5wW21jf11v9XACxnXu84Xk36HXTFgvzc4nmG/GV9Lekp6hwp9mdSdSE/ul57SeuO2lrQs90rS7eiLBoy11HYu6WeXFaR5HoZ8s+gm0h2R3SfaM3XsSipGhywEbyE971Rabl6txw+zK+kBpegPb0tt7K/7HUc6GUaP00LtDODowXqfHjQb6meOdcCbgT0GzD/XAcCHGG7/XQ38ZMDt57afzOc41PY/COw/8d6ob1/Scy9DFcC/nI9RUm5OrccPtQPwVeI/uNO2/6gYa8yv++0DfIT4/TFp+wjpafeStgN+PFC+Z5MebmvF8YzrDlDr7QLSw7OtOIbhZlX9DmWfdcnNp/X44bamzrK7Jdt64K9JF+Qa8b5JurU+RsfT5tS2lwK/U3AchjiG15Oegm5xZcedSN9Yo/dz6+3fGdfPPZPaHngbw4zJqwvmmZtL6/FH4zkM+xtiqXYd8ISN8h463hrG+brfKtKT7i3Pbrae9LNK7rMBjxkgt+upPy3qEFr5XI+t3chwD77V9EzKrwezDnhIofxyc2k9/qjcm/R+ePSHb6H2dW7/+t2Q8cb6ut9OwFeI3x+l2pfn+zSNXYFLCudzLmkSnlnxYNLrmdH7uZX2S9JU5bPivpT/jJxPusuQKzeP1uOPzirgL0ivu0V/EDe0a4Dnsvnf4IeKOdbX/fYiPUwXvU9Kt+8z3Z2W0rf+z6T88wljcDfgPOL389jbucQtjTykAyn/gPDJBfLKzaH1+KN1d9KDb5G3mNcB7wfuvEieQ8U+cakDVsGBpJ8kovbH0O1s0nSxkzqKspOhnEbctKs17Av8lPj9PNb2E9IDtbNqL9KUxKXG6xby75Tl5pArOv7o3Qf4JPVmnZojfft+O5Pdfh8i/hhf99uL2b74b2gXMNk0usuBbxeMeyaw8wRxW7c3wz0h3nJbw2ze+dnUnSl7HvkSeVMe58bPFR2/GQeSnv68guE+hJeTbist5V3T0jm8n/G97rcT8TOu1WxnsOXfF59SMN75pAtjLw4iLVQTvZ/H0i4l/UTSiwMp+0zAYzNyyY2dKzp+c7Ymvb71Osr8pngB8C/Ao0mzjC1VyRPBNxjf636rmK0H/iZtn2ThhYW2otw7/9cD91h4+GfWAxnXcz5R7SbamuOhlPtT7u2Q7zH9XYDc2Lmi4zcvegBLnQjWMM7X/f6R+JNkVPunBcbkqQVj/P4iYz/rnkv8Po5us/Cq37SeQ7lxfPyUOeTGzRUdf1EtrDWcOwjR6zlDmj70AaQHZMbkeNKseUMfB5eSVpf7JnAWqRi6jLSc63LSTxA7kX4//M35dn/qTIt7Helho6vn87x4Pn6JKUnfSNxa8WPxPurMd3A26ZmNs0nH1+Wk99MBtiG9zrk/6eHjo6izyM67ScVkz95FWl0w1yXAz0mTJu3AbRcAu570SvWVpP3+C9Ld4zXARzPjRl8/WrhGDyq6gsqNP9bX/fZh2Bn+riDNcnffKfNbTpoM5E0D5zlU+xlwxyn7Pkt2Zphpg9cBnyFNRDPNnbU9SN/OP8swDyBfAOw4RV6zZifgQuI/j9O2XNHxmxc9gLnxx/i6Hww3t/+FpNUCS178tgNeSjuTzaxnmJXNWnUs5cb2V6SfrQ4omN+BwP+j7Gp3jyiYX+uOI/4zOW3LFR2/edEDGB1/CEN8IG8G/p5hv/VuR3pTZO0A+Zds/zrUADTsw+SN6XrgnQz7Hv2G1e5y9/8HBsyxVbn7P6rlio7fvOgBjI5f2mrKz9h1NnCvin14wHzM6JPD5toNLD6xVK/2I317n2ZMLwIeVTHXRzP9a2w3UH5J21lwIG2uGZErOn7zogcwOn5pL6TsB+QUyszZvVTbAqdOke/Q7ZVDdrpxr2Tp4/k1YLeAXO9Eem13qfn+dUCurTiZ+M/nUlvuK7y58bsXPYDR8UvamrIPZL2Zhd+lr2El6XZ79EliQ7uO6Rcd6sH2pIVwJh3P95Oe4I+ymqUteXwp6Wcqbd6elF85cOi2jjRr7H5T9jk3fveiBzA6fkknUe6D8WbG8YrKMtJET9EnijnSg2Ra3KRzA7yF2OJyg62AtzJZzs8JyrElbyb+czpNuxF4Del10qXIjdu96AGMjl/KMuAcynwYTmEcJ+cNVgCfIvYEsZbZXOWttJWkRXEWG8uTGUdxucEy0qRRi+X8Y9JxqMUdROwCcLntMuDJS+jvrFw/wkQPYHT8Uh5EmQ/A2cT85r8l21F2JbKltlOH7+LMeBwLj+MrAvPakr9h4byPD8yrNbMw9fhHmWxxp1m5foSJHsDo+KWUWNf+Zuo+7b9Uv0XcK4I9T/k7jU0vAuuB/xua0WRezO33/X+GZtSeZxLzGS3drmLLMz3OyvUjTPQARscvYTVwDfl9+fvaiU/h1dQ/EfwKH/5aqqO49VbwOtr6/fy53Jr7etKS5prcDpSddCm6vYHbTk28sVm4foSKHsDo+CU8hvx+XEgbU9uupv569B+q0rPZ8z7SOgxPi05kCk8n3W16T3Qijfoo8Rfuku1rbP4ngVm4foSKHsDo+CWUeP/2hdWznt5TqPvh9/b/dO7K9Ku8jcETSAsMael+n/iLdul2MWkRs43NwvUjVPQARscv4XTy+nAFbXz732AZaeXBGh/6W4Bd6nRLmhk70ubMgFtqNwCP3Kifs3D9CBU9gNHxc+1G/ms3r62edb77U+d1oy/W6pA0Y8Y4k2eJdhNwwnwfR3398L3V2Xcv8t+pfkeJRCr7OvAS0jeNKxdpa0kP8O0N3I30uuTRwKETxsldb1zq1Qe57bflTV1Dunt5OnAm6Tmkn5Nmk7yR9PDtOtLnd1vSLJz7zreDSOe+w6n/gO4q0vMtf1A57kyKrqCi4+d6Hnn5X8K4JmWpZU/S75SnsPgTy07+I01nV9JPaHOkQvwHpFk9nwEcTJnzzlaktzReTLpbV/M14RJ3ILsXPYDR8XO9jrz831s/5dHZnvS+78e47Vzmp0cmJc2AZ5DuuNX6lr4n8ALge9QrBFq+foSLHsDo+Lk+S17+L6if8qjtQLoz8HHgZcG5SJrebwP/TvoZIfpCP9brR7joAYyOn+sM8vL/nfopS1I1B5Oec4qaRXTM149w0QMYHT/XGvLyP6B+ypJU3X2B7xB/0R/T9SNc9ABGx891OXn5+467pF4sJ031fD3xF/8xXD/CRQ9gdPxcuZNtLDTHtSTNqv2Br2IBEC56AKPj58pddGPr+ilLUriVpEnQLAACRQ9gdPxcl5CX/271U5ak0fif3Pb135kpAJYPHUDhrs78+82tcCVJvfhX0oqqN0QnUpoFwOzLLQAOLpKFJLXrs8DDyT+fjooFwOz7RebfH1kkC0lq2zeBY5mhOwEWALPvx5l//+AiWUhS+74BPA64OTqRXkQ/RBEdP9eTyct/LT4IKEkbO5EZeAiwBdEDGB0/1xHk98FlLSXptmq8IjioSZZbHMNFTJIkLc2i13ifAZAkqUMWAJIkdcgCQJKkDlkASJLUIQsASZI6ZAEgSVKHLAAkSeqQBYAkSR2yAJAkqUMWAJIkdcgCQJKkDlkASJLUIQsASZI6ZAEgSVKHLAAkSZIkSZIkSZIkSZIkSZIkSZIkSZIkSZIkSQr0/wGFei1g6BfP/QAAAABJRU5ErkJggg==;" vertex="1" parent="xfIXe2Qn87EwwuHYDTUL-1">
          <mxGeometry x="797.1" y="370" width="90" height="90" as="geometry" />
        </mxCell>
        <mxCell id="xfIXe2Qn87EwwuHYDTUL-6" value="" style="shape=image;verticalLabelPosition=bottom;labelBackgroundColor=default;verticalAlign=top;aspect=fixed;imageAspect=0;image=data:image/png,iVBORw0KGgoAAAANSUhEUgAAAgAAAAFXCAYAAADUG/YoAAAAAXNSR0IArs4c6QAAAARnQU1BAACxjwv8YQUAAAAJcEhZcwAAEfUAABH1ARq81csAABluSURBVHhe7d0JrG1VeQfwR5lBiwgyKyBKKzS2ilVwCIJDcIiKWhxom9Raa0KrbbVRa9tYG6u2qanW2MSaNg5UxRFwwBaNBo2ComhFq6CoKIMyKiCPsd+393nweG+/x7337HPvWnv9fsk/Z+0rvNLz9v7Wd/ew9joAAAAAAAAAYBK2mX3CgZEHRPbcJPeObBsB6nJr5OrIFZvkwsgPIjROA9Cm/Hs/LPKYjXLfCNCGn0TO2ijfjNweoSEagLbkb/kvivxBZN/8AUC4PPKfkbdHLsofMH0agOnL0/dPifxx5LjIr0QAhtwW+e/Iv0U+HsnLCEyUBmDajo/8c+Tgbgtg6fJMwMsiH+m2mBwNwDT9WuQtkSd2WwArl2cEXhL5TrfFZLi7e1ruEfn7yLsih+YPAOZ0SCQvIWZ9+VLkpggT4AzAdORBelok7+4HWIRvRZ4W+V63RdXcEDYNx0bOiZj8gUXKGpO1JmsOlXMJoH4nRU6O7NptASzWzpETI1dFvpw/oE4agLq9KZLX/J3JAVZT1pwnR3aLfCp/QH00APV69SwAa+WoyC2RXE2QymgA6vSCyJv7IcCayvsBLo58rduiGp4CqM9TI7kwx3bdFsDay7MAufDYx7otqqABqMuDI1+M7NJtAZTjhkheEvhGt0XxNAD1yN/4z448tNsCKM9XI4+I5BkBCucegHq8MvK7/RCgSPmW0fURNwVWwBmAOjwokjfY7NhtAZQrG4CHRL7dbVEsz4+XL/+O/iNi8gdqkLUqa5b5pXD+gsr33MiR/RCgClmzsnZRMJcAynduxI1/QG3yhsAj+iElcgagbMdETP5AjbJ2ZQ2jUBqAsr189glQIzWsYC4BlCvv/D8/4u8IqNXtkcMjnggokDMA5crX/Jr8gZplDctaRoFMMGXaPnJpZI9uC6BeV0ZygaCbuy2K4QxAmY6LmPyBKcha9qR+SEk0AGX6vdknwBRYxrxALgGUZ7fIZZGdui2A+t0Y2SdybbdFEZwBKM+zIyZ/YEqypmVtoyAagPI4/Q9MkdpWGJcAynK/yA8i/l6Aqck1AQ6K/KjbYs05A1CWEyMmf2CKsrZljaMQJpuy5Mp/h/VDgMn5ViRXBqQAzgCUI1+cYfIHpixrnBecFUIDUA7PyQItcDNgIVwCKMO2kR9H8jlZgCnLdU4OiNzabbFmnAEow+MjJn+gBVnrntAPWUsagDI4JQa0xCXPArgEsPZ2jVw++wRowQ2RvSPXdVusCWcA1t4zIyZ/oCW7RI7vh6wVDcDacyoMaJFLn2vMJYC1tW/k4kg+BVCL9ZHz+iFQkHy+fvt+WIXbIvk0wKXdFjTmLyK5PnZNOTkClOdDkaFjtuS8LAJN+lpk6KAoOcdFgPI8IzJ0zJacrIHQnFwPe+iAKDm5gEdNlyugJTtErowMHbsl5zcirAE3Aa6dGm+AeW/E6l1Qppsip/TDqrgZkKbkzZf5TuyhbrjkHBEByvWoyNCxW3LyRmi/jNKMYyJDB0LJydd4AuX7XmToGC45x0ZYZbqutVHjs//vmX0CZavxWLUeCk3YKXJtZKgLLjX5vO6BEaB8D4wMHcclJ2vizhFWkTMAq+9pkV/th9U4K/LDfggU7oLI2f2wGlkTszayijQAq6/GO17fPfsE6lDjZQBPAzBpe0ZujgydAis1N0buFQHqkbUmHwscOqZLTdbG+0RYJc4ArK7nRrbrh9U4PXJNPwQqcUXkU/2wGlkbs0bCJOV1uaHOt+Q8PQLU54TI0DFdcs6JwOTUeGdu/hZR09vFgDvV+MRR5tAIq8AlgNVT4w0uuaxoXpcD6pP373ywH1bFzYBMTo2rcx0VAer12MjQsV1yvh/J5dJhEmpcn/vCCFC3Wt878ugIC+YSwOqw9C+wFnIyPbkfVsXSwExCre/ofkAEqN/hkaFjvORcFcnaCVV7RmRoBy85X4wA0/HVyNCxXnKOj7BALgEsXo13tDr9D9NS43LengagarmEbj6KM9TdlppcPnSPCDAd+0RuiQwd86VmfWT3CAviDMBi5UpcO/bDapwRyXsWgOm4LHJmP6xG3gOQNZQF0QAsVo13snrzH0yTNwTCKjkocltk6NRWqcmX/uTyocD07Bq5LjJ07JecgyMsgDMAi3NipLbVrHLZ0LxnAZie6yMf7odVsSYA1fm/yFA3W3KOjgDT9cTI0LFfcr4TgWo8LDK0I5ecH0asvw3Ttm3kkshQDSg5D48wMpcAFqPGG1dyudA80IDpujXy3n5YFZcBqMJ2kcsjm3awpeewCDB9vxUZqgEl56eRrK1QtCdHhnbgknNuBGjH/0aGakHJeUqEEbkEMD5v/gNKZ00AGNk9IzdEhrrXUpPLg+YyoUA7Dojk/QBDNaHUZG391QgjcQZgXM+M7NwPq5HLg+YyoUA7fhz5XD+sRtbWZ/VDxqABGFeNp6gs/Qtt8oZAGMn+kdpOqeWyoLk8KNCePJ1e2yXLrLF5+YIROAMwnudHavs+c1nQXB4UaM/PI6f1w2pkjc1l1qEoX48MdawlJ5cFBdqVj9YN1YaSk48wQjEeHBnaUUtOLgeay4IC7crFdXKRnaEaUXJyMSPm5BLAOGq8MSWXA83raUC78jHg9/XDqlgamCJkE5WP1Ax1qSVHBw2kfNHOUI0oOc5gUoTHR4Z20JLzzQjABvnK3aFaUXLcwzQnlwDmV+OpKM/+AxurcWlglwFYU7tE8lGaoe601NwWuW8EYIODI1kbhmpGqbGOyZycAZjP0yO5/n9NPhu5uB8CdC6KfKEfViMn/2f0Q1ZCAzAfS/8CU+ENgbBEe0Vujgydmio1v4x4mxYwZPfI+shQ7Sg13mY6B2cAVu55kVxEoyanRvKeBYBNXR35eD+sRj4KmLUYVtWXI0Mdacl5agRgS46PDNWOknNuBFbNr0eGdsSSk8t91nbGAlhdO0SuigzVkJJzWIRlcglgZWp8/vT9kbxeBrAlN0VO6YdVcTPgCmwz+1yO+0RqffYyb3C5tB+uWH5n348c1G3V4xGRc/ohwBY9KvL5fliNH0WyJufZgHnsG9mxH1YnX+3+s344nlzs5mWRz0WuiGx66qW25E1wX4q8LrJnZLkeExn6c0tOLvMJsFT5S85QLSk5j40sV84BORfknFDbom5DyTk65+qcs3PuXrH8TffPI5dHhv4PTSG/iLw+snNkqd4eGfqzSs7fRACW6rWRoVpSct4RWaqs+Vn7cw4Y+rOmkJy7cw5f9pn+vBEkXxE59IdOMXm6K5+BvTt5aigflRn6M0rO/SMAS3VoZKiWlJxrIjtF7k7W+qz5Q3/GFJNzec7pS5KT3JmRoT9oyjk/kov7bM2zIkP/bsmp7VoeUIazI0M1peT8TmRrssZnrR/6d6ecnNOXdG/DqyJDf0ALeWdkaz4SGfr3Ss6LIwDL9SeRoZpSck6LbE3W+KF/r4Xk3L5V+0WmfE3k7pJvw8q75YfcO1LbMpn535v/3QDLlU981bbceT7GuKWbu7O21/bGwzGTc3vO8XfYdB2Al0Tu0Q+blDdLvLIfbuaEyJKvoxTiE5Fc1ANgufKRsjP6YTW2jzynH24mfwNeyaPvU5Fze87xW/T1yFDn0FKySxqa6PNVmUP/fMl5ZgRgpXIyHaotJScf6dtU1vSWz25vSM7xg/aPDP0LLeaYyMbyLvqhf67k5G/+tS5oAZQh76q/NjJUY0rOAyMbOzYy9M+1mJzrOxtfAjhu9sm6dU+afW5Q49K/H4jkPQAAK3Vj5IP9sCqb1mzz253u+C42bgA2nfRatunOUmMD8K7ZJ8A8/mv2WZMTZ58bmN/utNl3kW+Jy0UUhk4XtJoNp0nyztGh/73kfC8CMIb8RfHHkaFaU3IeGUkHRIb+91aTc333ZtgNZwDyi9qtHzKz4SxAjb/9nzz7BJhXPjpX41mADbXb6f+7yrm+a442NABOj2wud5p8pOS53VZd3jP7BBjDu2efNcknGPLuf/Pb5u7ynZwXGTpV0HLyNMnxm/yshuTynQBjq/Ex8WdHanyKYdHJOb+TayMP/QOybt2FAz8rPbl8J8DYXh4Zqjkl56KBn0mfvXJVpCMjX4xQv1si+0byndAAY8plZC+ObPz0GPU6Kv8i71gUgOrlsp0mf2ARLol8ph8yAftrAKalxht1gHqoMdOhAZiQn0fu7lWYAPP4cOSGfkjlNAATkst15rKdAItyXeSj/ZDKaQAmxLP/wGpQa6Zh/3wK4LuRTd+cRF3yztwDI/loB8AibRv5SWTvbotaXZBnAPLRDuqWy3Sa/IHVcGvkff2Qiu2XDUA+O07d3JkLrCY1p343ZwOQp3KoVy7peH4/BFgV50a+3Q+p1CUagPrpxIG14GbAuv1EA1C3vBb33n4IsKrytePuPaqXBqByn45c2g8BVtUPI2f1QyqkAaic0//AWlKD6qUBqNj1kY/0Q4A1kSuQru+HVEYDULGc/LMJAFgr10RO74dUpmsALohYC6A+7sAFSqAW1Sfn/G4lwHyL3BfzJ1TjssiZ/RBgTX0icmU/pBI55/88G4D0ydkndchH//IRQIC1dnPklH5IJbo5XwNQJ3feAiVRk+rSzfn5NsANn3kz4L7dFiX7VuTwfghQjAsjh/RDCpZrx+wfuX3DGYBczemMfkjhdNpAidwMWIec67sVHDc0AEkDUL78S8vlNwFKowGowx1z/YZLAOlekSsi23ZblOizkWP6IUBx8u7yI/shBcqbx/eM5PoNdzkDkD/4Uj+kUE7/AyVTo8qWc3w3+aeNG4B02uyT8twYyWU3AUr1/kg+FkiZtjrH3yOSTwPktWYpK3lgAZTu1MhQDZO1Tc7tOcffYdMzANdFXtkPKYwbbIAaqFVlyrk95/ityhsD/zUy1EHI2uRnke0jAKXbKZLXmYdqmaxNck7f+Kb/u/VXkaE/SFY/b40A1OIdkaFaJqufnMtX5NjIWZGhP1RWL4+IANTi6MhQLZPVS87dOYdv0VJPCTwu8rRILkH7oMiukRrtENm5H1YjX9d8aD8EqELOLT+I3K/bqscvIzf1w+pcH/l25PxI3u3/6chWLeuawAS8PfJH/bAa+apNz9YCtXlB5An9sBr/HnlRP5y+lhqAvDElH4O4d7cFAHd1VSRflJPrrkzepo8BTtF+kb+LXBQx+QOwJTlH5Fzx2sgB+YMpm/IZgPzLe2PkhMh2+QMAWKJcN/9Dkb+M/Ch/MDVTfPFPTvZ/Fsllc4+ItHCWA4Bx5dyRN77nPQF5Y+A5kdsikzG1MwB5x+lHIw/ptgBgHF+LPCMymbMBU2oAfjuSjz7s020BwLgui+Qj8V/utio3ldPj+ReS78o3+QOwKDnH5FyTc071pnAG4KjIZyL5mB8ALNr6SC6Q94Vuq1K1NwAHR86O3KfbAoDVcWUkfwHN1VqrVHMDkL/xnxs5rNsCgNWVk3/edJ7L8Fan5scAXxN5Vj8EgFW3RyRf1f4/3VZlaj0DkL/1nxfxjnwA1tItkTwL8M1uqyK1PgXwtojJH4C1lovPvbUf1qXGMwD5bvwv9UMAKMKRkbwpvRo1ngF4yewTAEpR3dxU2xmAXIQhl2F0+h+AktwcyeXoc7XAKtR2BiDv+jf5A1CanJuqejKttgbg6NknAJSmqjmqtksAeWpl734IAEW5PFLNO2lqOgNwaMTkD0Cpco7KuaoKNTUAue4/AJSsmrmqpgZgz9knAJSqmrmqpgbAG/8AKF01c1VNDUC+dAEASlbNXFVTA+D5fwBKV81cVVMDAACMRAMAAA3SAABAgzQAANAgDQAANEgDAAAN0gAAQIM0AADQIA3A2vhe5E2R50fy/dGHRHaO5OuZa86OkXwRxqMjz4m8PvKtCLB8eezkMZTHUh5TB0V2iAwdezUla13WvKx9WQOzFmZNhC16Q+T2inNN5DWRwyOteUDkFZFLI0PfjYj0uSySx0oeM63J2pg18urI0HdTS3KuYmS1NgDrI/8S8S6Ddet2jfx15NrI0Hcl0mqui+Tkd49I63aP/FPkl5Gh76r0aAAWoMYG4LzIAyPcVb4u81ORoe9MpLV8JrJPhLs6MPKVyNB3VnKqaQDcA7A4H4g8MnJBt8XGrog8OfKWbgva9bbIEyN56p+7+mHkMZH3dVuMTgOwGK+LnBC5odtiyK2Rl0b+tNuC9uS+f1Lklm6LIXkZ4HmRrKmMTAMwvpMjeZ2bpXlr5B/7ITQj9/nc91marKlZWxmRBmBcX468sB+yDK+KnN4PYfJyX899nuXJ2po1lpFoAMZzfeSZkRu7LZbjtsiJkZ90WzBduY/nvp77PMuTtTVrbNZaRqABGE8uZvHjfsgK/CLyt/0QJiv38dzXWZmssVlrGYEGYBw/i+Rzq8znnZHz+yFMTu7buY8zn6y1WXOZkwZgHPncp65+fvlkgLMATFXu27mPM5+stRbbGYEGYBynzD6Z38cjuSoaTEnu07lvMw41dwQagPnlSlWu/Y8nl04+ox/CZOQ+nfs248iam7WXOWgA5nfq7JPx+E6ZGvv0+Hync9IAzO/s2Sfj8Z0yNfbp8flO56QBmN8ls0/G4ztlauzT4/OdzkkDML98xz3jyoU+PFXBVOS+bPGa8am9c9IAzOemyFX9kJE5uJkK+/JiZO3NGswKaQDms+0sjG+H2SfUzr68GOrvnDQA88mdb69+yMj2nX1C7ezLi5G1VwMwBw3A/Bzc47t3ZMd+CNXLfTn3acal9s5JAzC/+84+GY/vlKmxT4/PdzonDcD8Hjf7ZDy+U6bGPj0+3+mcNADze9rsk/H4Tpka+/T4fKdz0gDM78DIb/ZDRrBH5NH9ECYj9+nctxlH1tysvcxBAzCOF8w+md/vR9zZy9TkPp37NuNQc0egARjHiyP374fMYbfIq/shTE7u27mPM5+stVlzmZMGYBy50Mc/9EPm8KqI06RMVe7buY8zn6y1FlcagQZgPCdEju2HrMBhkZf2Q5is3MdzX2dlssZmrWUEGoDxbBN5f8SNKcuXi6ScFtmp24Lpyn0893ULAy1f1tassVlrGYEGYFx7Rk6N7NJtsRTbRU6JHNJtwfTlvp77fO77LE3W1KytWWMZiQZgfPl4ykcj9+q22JqdI++JWNCD1uQ+n/t+HgNsXdbSrKketx6ZBmAxnhA5J/Kgbosh+0fOijyn24L25L6fx0AeCwzLGpq1NGsqI9MALM4DI2dH8tlf16zu6qmRr0SO6LagXXkM5LGQxwR3ypqZtTNraNZSFkADsFj3jLwzcm7Eae516x4e+Wzk9Mg++QOgOxbymMhjI4+R1mWtzJqZtTNrKAuiAVgdD4mcGckD/KRIS2+x2jvywsgnI9nNHx0BNpfHRh4jeazkMZPHTiuyJmZtzBqZtTJrJgtW06npN0Re0Q8n4auR7HIv3SjrIzXbPpK/zewXyXd1PzjyiIhGE5bvtkg2BN+IXBLJGnFZ5OZIzXaMZH3YkLwM8tDIVLwx8sp+WDYNAACMp5oGwG9mANAgDQAANEgDAAAN0gAAQIM0AADQIA0AADRIAwAADdIAAECDNAAA0CANAAA0SAMAAA3SAABAgzQAANAgDQAANEgDAAAN0gAAQIM0AADQIA0AADRIAwAADdIAAECDNAAA0CANAAA0SAMAAA3SAABAgzQAANAgDQAANEgDAAAN0gAAQIM0AADQIA0AADRIAwAADdIAAECDNAAA0CANAAA0SAMAAA3SAABAgzQAANAgDQAANEgDAAAN0gAAQIM0AADQIA0AADRIAwAADdIAAECDNAAA0CANAAA0SAMAAA3SAABAgzQAANAgDQAANEgDAAAN0gAAQIM0AADQIA0AADRIA9CWN0e2ERHZQrJG0AgNAAA0SAMAAA3SAABAgzQAANAgDQAANEgDAAAN0gAAQIM0AADQIA0AADRIAwAADdIAAECDNAAA0CANAAA0SAMAAA3SAABAgzQAANAgDQAANEgDAAAN0gAAQIM0AADQIA0AADRIAwAADdIAAECDNAAA0CANAAA0SAMAAA3SAABAgzQAANAgDQAANEgDAAAN0gAAQIM0AADQIA0AADRIAwAADdIAAECDNAAA0CANAAA0SAMAAA3SAABAgzQAANAgDQAANEgDAAAN0gAAQIM0AADQIA0AADRIAwAADdIAAECDNAAA0CANAAA0SAMAAA3SAABAgzQAANAgDQAANEgDAAAN0gAAQINqagCumH2ycr5DYGvUiPlV8x3W1ACcO/tk5XyHwNaoEfOr5jvcZvZZg90iV0dq+m8uzV6Rn/VDgM3cJ/LTfsgK3B7ZPXJtt1W4ms4A5Bd6QT9kBS6OmPyBrckakbWClck5qorJP9V2E+DnZ58s31mzT4CtUStWzhy1QPtFrorkaRZZerIjvV8E4O5krciaMVRLZMvJuSnnKBboxMjQly9bzh9GAJYqa8ZQLZEtJ+cmVsGHI0N/AbJ5PhEBWK6sHUM1RTZPzkmskj0jZ0SG/iLkznw6sncEYLmydmQNGaotcmdyLso5iVX2osjPI0N/KS3nushJEY9MAvPIGpK1JGvKUK1pOTn35BzEGjoo8tGIm1bWrftF5GORQyIAY8makrUla8xQ7WkpOdfknJNzT9Wm9Bti/v9yaOSIyMMirdyNeWkkV576SuS7kdsiAIuQj45nnc0am7V230gLLolkjc1am3U2GwEAgNqsW/f/KeKyEK4NSUoAAAAASUVORK5CYII=;" vertex="1" parent="xfIXe2Qn87EwwuHYDTUL-1">
          <mxGeometry x="864.9200000000001" y="479.5" width="134.35" height="90" as="geometry" />
        </mxCell>
        <mxCell id="xfIXe2Qn87EwwuHYDTUL-7" value="" style="shape=image;verticalLabelPosition=bottom;labelBackgroundColor=default;verticalAlign=top;aspect=fixed;imageAspect=0;image=data:image/png,iVBORw0KGgoAAAANSUhEUgAAAgAAAAIACAYAAAD0eNT6AAAABHNCSVQICAgIfAhkiAAAAAlwSFlzAAAN1wAADdcBQiibeAAAABl0RVh0U29mdHdhcmUAd3d3Lmlua3NjYXBlLm9yZ5vuPBoAACAASURBVHic7d13uCRVnf/x9/cyCIiDCgoMsoIiIDkNUVBBWXFRBPMaUWFFf7rmCKYVA7gq67omDChmcSWIwqIIgkgYQEWJooDIqASVIAMM8/39UTU44NyZ212nu7q73q/n6WfcnXtOfy53+p5PV1fVicxE6kdE7AHsC2wHbAFcBZwH/Aj4So7pP66ImAW8BNiN6ntbF/g5MA84JjPPajFeIxExBzgQmFs/oPq+5gFHZub8trI1FRG7AM+k+r62Aq4FzgfOAL6QmQtbjNe3iAjg+cDuwPbA+sBFVN/bsZl5anvpNM5iTH9Hq0URMRv4MNVCMp0fAS/NzKuGEqqQiNgM+CLVwr80i4AjgIMzc8HQghUQEf8KfBxYfZovuQl4VWZ+bXipmouIlYH3Aa8Fpqb5svOBF2fmr4YWrICIWB/4PNXiP50jgTdk5i3DyKTJYQFQTyLiAVTvFjeewZffAuyYmZcMNlUZ9TvIU4GVZvDlZwO7jcu7yoh4L3DIDL/80Mx8xyDzlFIfrTkD2GkGX34HsMe4HMGJiE2Ac4DZM/jyy4C5mXnrYFNpkkzXlqXp/CczW/yh+sX1pfqX9EiLiFWAo5jZ4g/VgjPTBbVVEbEj8LYehrytHjMODmFmiz9UP9uj6p/1SKtfM19iZos/VK/J/xxcIk0iC4BmLCIeC7y8x2FzgdcNIE5phwAb9jjm4Ppd2qj7PLBCD1+/Qj1mpNX/7Q/ucdiGjEdxex1/P0djpl5ev0alGbEAqBd79TnuyUVTDEY/GWcBe5YOUlJEPBzYtI+hm9ZjR9meVD+DXk3qv0fo/zWqDrIAqBe9viNZbLv6TOaRFBErAZv3Obzf/ybD0iTfpH5vm9c/85FUv1amOwl1eUb9Z6YRYgFQL7bsc9xqwHolgxS2CbBin2P7/W8yLE3yTer3tiLVz3xUrUf1munHqP/MNEIsAOrFyi2NHbRJ/b7A720QYwdtUr8vjRgLgCRJHWQBkCSpgywAkiR1kAVAkqQOsgBIktRBFgBJkjrIAiBJUgdZACRJ6iALgCRJHWQBkCSpgywAkiR1kAVAkqQOsgBIktRBFgBJkjrIAiBJUgdZACRJ6iALgCRJHWQBkCSpgywAkiR1kAVAkqQOsgBIktRBFgBJkjrIAiBJUgdZACRJ6iALgCRJHWQBkCSpgywAkiR1kAVAkqQOsgBIktRBFgBJkjrIAiBJUgdZACRJ6iALgCRJHWQBkCSpgywAkiR1kAVAkqQOsgBIktRBFgBJkjrIAiBJUgdZACRJ6iALgCRJHWQBkCSpgywAkiR1kAVAkqQOsgBIktRBFgBJkjrIAiBJUgdFZradYeJExIOBfwIevsSfDwdWBy4G5gE/zszfDzjD44C5wNbAAwpMuyuwQp9jzwP+ViDDIKwGbNPn2NuBcwtmKe2RVP8G+/E74DcFs5S2A7BKn2MvBG4umKWk+wPb9zn2buDMglmG7VZgPnDdEn9eB8wf5O/LrrIAFBARKwCPB54J7AusPYNhtwMHA/+VmYsK53k68CngoSXnlaQW/Q44DjgWOD0zF7acZ+xZAPoUESsCT+Dvi/4afU51GrBXZt5RKNcngYNKzCVJI+rPwIlUZeCkzLyt5TxjyQLQo3rhfyVwCPCQQtN+ODPf2HSSiHgBcHSBPJI0Lm4A3gt8MjPvajvMOLEA9KA+tH4Y8KjCUy8CHp+ZZ/Q7QUSsA/wKeFCxVJI0Pq4E3g58K13YZsSrAGYgInaIiDOAb1N+8Yfq5/C8hnM8DRd/Sd21AfAN4JyIeFzbYcaBBWAZImLF+jP1s6nOgB+kHRuOn1skhSSNt+2B0yLiU/VHtpqGHwFMIyJWp3rH//ghPeVCYJV+z2yNiAvo/1I2SZpEPwaekZk3tB1kFHkEYCkiYiPgHIa3+APc2PCyFv+BS9K9PRY4LyK2bDvIKLIA3EdE7EF1yH8Qn/Uvy4UNx59fJIUkTZb1gbMiYr+2g4waC8ASIuK5wMnAg1t4+rMajv9pkRSSNHlWBb4dES9tO8go8RyAWkTsQPV50UotPP01wGaZeWu/E0REAKcy3I8tJGmc3Ak8ITPH+XbJxVgAgIiYQ3V//nVaivDkzDyp6SQRsT5wEWXu+y9Jk+hPwPaZeU3bQdrW+Y8AImIl4H9pZ/G/CXhOicUfIDOvAvYCfl1iPkmaQGsCx0fEqm0HaVvnCwDVpjk7Dfk5/wR8HdgiM79ZcuLM/AmwFfAR4OqSc0vShNgK+GL90WlndfojgIh4OVUBGJRrgZ8BV9WP3wIX1O/UhyIiHkK57YAlaZBWBR5WP9alenM2yKOzr8nMjw1w/pHW2QIQEatR3Tu61IY+i10JHEP1scJ53pNakvpTv0OfC+wDPAvYuPBT3ARskJl/KTzvWOjyRwBvouzifx3wEmCjzHxrZp7r4i9J/cvKeZn5DmBTqt+x1xZ8itWBtxWcb6x08ghARKxNdaJciZNAFgKHAh/KzL8VmE+SNI2IWAV4A/AuYFaBKRdQvXH7XYG5xkpXjwC8kzKL/5+BJ2Xme1z8JWnwMvP2zDwU+GfgxgJTrkz1Jq5zOncEICI2BC6meXO8AnhKZl7ePJUkqVcR8UjgeGCzhlMtArbNzJ83TzU+ungE4E00X/yvAx7n4i9J7cnM3wBPoPl5AVPA65onGi+dOgIQEVPAfKobQfTrDuCxmXlumVSSpCYiYlvgTGCVBtPcCKyVmXeXSTX6unYEYCeaLf4AB7n4S9LoyMwLgKYb/awB7FYgztjoWgHYt+H4UzPzqBJBJEnlZObXgVMaTtN0jRgrXfsI4DJgoz6HJ7BDZs4rGEmSVEhEbA2cT/9vbq/KzEcUjDTSOnMEICI2of/FH+BbLv6SNLoy82fAlxtMsX5dIjqhMwUA2Lvh+P8qkkKSNEj/03D8k4ukGANdKgAbNBj7J+DsUkEkSQNzHtXVXv1av1COkdelAtBkR6kTMnNRsSSSpIGo92A5ocEUg9x9cKRYAGbme8VSSJIG7fsNxloAJlCTH+pviqWQJA3abxuMnVMsxYjrRAGIiBWAtRpMcV2pLJKkgWtyDsBa9Zox8TpRAKgW/35/oAuBGwpmkSQN1vVUv7v7MUWzN4xjoysF4CENxt7kCYCSND7qEwFvajBFkzVjbHSlADT5Prtzq0RJmhxNfnd3Ym3sxDcpSZLuzQIgSVIHWQAkSeogC4AkSR1kAZAkqYMsAJIkdZAFQJKkDrIASJLUQRYASZI6yAIgSVIHWQAkSeogC4AkSR1kAZAkqYMsAJIkdZAFQJKkDrIASJLUQRYASZI6yAIgSVIHWQAkSeogC4AkSR1kAZAkqYMsAJIkdZAFQJKkDrIASJLUQRYASZI6yAIgSVIHWQAkSeogC4AkSR1kAZAkqYMsAJIkdZAFQJKkDrIASJLUQRYASZI6yAIgSVIHWQAkSeogC4AkSR00q+0AmhwRMQXsAmwLPAxYp/5zDrBKi9GkcXM7MB/4PXBd/ecFwFmZuajNYJocFgA1EhErA08E9gX2AR7abiJpYjx6Kf+/6yPiBOBY4JTMXDDkTJogfgSgvkTEyhHxJqp3JycAL8PFXxq0hwIvBY4HrouIN9UlXOqZBUA9iYipiNgfuBw4HHhwu4mkznow1Wvw8ojYv/4ITpox/8FoxiLiEcA84AvAP7UcR1Lln6hek/Pq16g0IxYAzUhEPA44D9im7SySlmob4Lz6tSotlwVAyxURLwdOAdZoO4ukZVoDOKV+zUrLZAHQMkXEW4FPASu2nUXSjKwIfKp+7UrTsgBoWhGxH/D+tnNI6sv769ewtFQWAC1VRGwNHA1E21kk9SWAo+vXsvQPLAD6BxHxUKrrjFdtO4ukRlYFjq9f09K9/MOdACPiscBewFxgS2ASbjKxQtsBxsx78TI/aVL8E9Vr+qC2g4yRMyLi7rZDFLAA+AXV5dsnZeaPl/zLyMzqf0Q8APhPwLNH7+2Pmbl22yGGJSI2Bn6Jt4mWJslCYPPMvKztIMMSEX8A1mo7x4j5NPDGzLwV6o8AImI2VUNw8df7cfGXJs0sPKFX1Ro/r17z7zkH4MPAxq1F0kiIiJ2Ap7edQ9JAPL1+javbNqZa85kVEXsAB7abZ6Rl2wGG6ICCc10NnEu1hemFwF8Lzi0ty2OBw/oceyHwyoJZ+vVAqjv7bQvsAKxXaN4DgLMLzaXxdWBEfH0W1Tauml4nLoOrNxJ5aoGp/ga8DfjvXHyCiTREEdHknJ2bM3NUFsiTASIigFcDHwDu33DOp0bEVGYuahpOY2/fKWC7tlNoJOwMrNlwjrOBrTPzYy7+UhlZ+RiwNc3fva9J9VqXtpsCtmg7hUbC0xqOnw/8S2ZeUSKMpHurX1v/QvVaa6Lpa12TYYsp4Kq2U2gk7Nlw/EGZ+eciSSQtVf0aa3o9f9PXuibDVVNUW7xK6zYY+83MPL5YEknTql9r32wwRZPXuibHebOAHwEvbTvJCJv4z7IjYkWabfX77VJZJkVEPAjYCZhD9bnrQ5f4cwFw3RKP+fWfl2fmglYCa9x8G3h2n2PXiIgVM/OukoE0dn40C/gKVQHYveUwo6oLVwGsTbPvc16pIOMqIlYAtgeeBPwzsCO934L6tog4GTgW+K4fqWgZmrzmguo1/7tCWTR+fgR8ZVZmZkS8lOp+wbNbDqV2zGkw9qbM/E2xJGMmItYBXk9Voh/ccLpVqW7E9HRgYUT8mKoMfDEzb244tyZIZv4mIm4CVu9zijlYALrqFuClmZlTAJl5FdU7ls6/k+uoJgvXr4ulGCMRsWFEHAn8FngDzRf/+5oF7AF8DLgyIl4TEfcr/Bwab01ee6X/vWo8zAN2rNf8v28HnJmXUF0f+maqwwO+4+iOJof/J/4ciSVFxJoR8TXgUqq7qg1jUX4IcARwWUS8oL4xjNTktee/oe64mWpNfzOwc73WA/fZ9CUzFwIfAj5U/5JZj8nYDvjRwHfaDqHxFhFPBT5L8xsm9Wt94GjgjRHxb5l5bks5pEm3H1XJH3cLgKunuzHbtLu+1QOuGlCooYqISSgxaklErAp8BPi3trPUtgJ+HBEHZubRbYeRJtBVmTkJBWCZppb/JVJ3RcSGVBvEjMriv9hKwJci4vB6HwdJ6om/OKRpRMSjgdOBDdvOsgxvAo6PiNXaDiJpvFgApKWIiM2pFv8ml0gOy97ATyLigW0HkTQ+LADSfUTE1lRnzbZ1sl8/Nge+Xt+QSJKWywIgLSEi1qTah/0hbWfpw17AYW2HkDQeLADSvR3FeL3zv683RMSL2w4hafRZAKRaRPw78OS2cxTw6YjYue0QkkabBUACImIL4PC2cxSyEvA5zweQtCzT3ghI6or6rpdfpFo4S7sVOIXqvu3zgT/UzzOnfmxHtW1w6TK+CdUGRUcWnlfShLAASPA0YJuC8yXwLeBLwA8y845lfXFErAXsA7wS2LpgjndHxFcy828F55Q0IfwIQIJDCs51KrB9Zj4nM09c3uIPkJl/zMwjgW2BFwHXFMqyDvDaQnNJmjAWAHVaRDyZ6jB8UwuBV2bmEzLz/H4myMrRVIfvv1UgE8BbImKNQnNJmiAWAHVdiXf/NwBPzMxPFpiLzPxbZj4beAfNt1teDXh581SSJo0FQJ0VEVsCuzSc5m/AP2fm6QUi3UtmHgq8rcBU+xWYQ9KEsQCoy/6l4fgE9s/MC0uEWeoTZB4GfLnhNNtFxLol8kiaHBYAddneDcf/d2aW+qx+WQ4ALm8wPqiuMpCke1gA1EkR8WCgyd3y/gr8R6E4y1RfSfD2htPsWyKLpMlhAVBXPQlocqe8wzLzxlJhliczvw2c02CKx7tdsKQleSMgNbVpRJzWdog+PKLB2LuAT5QK0oOPAV/pc+yKwJbAGeXiSBpnFgA1NRt4XNshhuxHmfnXFp73ROBO4H59jl+nYBZJY86PAKTefaeNJ61Lx48aTDGnVBZJ488CIPXuvDF9bo8ASLqHBUDq3fwxfW6PAEi6hwVA6s0i4E8tPn+TAuARAEn3sABIvbkzMxe2+Py3Nxi7arEUksaeBUDqzcotX0//sAZjbyiWQtLYswBIvWvzs/QmBaDNjy4kjRgLgNS7R7b43Bs0GGsBkHQPC4DUu6abCPUlIoLqFsb9sgBIuocFQOrdvvViPGw7AGs1GP+HUkEkjT8LgNS7dYDHt/C8z204/qwiKSRNBAuA1J/3DfPJImI94BUNprg8M68qFEfSBLAASP3ZOSL2G+LzfQBYqcH4k0sFkTQZ3A1QTV0OvKXtEH16A7Brg/FHRMRZmfnHUoGWpi4aTQ//WwAk3YsFQE39OTOPbTtEPyJiJZoVgIcDx0bE7pm5oFCse4mILYGjgSYnHd4JnFYkkKSJ4UcA6rLjgL80nGMn4Mt1mSgqIh4FHE/zW/h+LTNvKxBJ0gSxAKiz6nft/1lgqmcAp0XE2gXmAiAi9gTOBdZrOFUChzVPJGnSTPsRQP2OZhNg5eHFGZgN2w6gkfVR4JU03ylvJ+C8iPh/mXl8v5NExKrAm4GDgRUaZgI4LjMvKTCP1CVbRMQkrH0LgEsy846l/eW9CkBErAIcAjwZ2BxYceDxpBZl5t8i4p3AZwtMty5wXEScCbwtM8+c6cCIuB/wYuA9lN1r4IMF55K64kttByjoroj4JfB94NDMvGdH0XsKQETsAhyF75bVPUcBrwM2KzTfrsAZEXE11Wf4JwKXAddl5p0AETGbqjBsB+wD7AXMLvT8i/0gM88pPKek8bIisE39eFZE7J+ZZ0FdACJiM+BUml1nLI2lzLw7It5MtVCXtB7w6voBkBFxA9XHaqUX+/u6FThowM8habxsCJwaEdtl5q+mImIW8EVc/NVhmfk94IcDfpoAHsrgF3+A12fmlUN4HknjZSXgixExawp4CdVhSC1dth1AQ/MiYKA39RmSEzLzyLZDSBpZ2wEvmQJ2azvJiGtj1ze1IDOvA54DLGw7SwPXAwe0HULSyNttCt/9S/fIzNOBt7ado083A0/NzD+1HUTSyNtuiupMZEm1zPww8F9t5+jRLcBenvUvaYbWnQJ+3nYKadRk5muB/2g7xwwtXvx/2nYQSWPj51PAvLZTSKMoM98FvJ7RPhH0L8CTF1/XK0kzNG8KOAZY1HaSETbKv/w1YJn5UWB/quvqR82ZwFaZ+ZO2g0gaK4uAY6bqdw5HtJ1mhHkVQMdl5peALRj8fQJm6m7g3cDjM/OalrNIGj9HZOZZi3cDPBg4u8000ijLzKuAPanurndLi1GuBB6Xme/JzLtbzCFpPJ1NteZX2wHX26LuRrURyThfAy0NTFY+TbVR1peBpe6wNSBXAi8FHu0hf0l9WEi1xu9Wr/l/3wwoMxcC746Ib1C905kLbMlkbAe8ErB+2yE0GerD7i+MiNcDLwNezuD+fV0OvA/4iu/4paG5iuEW/EFZAPyC6mT/U+67Nfis+351/QUTtX94RGwNXNh2Dk2WzLwe+GBEHE61hfYbgN0LTP0rqq07vw+c7sIvDd1+mfmztkMM2j8UAEm9ycxFwIkRcRv9F4AbgLcDJ2Xm74qFk6RpWACk0fB7N/CRNExTy/8SSZI0aSwAkiR1kAVAkqQOsgBIktRBFgBJkjrIAiBJUgdZACRJ6iALgCRJHWQBkCSpgywAkibNCi2NlcaKtwKWNPYiYiPgKfVj1wZT7RoRvwaOrR9n1Xs9SBPHAiBpLEXE2sCrgOcAjyo49QZUOzu+AfhTRJwAHJOZJxV8Dql1fgQgaaxExCYR8VmqPdsPpuzif19rAi8Dvh8R50fE3gN8LmmoLACSxkK98J8A/IpqUV5pyBG2Bb4bEWdHxJOG/NxScRYASSMtImZFxNuBC6k+44+WI+0InBQRZ0bEpi1nkfpmAZA0siJia+Bc4H0M/x3/8jwGOC8iDmg7iNQPC4CkkRQRrwfOA7ZpO8sy3B84MiK+HhGrtR1G6oUFQNJIiYgVIuITwIcZnyuVngP8LCJ2aDuINFMWAEkjIyJmAycAr2g7Sx8eAZweEU9oO4g0ExYASSMhIh4KnAE8ue0sDawMHB8RTW5GJA2FBUBS6yJiFeB4YKu2sxRwf+B7fhygUWcBkNSqiJgCjgZ2ajtLQbOpLhXcuu0g0nQsAJLa9iHgGW2HGIAHAyfXtyyWRo4FQFJrImJ/4PVt5xigNYEj2w4hLc24XGIjacJExBzgowN8ikXA2fVjfv24DrgdWBuYUz82BPYCHjSgHE+JiAMy87MDml/qiwVAUls+TvlFN4GTge8Ax2XmH2cyKCJWBB4P7Ac8C3hI4VwfiYgfZuZvC88r9c2PACQNXUTsBzy98LQ/ALbLzCdn5mdmuvgDZOZdmXlKZr4SeCTwXuC2gtlmA1+sT3iURoL/GCUNVX2zn/8pOOUlwJMyc8/MvLDpZJl5S2a+k+qjgc81Tvd3uwEvKjif1IgFQNKw/RvVZ+8lHA/skJn/V2i+e2Tm/Mw8gGrRvqPQtG+KiLZ3M5QAC4CkIao/a39toek+AOybmbcWmm+pMvNo4HHAHwpMtynVlsZS6ywAkobpX4F1C8zzmsx8e2ZmgbmWKzPPobpRUYkS8JYCc0iNWQAkDdObCsxxZGZ+rMA8PcnMq6muEmj6ccBjImKXApGkRiwAkoYiIh4LbN5wmjOBVxWI05fMPBs4sMBUbygwh9SIBUDSsOzTcPzNwDMz884SYfpVnxPQ9OqAJ0XE/UrkkfplAZA0LHs3HH9YL9f2D9g7aHafgFWZrM2PNIYsAJIGLiI2AB7dYIrrGOxtg3uSmfOBjzSc5oklskj9WuqtgCPi4cBcYEtg5aEmGow12w4gdVzTS9/elZm3F0lSzoeAV9D/bYOfCLyzXBwV9O8R8ae2QxSwAPgFMC8zr7nvX96rAETEjsDnqa5VlTQ8j4qI09oOMUAbNxh7O/DVUkFKycxbIuIY4KA+p9g+IlbLzJtL5lIRL2k7QGkRcTHw0vqSVmCJAhAR7wXeBqzQQjap61alutmM/tEPMvNvbYeYxnH0XwBmAbsAJ5WLI01rU+AnEfGBzHwH1OcARMS/Aofg4i9p9BzXdoBlOBW4pcH4h5cKIs3ACsAh9ZrPVL0n98fbzSRJ0/pu2wGmU1+SeEqDKdYqlUXqwccjYs4U1U0tVm87zQgbyq1GJS3VLSN06d90rmgw1gKgNqwOHDhFdba/pufOXVJ75rcdYAZ+32CsBUBtmWsBkDTKLADSYMz1RkBSOYvaDjCBSuy+N2jXNRjrPUrUmilgXtshpAnx67YDTKD7tx1gBlZtMLbJ7YSlJuZZAJbPkwA1I5l5HePxjnWczGk7wAw8rMHYcfiIQ5Np3hRwJHBT20lGmCcBqhc/bTvAhJn0AtDk4wOpXzcBR07Vm1q0tr+2NGEOAe5oO8QEWSsiRv1cJQuAxs2rMnP+FEBmfg04FLi73UzSeMvMi4H3tJ1jgsxi9K9UarKtrx8BaJjuBg6t1/y/bwdc3xv4McDFLQWTJsXhwLuBu1rOMSn2bTvAdCJiXWC7BlN4BEDDcjHwmMX7AMB9dgOsdwnabEK3A5643Z00mjLzbuA9EfEdqi1jdwZmt5tqrD0NeHvbIaaxT8PxFoDR9AWgW9sBL1Z/4TXA/w4223BExNZYADRkmfkL4EkREcBG9aONDbcOBTbrc+wHgXOW+1XLtz/VQt6PTSNio8y8vECO0vZrMPY24Felgqioj2Xmz9oOMWhLLQCSysnMBC6rH0MXEa9tMPyczDy2QIY76b8AQHUEYP+mOUqKiO2BJzSY4uTMXFAqj9SrUT+7VtJkOJVmN715YURsWSpMIYfT7DLhxsVKasICIGng6ne6JzeYYgo4rFCcxiJib+DxDaZYyAhvc6xusABIGpbjG47fKyKeXSRJAxGxGvCRhtOcnpl/LpFH6pcFQNKwnEjze418oT6ptxX1TYm+SnVCZxMe/lfrLACShiIzbwBOaDjN/YFjI+KhBSL1433A3g3nuBsLgEaABUDSML2b5htsrQecMOwSEBGvAd5aYKovZOa1BeaRGrEASBqazPw5Ze4vsiNwbkRsXmCuZYqI+0XEZ4EjCkz3N+BdBeaRGrMASBq2d1Nmm+31gbMiound+KYVEXOoLmF8WaEpj6i3jZZaZwGQNFSZ+UvgW4Wmmw0cFxHHR8SmheYkIlaNiHdS3bzpMYWmvZHq3gHSSLAASGrDu6juU17KU4FfRMSREbFhv5NExOyIOAj4NdWujiX3cDg0M/9acD6pEQuApKHLzEuB1xeedgXgAODyiLg4Ij4YETtHxIrLGhQRa0XEgRFxInA98Elg7cLZrgQ+UXhOqRH3AlDnRMQqwMOAOcA6SzxmA3+k2qP9uvoxH/hDvcOfCsrMT0bE7sCzBjD9JvXjLUBGxJ+A31P9TG+jWuDn1I9B79R4K/D0zLxzwM8j9cQCoE6IiEdQbUbzNGA3etuV7y/1u8NjgZMy89YBROyqA4BtgQ0G+BwBrFU/th3g8yxNAi+sd4aURooFQBOrXvT3B/YFmmwk8yDg+fVjQUT8kOpStq9k5h1Nc3ZZZt4cEc8BzgLu13aeATikxG6K0iB4DoAmTkQ8JCKOAC4F3kmzxf++Vqa6E9zngMsi4gUR0WRHuM7LzPOpjgQsajtLYV/NzPe3HUKajgVAEyMiVomIt1OdcPUaBv+Ocj3gaOCCiNhzwM810TLzaKojLAvbzlLIuZS7d4A0EBYATYSI+BeqS7feB6w25KffGvi/iDgpItYa8nNPjMz8OtUJgeN+stwPgL3qLZClkWUB0NiLiDdSbTKzTstRnkR1e9rWdqsbd/Xn5ftS9h4Bw/QxqsXfrX418iwAGlsRsVJEHAV8iNH5t/xw4MyIeHrbQcZVZn4f2Ivqkr1xcSdwQGa+xktGNS5G5Zem1JP6UPuPgBe3nWUpVgWOiYh3tB1kXGXm6cDmwNfbeZVOYgAAFcNJREFUzjID1wNPyMzPtR1E6oUFQGMnImYDPwR2bjvLMgTwHxHxnraDjKvM/HNm/ivwXOCmtvNM41hgbmae2XYQqVcWAI2ViJgCvgps1naWGXpnRDy77RDjLDO/QXU04IS2syzhLOAxmblfZl7TdhipHxYAjZsPAE9pO0SPjoqI7doOMc4yc35m7gNsDxxDe/cMuAzYLzMfk5lntZRBKsICoLERES8E3tx2jj6sQrVl7Zy2g4y7zJyXmc8CHg18BhjWnRh/BhwEbO6d/TQpLAAaCxGxCXBk2zkaeBjwtbZDTIrMvCIzXw6sD7wO+B7VJj+l3A2cDrwWeERmbpOZn87MSblRkeReABobHwBWajtEQ4+LiH19B1lOZv4BOAI4IiLuR3Vi6J71YzOqKzKWZxHVmfzzqW4mdSJwQmbeOJDQ0oiwAGjkRcSuVLv4lXYXcA7wW+Ba4K9U28OuC2xKtZ1saR+MiO/6TrK8ervd0+vHIXDP1s9r1o+H1n+uBPyBe2/37M9DnWMB0Dg4vPB83wOOAk7OzJun+6KI2AB4KvBq4JGFnntjqnvEf7rQfFqGzLwduLp+SFqC5wBopNV31Ct1vf/5wO6ZuXdmfmtZiz9AZl6ZmUdQHQl4HVDq9q7vjoiZHJqWpIGxAGjUvbPQPB8HdsrM03odmJl31kVgG+DnBbKsDRxYYB5J6psFQCMrIh4FbNVwmgQOysxXN/2cNzOvBh4DfLdhJoBnFJhDkvpmAdAoK3Hi37szs9jn7Zl5G/Bsqo8TmtglItYsEEmS+mIB0Cjbt+H4Y4D3lgiypPrEsn2BPzWYZorqBENJaoUFQCMpIh4K7NJgiluBV2VmFop0L5l5LXBww2kGcWmjJM2IBUCj6ik0+/d5eGb+sVSYaXwBuLTB+D0j4v6lwkhSLywAGlVNTv67HfhoqSDTycy7gQ81mGJlYKNCcSSpJxYAjaomG+eckpm3FkuybMdT3Te+X24QJKkV/3AnwHrTlT2BucCWVO9Sxt2430O+i9ZpMPY7xVIsR2beEBFnAo/rc4om36ekwfhORAxrp8lBWgD8AphH9cbokiX/8p4CEBGzqO6ffTDeIljta7IwlrhZT6/PZwGQJsf6bQcoaCvghcDCiHgfcOjie6JMAUTEysAZwLtw8ddoaHJofH6xFIN/PguApGGYRbXGn1Gv+fecA/A+YKe2UklLiogHAqv0OXwRza7P78cfGoxdu1gKSVq+najWfKYiYhfgte3mGWkDuY5cy9Tklr1TwANLBZmhBzcYu6BYCkmamddGxC5TwDPxaoBlibYDdE19u90mJ+BsUCrLDDXZKnjQ9yqQpPuaAp45RXW2vzRqbmowdtgFoMnzWQAktWHuFM13W5MGoUkB2LhYisE/X5PzBySpX1tNAde2nUJaimsajH1hRAzlo5uI2Ak/ApA0fq6dovm2ptIgnNVg7KOAvUsFWY5/bzj+yiIpJKk3509RXf+v6XkVQDt+0nB804V5uSJiDtVJtP26KjMvK5VHknpwxhTVjmYeBZieVwG041yaXQ64Z0Q8tVSYaXwIWLHB+O+VCiJJPTgf+MJUfUvAF9PssiupqPpSwHMbTnN0RDyqRJ77ioh/B57fcJoTS2SRpB7cAbw4MxdOAWTmr4A9gCtajSXd21ENxz+QalOPVQtkuUdE7AZ8uOE0twM/KhBHkmbqCmCPes3/+w2AMvMsqksC3w9cCNzVSjzp774O3NZwjs2BH0TEwwvkISKeQ3XovumeGSdl5u0FIknSstxFtaa/H9iqXuuB+/wSq38hHQwcHBErAZswGdsBbwh8qe0Q6k1m3hIR3wBe2nCqnYCfRcT+mXl8PxNExP2AjwD/r2GWxd5faJ5B+86QrqiURsmLmIwj4guASzJzqR/xT/suph7ws0GlGqaI8H7r4+sTwEtofjLmg4HjIuKrwP8s2YKXJSJWAV4AvI6qEJdwYmbOKzSXpPIuysyJWP+Wxa1/NdIy8/x60W56wt1izwOeFxG/BD4DnAlcB1yfmYsiYhbVjX02AnYFDgDWKPTci7278HyS1DMLgMbBW4H9gPsXnHNz4GNL/N8LI+IG4CEM9nXhu39JI8FdADXyMvNa4PABP80sYG0Gu/jfDrx5gPNL0oxZADQuDgMuaDtEQ6/KzIvbDiFJYAHQmMjMBcAzaLZLYJu+nJmfbzuEJC1mAdDYyMyrqE7iW9RylF5dChzUdghJWpIFQGMlM08G3tR2jh7cADyzvrWxJI0MC4DGTmZ+BHhD2zlm4FrgsYtvuylJo8QCoLFUl4CBb/nbwK+BXTPzkraDSNLSWAA0tjLzv6l2shy1w+u/oFr8r247iCRNxwKgsZaZXwK2ZTQuEVwEHAHskpl/bDuMJC2LBUBjLzMvB3YGPgTc3VKMi4CdM/N1nvAnaRxYADQRMvPOzHwzsBnwLSCH9NR/Aw4BtsvMc4f0nJLUmHsBaKJk5mXAsyNiW6rD8bsN6KkuBT4FfDEz/zKg5xgFLwBObDuEluoUYG7bITS+LACaSJl5QUR8nrIF4HaqxfCTmXlqwXlH2W0TXnDGVkS09XGXJoQFQFq6RcDFwLlLPC7KzIWtppKkQiwA0tKdkJn7th1CkgbFkwAlSeogC4AkSR1kAZAkqYMsAJIkdZAFQJKkDrIASJLUQRYASZI6yAIgSVIHWQAkSeogC4AkSR1kAZAkqYMsAJIkdZAFQJKkDrIASJLUQRYASZI6yAIgSVIHWQAkSeogC4AkSR1kAZAkqYMsAAJY1GDsCsVSSOpFk9dek9e8JsSs6f4iIgJYD1h5eHEGZv22A4y4GxuM3TgipjLTXyjSkETEFLBxgymavOa7YP2IWNB2iAIWAFdnZi7tL+9VACJiFvA64MnAdsBqA4+nUTC/wdjZwEbApYWySFq+jahee/1q8prvgu+0HaCgmyPifOD7wEczc+Hiv7jnI4CI2AT4KXA4sDsu/l3yR5odEty+VBBJM9LkNbeI6jWvbliNak0/HPhpvdYDdQGIiPWBc4C5LYRTyzLzbuD6BlO8qFQWSTPS5DV3ff2aV/fMBc6p13ym6s/6P0+zw0kaf1c3GPvEiDigWBJJ06pfa09sMEWT17rG32zg81GfSPJ8qsMDWrqlnjwxgb7fcPyHI2LdIkkkLVX9Gvtww2mavtY1/nYHnj+Fi//yRNsBhuS4huNXA06LiN1KhJF0b/Vr6zSan5/V9LWuybD7FJ7AJSAzLwSuaTjNBlQl4CMRsUqBWFLnRcQqEfERqsV/g4bTXVO/1qXtZ+E18vq744BXN5xjiupS0ldGxC+AC4ALgb82nLcfOzYY+7CIeG6xJO1as8HYXSNiEu4FMm4eCGwDbAtsCaxUaF7f/Wux9QP4CbBL20lG2B8zc+22QwxDRGwK/ALv7idNoruBLTPz4raDDENE/AFYq+0cI+ysKeD8tlNoNNS/GI5qO4ekgTiqK4u/ZuT8KeDYtlOMuK5cBbDYu4Db2w4hqajbqV7b0mLHTmXmqcCRbScZYV25CgCAzPw9cETbOSQVdUT92pYAjszMUyMziYjZwHk021xiUnXmHIDFIuIBwFnAFm1nkdTYRcAumXlr20GGyXMApnUZsH1m3jIFkJm3UN0i8NOtxtJIqH9R7EOz2wNLat/1wD5dW/w1rU8Dc+s1n7jvLoER8VhgL6pCsCWTsR3wCsAD+hzbuSMAi0XErsAPgfu1nUVSz+4E9sjMn7QdpA0NjwDcSnXVxLhbQHVl1zzgpMz88ZJ/+Q8FYBJFxNZU16L3o7MFACAiXkh1ZcDUcr5U0uhYBOyfmUe3HaQtDQvANpn5s5J5RpG/1LVM9S+QpwI3t51F0ozcDDy1y4u/ZsYCoOXKzO8BOwG/bjuLpGX6NbBT/ZqVlskCoBnJzEuobq17fNtZJC3V8cCO9WtVWi4LgGYsM2/KzKdR7SB5Xtt5JAHVa3H3zHxaZt7UdhiNDwuAepaZp2XmDsCzgUvbziN11KXAszNzh8w8re0wGj+z2g6g8ZWZ3wK+FRFbAPvWj23bTSVNtPOpbt9+bGb+su0wGm8WADWWmRdR3W3svRHxT1TbmD4MWKf+cw6wSnsJpbFzOzAf+D1wXf3nhZn5u1ZTaaJYAFRU/QvKX1KSNOI8B0CSpA6yAEiS1EEWAEmSOsgCIElSB1kAJEnqIAuAJEkdZAGQJKmDLACSJHWQBUCSpA6yAEiS1EEWAEmSOsgCIElSB1kAJEnqIAuAJEkdZAGQJKmDLACSJHVQVwrA3S2NlSRpJHWlAPya/hfyS0sGkSRpFHSiAGTm7cDFfQ4/v2QWSZJGQScKQO2MIY+TJGlkdakAvBu4vscxJ2fmCQPIIklSqzpTADLzeuAVPQz5C/CyAcWRJKlVnSkAAJn5beC5wA3L+dILgMdm5u8Hn0qSpOHrVAEAyMxvAJsCn6Y6wz/rv1oAnAO8BdgxMy9qJ6EkSYM3q+0Abag/DjgIICJmA+sCV2TmwlaDSZI0JJ0sAEvKzFuAS9rOIUnSMHXuIwBJkmQBkCSpkywAkiR1kAVAkqQOsgBIktRBFgBJkjrIAiBJUgdZACRJ6iALgCRJHWQBkCSpgywAkqRJ1GR9u7tYihFmAZAkTZSIWAFYvcEUfyqVZZRZACRJk2ZNYIU+xy4Eri+YZWR1ejfAiAjg+cBjgW2A9YCLgPOAYzJzXovxJEn9mdNg7B8zc1GxJCMsMrPtDK2IiEcBn6Na/JdmEfBR4B2ZefvQgkmSGomIZwHf7HP4eZm5Q8k8o6qTHwFExPbAz5l+8Yfqv80bgDMiYsWhBJMklbB3g7Hzi6UYcZ0rABGxEvAF4P4zHLIdcMjgEkmSSqlPAHxKgymuK5Vl1HWuAABvATbrcczbImKrQYSRJBX1GGCNBuN/UyrIqOtiAXhaH2NWBD5RnzQoSRpdr2o4/sQiKcZAp04CjIiVgZupFvR+7J+ZXywYSZJUSETsDJzVYIrLM3PjUnlGXdeOAGxA/4s/wGER8cBSYSRJRX244fjvFEkxJrpWAH5Ls1s8rgX8R6EskqRCIuLlwM4Np+lUAejURwAAEfErYNMGU9wN7JqZZxeKJElqICKeCHyPZkd4rwPWzQ4til07AgBwRsPxKwD/FxF7lAgjSepfRGwGHEOzxR/g2C4t/tDNIwAbAJfS/DbIdwDPz8xvN08lSepVRKwG/Ax4RMOpFgJbZOalzVONj84dAcjMK4GjC0y1EvDNiPi3AnNJknr33zRf/AGO7NriDx08AgAQEY8ELqPcZkifBD6Qmb8rNJ8kaRki4mnAsQWmugV4VGZ2YgvgJXXuCABAZv4GKHk9/yuAKyPicxGxUcF5JUlL9/xC83ywi4s/dPQIAEBErE219e9DCk+9CPg28Bng4szszH2lJWlYIuJ3wLoNp/kdsHFXd3ztbAGAooeQluVW4PL6cRnwlwE/nySNmpuoTta7ODMXNp0sIlYHbmycCl6cmV8qMM9Y6nQBAIiIzwAHtp1DkjrgDqqPX9+Ymbf0O0lETFG9uVqlQZYvZ+YLG4wfexaAiFWBC4EN284iSR1xFfCCzPxJvxNExAXANn0OPwN4Ymbe2e/zT4JOngS4pMy8DXgG8Oe2s0hSR6wPHBsRazaY4/Q+x10B7Nv1xR88AnCPiNgB+AEwu+0sktQR38nMp/czMCIeBFwCrN3DsBuBnTLz1/0856Tp/BGAxTLzXGAfoJNng0pSC/aLiK37GZiZfwFe08OQO6je+bv41ywAS8jM04BnUv1DkSQN3vb9DszMb1J9hHv9cr70KmDvzDyz3+eaRBaA+8jM7wG7Ate0nUWSOmBuk8GZ+b/A5lRXF/z+Pn89H/gosHlm/rDJ80wizwGYRkSsAXwN2LPtLJI0wY7OzBeVmqy+ydsGwOWZubwjA53mEYBpZOaNwF7AB6ju7idJKu/8kpNl5h8y8ycu/stnAViGzFyUmW+nOkT147bzSNIEmtd2gK6yAMxAZl6YmY8DngX8tu08kjQhzgXObjtEV3kOQI8iYiXgZVS3D+7r8hVJErcD22TmZW0H6SoLQAMRsR1VGXge8MCW40jSuLgVODAzv952kC6zABQQEasAj1nisSOwWquhJGk0nQ68JDP9OLVlFoABqHeq2hxYD1gdWKN+rE6z3ava9jxgxT7HHgv8tWCWkh4C7N3n2L8y+C2lm9gW2KLPsRcBFxTMUtq+9H/k7Xss/+YxbVkN2K/PsXdSXb48am6kOtt/HnBFuvCMBAuAZiwi/kL/v3A3ycxLS+YpJSJ2An7a5/DLMvPRJfOUFBEfBN7S5/DDMvOtJfOUFBGXAhv3OXznzBzJk88i4tFU97jvx18z80El82hyeRWAJEkdZAGQJKmDLACSJHWQBUCSpA6yAEiS1EEWAEmSOsgCIElSB1kAJEnqIAuAJEkdZAGQJKmDLACSJHWQBUCSpA6yAEiS1EEWAEmSOsgCIElSB1kAJEnqIAuAJEkdZAGQJKmDLACSJHWQBUCSpA6yAEiS1EEWAEmSOsgCIElSB1kAJEnqIAuAJEkdZAGQJKmDLACSJHWQBUCSpA6yAEiS1EEWAEmSOsgCIElSB1kAJEnqIAuAJEkdZAGQJKmDLACSJHWQBUCSpA6yAEiS1EEWAEmSOsgCIElSB1kAJEnqIAuAJEkdZAGQJKmDLACSJHWQBUCSpA6yAEiS1EEWAEmSOsgCIElSB1kAJEnqIAuAJEkdZAGQJKmDLADqxYKWxg7apH5f4Pc2iLGDNqnfl0aMBUC9+EWf424Gri4ZpLBLgLv6HNvvf5NhaZJvUr+3u6h+5qPqaqrXTD9G/WemEWIBUC/m9Tnu/MzMokkKysw7gF/2Obzf/ybD0iTfpH5vv6x/5iOpfq2c3+fwUf+ZaYRYANSLk/oc9/2iKQajn4wLgVNKBykpM68BLu5j6MX12FF2CtXPoFeT+u8R+n+NqoMsAJqxzPwx8Okeh80DPjqAOKUdClzR45j3ZeYoH0pe7KXA3T18/d31mJFW/7d/X4/DrqD6WY+6j9L7u/lP169RaUZihI/MagRFxAOofjFtPIMvvwXYcUwWSSJiF+BUYKUZfPnZwG6Z2c870KGLiPcCh8zwyw/NzHcMMk8pETELOAPYaQZffgewR2aeNdhUZUTEJsA5wOwZfPllwNzMvHWwqTRJPAKgntS/YLYHjlzOl/4I2HJcFn+AemHYjmV//roI+Aiw+7gs/gD1gv484KZlfNlNwPPGZfEHqH8Gu1P9TBYt40vPB7Ybl8Uf7jnCsSXVa2lZjgS2d/FXrzwCoL5FxB7AvlSL5hbAVcB5VL+wvjLKJ/4tS/2u8iXAblTf27rAz6mOfBwzTovIfUXEHOBAYG79gOr7mgccmZnz28rWVH0E55lU39dWwLVUC/8ZwBfGqbAtKSICeD5V0dkeWB+4iOp7OzYzT20vncbZ/wesA6UbId3yygAAAABJRU5ErkJggg==;" vertex="1" parent="xfIXe2Qn87EwwuHYDTUL-1">
          <mxGeometry x="887.1" y="280" width="90" height="90" as="geometry" />
        </mxCell>
        <mxCell id="xfIXe2Qn87EwwuHYDTUL-8" value="" style="group" vertex="1" connectable="0" parent="xfIXe2Qn87EwwuHYDTUL-1">
          <mxGeometry x="50" y="437.5" width="50" height="68.5" as="geometry" />
        </mxCell>
        <mxCell id="xfIXe2Qn87EwwuHYDTUL-9" value="" style="sketch=0;aspect=fixed;pointerEvents=1;shadow=0;dashed=0;html=1;strokeColor=#6F0000;labelPosition=center;verticalLabelPosition=bottom;verticalAlign=top;align=center;fillColor=#a20025;shape=mxgraph.mscae.enterprise.key_permissions;rotation=90;fontColor=#ffffff;" vertex="1" parent="xfIXe2Qn87EwwuHYDTUL-8">
          <mxGeometry x="12" y="-12" width="26" height="50" as="geometry" />
        </mxCell>
        <mxCell id="xfIXe2Qn87EwwuHYDTUL-10" value="" style="image;sketch=0;aspect=fixed;html=1;points=[];align=center;fontSize=12;image=img/lib/mscae/Key.svg;rotation=90;" vertex="1" parent="xfIXe2Qn87EwwuHYDTUL-8">
          <mxGeometry x="9.5" y="28" width="31" height="50" as="geometry" />
        </mxCell>
        <mxCell id="xfIXe2Qn87EwwuHYDTUL-11" value="" style="sketch=0;aspect=fixed;pointerEvents=1;shadow=0;dashed=0;html=1;strokeColor=#6F0000;labelPosition=center;verticalLabelPosition=bottom;verticalAlign=top;align=center;fillColor=#a20025;shape=mxgraph.mscae.enterprise.key_permissions;rotation=90;fontColor=#ffffff;" vertex="1" parent="xfIXe2Qn87EwwuHYDTUL-1">
          <mxGeometry x="510" y="350" width="26" height="50" as="geometry" />
        </mxCell>
        <mxCell id="xfIXe2Qn87EwwuHYDTUL-12" value="" style="endArrow=classic;html=1;rounded=0;" edge="1" parent="xfIXe2Qn87EwwuHYDTUL-1">
          <mxGeometry width="50" height="50" relative="1" as="geometry">
            <mxPoint x="320" y="399.5" as="sourcePoint" />
            <mxPoint x="760" y="399.5" as="targetPoint" />
          </mxGeometry>
        </mxCell>
        <mxCell id="xfIXe2Qn87EwwuHYDTUL-14" value="&lt;font style=&quot;font-size: 20px;&quot;&gt;1.&lt;/font&gt;" style="text;html=1;align=center;verticalAlign=middle;resizable=0;points=[];autosize=1;strokeColor=none;fillColor=none;" vertex="1" parent="xfIXe2Qn87EwwuHYDTUL-1">
          <mxGeometry x="400" y="350" width="40" height="40" as="geometry" />
        </mxCell>
        <mxCell id="xfIXe2Qn87EwwuHYDTUL-21" value="" style="endArrow=classic;startArrow=classic;html=1;rounded=0;" edge="1" parent="xfIXe2Qn87EwwuHYDTUL-1">
          <mxGeometry width="50" height="50" relative="1" as="geometry">
            <mxPoint x="320" y="550" as="sourcePoint" />
            <mxPoint x="760" y="549.5" as="targetPoint" />
          </mxGeometry>
        </mxCell>
        <mxCell id="xfIXe2Qn87EwwuHYDTUL-22" value="&lt;font style=&quot;font-size: 20px;&quot;&gt;3.&lt;/font&gt;" style="text;html=1;align=center;verticalAlign=middle;resizable=0;points=[];autosize=1;strokeColor=none;fillColor=none;" vertex="1" parent="xfIXe2Qn87EwwuHYDTUL-1">
          <mxGeometry x="400" y="506" width="40" height="40" as="geometry" />
        </mxCell>
        <mxCell id="xfIXe2Qn87EwwuHYDTUL-23" value="" style="html=1;verticalLabelPosition=bottom;align=center;labelBackgroundColor=#ffffff;verticalAlign=top;strokeWidth=2;strokeColor=#0080F0;shadow=0;dashed=0;shape=mxgraph.ios7.icons.locked;" vertex="1" parent="xfIXe2Qn87EwwuHYDTUL-1">
          <mxGeometry x="490" y="499.5" width="70" height="90" as="geometry" />
        </mxCell>
        <mxCell id="xfIXe2Qn87EwwuHYDTUL-24" value="" style="sketch=0;pointerEvents=1;shadow=0;dashed=0;html=1;strokeColor=none;fillColor=#505050;labelPosition=center;verticalLabelPosition=bottom;verticalAlign=top;outlineConnect=0;align=center;shape=mxgraph.office.security.key_permissions;rotation=90;" vertex="1" parent="xfIXe2Qn87EwwuHYDTUL-1">
          <mxGeometry x="512.5" y="414" width="25" height="53" as="geometry" />
        </mxCell>
        <mxCell id="xfIXe2Qn87EwwuHYDTUL-25" value="" style="endArrow=classic;html=1;rounded=0;" edge="1" parent="xfIXe2Qn87EwwuHYDTUL-1">
          <mxGeometry width="50" height="50" relative="1" as="geometry">
            <mxPoint x="760" y="466.05" as="sourcePoint" />
            <mxPoint x="320" y="466.05" as="targetPoint" />
          </mxGeometry>
        </mxCell>
        <mxCell id="xfIXe2Qn87EwwuHYDTUL-26" value="&lt;font style=&quot;font-size: 20px;&quot;&gt;2.&lt;/font&gt;" style="text;html=1;align=center;verticalAlign=middle;resizable=0;points=[];autosize=1;strokeColor=none;fillColor=none;" vertex="1" parent="xfIXe2Qn87EwwuHYDTUL-1">
          <mxGeometry x="400" y="426.55" width="40" height="40" as="geometry" />
        </mxCell>
        <mxCell id="xfIXe2Qn87EwwuHYDTUL-27" value="Chiave Pubblica" style="text;html=1;align=center;verticalAlign=middle;resizable=0;points=[];autosize=1;strokeColor=none;fillColor=none;" vertex="1" parent="xfIXe2Qn87EwwuHYDTUL-1">
          <mxGeometry x="470" y="324" width="110" height="30" as="geometry" />
        </mxCell>
        <mxCell id="xfIXe2Qn87EwwuHYDTUL-30" value="Everything" style="text;html=1;align=center;verticalAlign=middle;resizable=0;points=[];autosize=1;strokeColor=none;fillColor=none;" vertex="1" parent="xfIXe2Qn87EwwuHYDTUL-1">
          <mxGeometry x="897.1" y="407.5" width="80" height="30" as="geometry" />
        </mxCell>
        <mxCell id="xfIXe2Qn87EwwuHYDTUL-31" value="Vehicle" style="text;html=1;align=center;verticalAlign=middle;resizable=0;points=[];autosize=1;strokeColor=none;fillColor=none;" vertex="1" parent="xfIXe2Qn87EwwuHYDTUL-1">
          <mxGeometry x="173.56" y="379.5" width="60" height="30" as="geometry" />
        </mxCell>
        <mxCell id="xfIXe2Qn87EwwuHYDTUL-32" value="Chiave di sessione" style="text;html=1;align=center;verticalAlign=middle;resizable=0;points=[];autosize=1;strokeColor=none;fillColor=none;" vertex="1" parent="xfIXe2Qn87EwwuHYDTUL-1">
          <mxGeometry x="465" y="396.55" width="120" height="30" as="geometry" />
        </mxCell>
        <mxCell id="xfIXe2Qn87EwwuHYDTUL-33" value="Traffico cifrato" style="text;html=1;align=center;verticalAlign=middle;resizable=0;points=[];autosize=1;strokeColor=none;fillColor=none;" vertex="1" parent="xfIXe2Qn87EwwuHYDTUL-1">
          <mxGeometry x="475" y="471" width="100" height="30" as="geometry" />
        </mxCell>
        <mxCell id="xfIXe2Qn87EwwuHYDTUL-35" value="" style="html=1;verticalLabelPosition=bottom;align=center;labelBackgroundColor=#ffffff;verticalAlign=top;strokeWidth=2;shadow=0;dashed=0;shape=mxgraph.ios7.icons.smartphone;strokeColor=#000000;" vertex="1" parent="xfIXe2Qn87EwwuHYDTUL-1">
          <mxGeometry x="1010" y="360" width="60" height="111" as="geometry" />
        </mxCell>
        <mxCell id="xfIXe2Qn87EwwuHYDTUL-37" value="&lt;font style=&quot;font-size: 40px;&quot;&gt;Vehicle to Everything&lt;br&gt;&lt;/font&gt;" style="text;html=1;align=center;verticalAlign=middle;resizable=0;points=[];autosize=1;strokeColor=none;fillColor=none;" vertex="1" parent="xfIXe2Qn87EwwuHYDTUL-1">
          <mxGeometry x="35" y="85" width="400" height="60" as="geometry" />
        </mxCell>
      </root>
    </mxGraphModel>
  </diagram>
  <diagram id="GPmqOYIlR7QQ9kPhCR28" name="V2X certificato">
    <mxGraphModel dx="1036" dy="606" grid="1" gridSize="10" guides="1" tooltips="1" connect="1" arrows="1" fold="1" page="1" pageScale="1" pageWidth="1169" pageHeight="827" math="0" shadow="0">
      <root>
        <mxCell id="0" />
        <mxCell id="1" parent="0" />
        <mxCell id="SQHfie_VFYTviweRCv75-2" value="" style="shape=image;verticalLabelPosition=bottom;labelBackgroundColor=default;verticalAlign=top;aspect=fixed;imageAspect=0;image=data:image/png,iVBORw0KGgoAAAANSUhEUgAAAgAAAAFRCAYAAAACQhU1AAAAAXNSR0IArs4c6QAAAARnQU1BAACxjwv8YQUAAAAJcEhZcwAAkKIAAJCiATBbtuYAACnHSURBVHhe7d0HvB1lgfdxWJqEGlqkiRCKCCoIUgSUKh0MAusqRWDFZZEiKyqL7OLrirqwLyDwCsILiItUARtFOgICokhZeijSO6EFQnH//5lzIbl5bu4pz8w8M/P7fj6/PefcNSH3JPM8c+fMPDPzTEB15lQrqEXU2GHNroCmmKJeGNbT6h41WQGlYwcAZVlQbahWVh/pPI5Xf6eAtnpHTVR3qNs7j1eo5xRQKHYAUKQl1WfVBPUpNYsCMGNvq2vU+eoC9YgComMHALF9SHnC306t7i8AGMjN6jzlHYK7/QUgBnYAEIMnek/4nvi9AwCgGN4B8I6Adwi8YwD0jR0A9GuM+monH+oHUC5/NHBsp9f8BaAX7ACgVz5zfy/1TeWz9wFUy1cT/FD9WHFFAbrGDgC6NYfaUx2kFvUXACTlCfV99RP1hr8AzAg7ABiNr8ffXR2slvAXACTtUfU9dbLy+gMA0JNZ1T+qh9TfiKh2edv1NuxtGZgORwAQsr3yZ4rLZK8A1NkDyufsnJu9AjrYAcDU5lPHqS9mrwA0yelqbzUpe4XWYwcAQzZQP1Vc0gc0ly8d3FVdmb1Cq7E0K/z54H+q45WPAABoLm/ju6h5lO854HsRoKU4AtBu8yp/LrhJ9gpAm1yqfL7PS9krtA47AO3lQ/0XKt+VD0A7+e6DWyhuONRC3Iq1nT6ublRM/kC7eQzwWOAxAS3DDkD7rK+uVqzmB8A8FnhM8NiAFmEHoF02VT7sP3f2CgByHhM8NniMQEuwA9Ae26hfKt/MBwCG89jgMcJjBVqAywDbYQd1lvK6/gAwEl8W7CsD7lZ3+gtoLnYAmm9n9TPFeuAAuuF5YTv1oLrNX0AzsQPQbF9WJyn+ngH0wh8Pb6t8i+E/+wtoHiaG5tpXeV1/zvMA0A+vE7OVekH5UkE0DDsAzeQ7f/2XYqEnAIPwGLK5el1d5y+gOdgBaJ5D1X/kTwEgio2Vdwauyl6hEdgBaBbfw//g/CkAROWFgsaoy7JXqD0OETeD/x6PVvtkr+rHhxd9xvH9nSaqVxXQFHOp8WrZTkur96k6Okbtp/6WvQJQGZ/k9xPljbEu+Rak16sD1QqKHVG0jf/N+9++twFvC94mQttKqnnM4QRjoEL+COc0FdpAU2uK+p3aS3EfAmBa3ia8bXgb8bYS2oZSy2MPHyMDFZhNna1CG2ZKPaMOUQsoAKPztuJtxttOaJtKKY9BHosAlGQO5TW7QxtkKj2kfE6CTxoC0DtvO96GvC2FtrFU8ljkMQlAwXzDjktUaENModuVlx9m6WEgDm9L3qa8bYW2uRTymMSNxoAC+ZadV6rQBlh1L6ovKU7oA4rhbcvbmLe10DZYdR6buNU4UID5lM8WDm14VXexWkIBKJ63NW9zoW2x6jxGeawCEIlPCrpZhTa4KntJ/aMCUD5ve94GQ9tmlXms4qRfIIJFlG/JGdrQqsyrgX1AAaiOt0Fvi6FttMo8ZnnsAtCnxdRdKrSBVdmpikVAgDR4W/Q2GdpWq8xjl8cwAD1aSnlZ3NCGVWUnKE70A9LibfJ4Fdpmq8xjmMcyAF3ymuEPq9AGVWW+3wCAdHkbDW27VeaxzGMaElPnn+R8Iw1//uW9S+fnPjvWl6H4elQvojH1o9fafmqqnuw8eg/1WvW2SsGH1OUqtUNnh6tv5E8BJMx3BU1tW31cbaTuzl5Vz0sYf1Itr8Z1ev9Uz/2xymT12rDHV9Sj6q/KOzbOz31DMxTEE/v26gh1jfLkHfPmGV5y8yS1uZpdVeWjyjsloT9jlf0fBaA+vqNC23KVeWzzGFcVj+2bqRPV0yr0Z+wnz0Wekzw3eY7yXMVl0QPwXtnX1S/UYyr0pheVF9k4TJV9q87V1XMq9Geqsn9VAOrnIBXapqvMY5zHujJ5LPeYXvYCSp67PId5LvOchhnwIXzfGvNPKvRmlt09aj1VBh+KSnF1rwMUgPr6mgpt21Xmsc5jXhk8hnssD/05ys5zm+c4Lp/u8J7ZP6vrVIr3w/af6RhV5CVv66uXVei/X1X+vvdWAOrPY2xq46vHPI99RfGY7bE71XnFc57/Xso+0pwE/+XsqnzyROgNSq0fqSJsqnxySei/WVU+GZLV/YBm2UN52w5t81Xlsc9jYBE8Zof+m6nlOdBzYZE/ZCbFJ9qluLLdaMU+HL6N8pmjof9WVb2lfNcxAM2zk/I2Htr2q8pjoMfCmDxWh/5bKec50XNjYy2kfqdC33wd8mGbLVUMO6opKvTfqao3lf9cAJprB5Xa2OM/T6yxx2N0iof9u81zpOfKRvEiEPeq0Ddcp3wNq68fHcQuKrW98DfUtgpA8/knbm/zobGgqjwmemwchMdmj9Gh379Oea5szMJJa6iY11xW3W6qX3uq1PZOvbhFow89AZiOr4f3th8aE6rKY6PHyH55bA79vnXMc6bnzlrbSr2qQt9gXXtQ9bNY0L4qtcnffzdenQtA+2yovLJdaGyoKo+RHit75THZY3Po96xrHp89h9bS4iq1y9ti1eu5AN9Uod+nynwf8bLWOQCQpnWVx4LQGFFlHjN74TE59PvUPc+hnktr50wV+oaakO+61a1DVej3qDIvxLGWAoA11QsqNFZUmcfObqV4J8RYeS6tFR9aCn0jTck3g+jmRkq+KUfo11eZl+JcTQHAkFXVsyo0ZlSZx9DReCz2mBz69U3Jc2otzKbuVKFvoknN6KYW/geZ4kIUPrGkyptxAEjXyirFm5F5LJ3RD1we00K/rkl5TvXcmjxfYhL6BprWBBXiFZ18t6nQr6ky345zRQUAI/HtyMu+AVs3eUwdabU8j8WhX9O0Yi+YVMjyg6t0HpsudGKGr0P9qUptKd1H1KfVXdkrAAjzdfSfUl6iNiUeUz22htZhqeVJcn2IPrcWsQPwsc5j0w3/R+fDM2coL7eZEl8a4w36vuwVAMzYROUx44HsVTo8tnqMHX4ovC07ALWYWz3RhA5fNK3T1JA51K9U6H9XZV5RakkFAL3yxJrKrXSnzmOtx9whHotD/7umlfwPcXOrOq/D3EuXK5tTXaJC/5sq80kjiyoA6Nf71R0qNMZUmcdcj73msTj0v2lanls9xyZrWRX6gzcxf1bmv4yrpvpaKt2qFlYAMCjfnOYWFRprqsxjr8fgJqz/322eY5Plz2ZSu9FNUXkJzeuHfS2FblYLKACIZay6SYXGnCrzGJzacsZF5bk1+UsB23IOQIr9Qc2nACC2edV1KjT2UPFFPwegiKsAfNIIyneN+oyalL0CgLh8zwCPMT70jvJFn1vZAWgGnwTjW/r6xhEAUBTfoW4L9bvsFcpUix0An52J8lykfMvI17JXAFCsycqr0v0me4Wy1GKny2s2t+FeACl0vvJ9sAGgbD4h7VwVGpsobp5Tu7kBXRK+okLfBMXrLDWrAoCqeAz6uQqNURQvz6m1MUb5trOhb4QGzytfhdbEBoCy+aPkU1RorKLB81zqOTW6oiaRN5UvR1sve4WYTlK+MYZXhQKAqnmS8vK849Tq/gKiOlLV7tw677G0aYWmMjpW1eZzIACtc5QKjV3UX55DC/npvwyrqSkq9I1Rb/2XAoDU/UCFxjDqLc+dnkNr7Vsq9M1R931PAUBdHKpCYxl1n+fO2vMJIineMKcuHaIAoG744a//PGcWsU5PJXxLSc4H6L0DFQDU1f4qNLbRyHmu9JzZKL43vZcyDH3DNG0+w39fBQB1t5fymBYa62jaPEd6rmykxdS9KvSNU543lD0VADTF7uptFRrzKM9zo+fIRltcccvgcN5AdlUA0DRfUL6nfWjsa3ueEz03toIPcfxehd6ItubFkz6vAKCptldcGj5tngsbe9h/JF5D+ggVekPaljeI7RQANN3W6nUVGgvblufAVt/TZYKapEJvThvyhrClAoC22FT5FuahMbENec7z3AdZVv1Zhd6oJucNYBMFAG2zgXpFhcbGJue5znMepuIbE31VPa9Cb1rTelmtrwCgrdZRbTkC/ILaR3En1xlYSB2vmnzJiP/Bf1IBQNutoTw5hsbKJuS57ES1sEKXVlXXqNAbWud8hOMTCgCQ83j/jAqNmXXuesUtkgewtjpL+TK50Btcp/wPfBUFAJjWyupJFRo765TXOjhXrasQyQfUf6q6niPwhFpJAQDCVlCPqtAYmnr+GONwtZRCQeZSO6mzVV1OHvE/6OUVAGDGxquHVWgsTS3PQZ6LPCd5bkKJZlMbq6NVqv9gHlLLKABAd/xT9P0qNKZWnecazzmeezwHoWILqD+q0F9WlfkfsD+6AAD0xmvjp3gbec81nnOQAF9a8RcV+ouqsrtU4+/sBAAFGqduV6Extso853BZX8V8A4U7VegvqMr8D9b/cAEAg/HaMCmuFOu5p3U38UnFkirF2wr7H+qCCgAQx1h1owqNuVXmOchzEUrkk+oeVKG/kCrzP9D5FQAgrnnVtSo09laZ5yJO9C5JqteJ+p7O/gcKACiGL7W7QoXG4CrznOS5qVZm7jzWhVeKukyl9vn6U2pv9Wr2CgBQlDnVMcpXCaTE84AvDbwje1UDddoB8FrRlyo+XwcApOg55Vu835K9StzfdR5Tt6byYR8mfwBAqjxHea7ynJW8OuwArKf8kz8n1wEAUue5ynOW566kpb4D4M9TLlbzZK8AAEif5yzPXZ7DkpXyDsCW6tdqTPYKAID68NzlOcxzWZJS3QHYTp2n3pe9AgCgfjyHeS7znJacWTqPKfkH9XPFXZYAAHXnefZzyjeHS+oSwdR2AHZTp6oUd0wAAOiHj7ZPUI8o30goCSlNtHupE1QdrkwAAKAXXndnG/W0utlfqFoqOwBfUz9SdVuZEACAbnmO80mBL6kb/IUqpbADsK86Kn8KAEDjbaomqUp3AqreAdhRnaj4yR8A0CbeCXhA3Za9qkCVOwCfV6erlM5DAACgDP7Bd1v1sLrVXyhbVZPvTuo0xeQPAGiroRMDH1Ol30Coign4S+oUxeQPAGg77wRsrXw74VKvDih7Ev6yOklxqR8AALmhqwN8O+Gb/IUylLkD4Ov8f6w44Q8AgGl5btxClXZ1QFk7APuoYxWTPwAAI9tMvaauz14VqIwdgF3UT/KnAABgFJuoJ9SfslcFKfon8o+r6xR39QMAoHtT1KdVYR8HFLkDsJDyGY1LZa8AAEAvHlf+QdpXCERX1Nn4/mjhTMXkDwBAfxZT56hZs1eRFXUOwA+VF/sBAAD98w/SY9VF2auIitgB2EFxcx8AAOJYU0W/b0DscwBWUjequbJXAAAghslqHRVtyeCYOwDzqT+q5bJXAAAgpofU6sorBg4s5kmARysmfwAAivFBdVz+dHCxjgBsqC7PnwIAgAJtri7On/Yvxg6AF/m5XS2bvQIAAEV6UK2svGRw32JcBXCo+mz+FAAAFMyXBc6mLste9WnQIwA+699nJPoPAgAAyvGWWk31fWngICcBeufBN/lh8gcAoFxeHdBzcN/z+CAfAfj+/v+UPwUAACVbQj2jfAl+z/r9CGBRdZfytf8AAKAaL6kVlW8c1JN+Dx14qV8mfwAAqjWvOjJ/2pt+jgCsqv6cPwUAAAnwbYN7Wia4n3MATlAr5E8BAEAC/NG8b8PftV6PAPiSg5vzpwAAICG+T8Cf8qej6/UIgC85WD5/CgAAErKYOiN/OrpejgB4z6KvSw0AAEApPqG6OlLfy1UA3+k8AgCANHU9V3d7BGANdWP+tDJT1B/UX9VjnXzdox/fVOOUT4JYSq2r1lZzKgAA+vW6ukH9Xvl+/E928iq4PuS+eCc/9/zjuWd2VaU11U3505F1uwNwofLtB8v2qrpInad+q7zgQbf8F+Adl03UF9V4BQDAaHy3vdPVpco//L6huuXr8rdQEzqPc6uyed70f3tg3pP4W8ldp7ZVvtVwLOupk5R3IkL/TSIiam8vq5PVp1U/a+SEzKG2Uler0H+zyDx3D+xnKvSbF5H3unZURRqjfETAe3Zvq9Cfg4iImp/nAN9Sd2fluaFIn1MTVejPUUSeu2dotL2c+ZU/Zy/6s3T/VH6Y8hLDvRxqGdSSyn/xuyoubwSAdrhXndbpEX+hJD4isJ86WPmjgiJNVj4v4cXsVR/2VqE9i5j58xWfvFe1TZU/egj9GYmIqP55jPdYXzXPeZ77Qn/GmHkO79tfVOg3jdXZKrUz9TdW16jQn5eIiOqXx3SP7Snx3Oc5MPTnjZXn8L544Z/Qbxir76lYJ1oUYQN1lQr92YmIKP08hnssT5XnQM+FoT97rDyX98w3/Qn9ZoPmky6+pOriU+pyFfpeiIgovTxme+yuC8+JRZ2U7rm8J3Opoi6XO0jV0Trqdyr0PRERUfV5jPZYXUffUqHvadA8l3tO79puKvQbDZoX9En5sH831lJeESr0/RERUfl5TPbYXHfnqND3N2ie07t2vQr9JoN0l5pHNYXXEvAlkqHvlYiIis9jsMfipvBP6rer0Pc6SJ7Tu7K0Cv0GgzRJraCaxjs0hyvfpyD0fRMRUfw85nrsbdIPlUO8bP0LKvR9D5Ln9mmE7gYYZf3gYbzowT3500bx0pEHqo8qryYFACiWx1qPuR57PQY3jVcL/Eb+NKqu5nbfdCe099BvXt636jsjlcVLPT6sQu8DERH1n8dWj7FtMKu6T4Xeh37z3D5DvvnOayr0i/ttF9UmXtzhu8q3kAy9H0RE1H0eSz2mtu327l9Qofej3zy3z/AGe77lb+gX9tsdKvQxQxsso36lQu8LERGNnsdQj6Vt5LnzNhV6X/ptmtv6D5+cY3/+78/+38mfts4Dahu1vXrOXwAAdOV55bHTY6jH0jby3Pnt/Gk008zxw6/J98kHsfa2HlW+2x7yOzKdqjbJXgEARnKF8kfHj2Wv4LsVLpE/HZh3pnyVQWbqIwC+TC/moZZRTzhoEV+r6jtQfU2VebtjAKgLX9rnM/t90x4m//f8uvMYg+f4dy/Jn3oHIPbhf3YApuXPX45SvjGDF3oAAOS8UJxX8jtCeazEe2LuANi7c/3UOwAx75HsszZ9MwZMzydGfkIdqfiHDqDtfqxWU7dkrzDclerV/GkU7871U+8A9HXLwBH4MxxfcoAwfwxwgPqM4lAXgDZ6Rm2t/llN9hcQ5B+oL82fRuGdrczQDsDiasH8aRS+IxNGN7Si1bnZKwBoh4vVR9RvslcYzSWdxxgWUov6ydAOwMc6j7F49T90x5e77KD2UJwgCKDJfM/7/ZWvR3/KX0BXHuo8xpLN+UXtADzReUT3Tlb+SMA3gQCApnlF+ZD/0dkr9CL2nOojz4XtAPiyN/TuGrWO8prXANAUnsA+rS7KXqFXT3YeY5lmB2CVzmMMXr0o9h+2TYYuh/lz9goA6u1OtbZiTOufT5j0xyexvLsDMEYt5xeRPK1i/kHbyDtQ3lv2iTIAUFdXKY5qDs4/WHtujeVDanbvAKysho4ExMBn2HEMfV52UvYKAOrldOVrzl/MXmFQMd/H2dSKnvizQwERLdJ5xODeUl9W/5a9AoB6OEztrLy8L+Lw5XsxfcQ7ANn1gBF5PYHZ86eIxPfC3lW9mb0CgDT549+vKN8JlpVO45lVxd4BWNQ7APPnz6OKvVOBmWY6TW2nfFQAAFLjyf/v1U+yV4hpnBp+995BLeAdgLH586h8+1vE51Wz9syfAkBSvKTvL/KniOz9nceY2AGooVOUD68BQCp8nhI/+ReniKPqY4v6CCDmZYWYnk+wOTZ/CgCVOk75PCUUp4g5tbAjAF7nGcXyetrX5k8BoBLXqf3ypyjQlp3HmMb6pAIv0PCB7GU8PhlkYcWaAMVaSt2q5steFetudXX+FEDCvIiYF3op2kvKy8jHvlENpuXx3SsB+tr9mLK/t0nKl2vE7h8Uivd5FXr/Y3eGApA+b6uhbTh2OykUz1dWhN7/QZvkjwDmVUUo4pAFpnemKmNyLuKjIgDxlbGtnqP+O3+KgnlF2CLM4/8T2jOI0XPKixegeOOV1wcI/T3E6kYFIH3eVkPbcKz8EW8ZHzEgP+z/vAr9PQycjwAUZQG1W/4UBZuofCSgSBwBAOqh6G31AuVzglC8PVShf5/BPYNIParmVCjeSsp3jAr9PcTIJ6EASJ+31dA2HKvVFYr3PuU5NPR3EKvgF2N2oEI5blOhv4MYcR8CoB68rYa24Rjdp1COf1Ghv4OYBb8YM58LUMZlashvvxn6O4hVdtIIgGR5Gw1tu7E6W6F4/nss+khOoecADPG5AAflT1Gw2zuPReE8ACBtRW+jf+k8olj+6T/23f+mU8YOgH1dbZQ/RYFe7DwWhR0AIG1Fb6Ms7la8T6lS7vdS1g7ALMpnqcdecRDTWrXzWJRFOo8A0lT0NsoJgMVaQnmNhVIuoS9rB8B8OOM85TMbUYzVOo9FWaXzCCBNRW+ja3QeEd8cynNkqT9oBU8OKDDfzhbx+bCRF+gIveex4gQgIG3eRkPbbqx8qfHGCvGdrELveZEFv1h0R6oyjz40nZdzflCF3uuYPaAApMvbaGjbjdkjqojbyLeV50LPiaH3uuiCXyyjX6m5FQYzl/qlCr3HRbSgApAeb5uhbbaILlRcFjw4z4GeC0PvcRkFv1hWtyif9ID+fFjdqULvbVF9RgFIj7fN0DZbVPeolRX647nPc2DovS2r4BfL7DG1rkL3vOf9TfWKCr2nRVbK5SkAeuZtM7TNFtmrymNRUXeVbSrPeZ77Qu9pmQW/WEVnqaUVRraw+g/la3FD72EZna8ApMfbZmibLSOvQfJ9NU5hZB9UviQ+9B5WUfCLVfWGOlxxgknOl4VsoDzp/0EVucZ3t/kEIADp8bYZ2mbLzLcl9+2ID1Ne/I3LvnM+QvID9boKvW9VFfxi1T2rvDfZtkUnvGCSr7P10smXqckq9P5U3WIKQDq8TYa21arzhHeF8scTa6lSFrhJiNdm8Q9wT6vQ+1NpM3eepMx7tT605QUSrlW+1r3OZlOLq6WUV0YcevShIU/+dbhx0r7qmPwpgATso36UP03ay+om9ZD6q/L47seh595hqDP/EOfP9yd0Snr12zrsAEztNeUTJ4Z6vPP4vPLh8ambEvjaSF/314bupd+N2ZUvvxvTeZzRc6/N7X8EQ3lPve5rIHgDXjN/CiABN6gmbJP+SXnqHQOf7+QTDX3Csx+nfj78ax7Lu+Ux2OO4fyAbXujroa/5Rncez/0DnfNzn9nv8b8W6rYDgHQsr7g3OFC9ZRXbInrGanzo1xc7jwCqxbaIvnAEAP26Xy2XPwVQoXsV2yJ6xhEA9MuHHX1WL4Dq+MRhJn/0hR0ADGKnziOAanD4H33jIwAMwus1LKq8+AeAcvmSM18JVer949EcHAHAIBZSu+dPAZRsV8Xkj75xBACDekL5fACv0QCgHHMqX/rn68+BvnAEAIPyRwAH5E8BlGR/xeSPgXAEADF4ec/x6pnsFYAi+aM3X4Zbh2XDkTCOACCGedQh+VMABfu2YvLHwDgCgFi8DveKamL2CkARllF3Ka9NDwyEIwCIxTfH+F7+FEBBfJ99Jn9EwREAxOR/S1upC7NXAGLaXP1WedwGBsYOAGJ7UXl5Uu5OBsTjS23/qObPXgER8BEAYvMAdYGaO3sFYFBzqfMVkz+iYgcARfiwOk1xqBIY3Clq5fwpEA87ACjKBHVw/hRAn76hdsifAnFxDgCK9I7aRvnEJQC92URdpHzTHyA6jgCgSP73dYbaLHsFoFsbqbMVkz8Kww4AiuZVAn+j9steARjN3upixUl/KBQfAaBMJyoPbl41EMC0ZlXHqH/KXgEFYwcAZbtKba+ey14BsAXUuWqD7BVQAj4CQNnWVzeqT2SvAHhbuEkx+aNU7ACgCr51sAe8SxSDHtrKO8PeBrwteJsASsVHAEiBB8AfKK8gyL9HNJnHXF8a+y21lr8AVIUdAKTkbnWC+r26Vb2lgLrzyX0fVeuqPdVKCqgcOwBI1WvqFvW4errTFAWkzrfrXaTTYmpVNUYBSWEHAACAFuIkQAAAWogdAAAAWogdAAAAWogdAAAAWogdAAAAWogdAAAAWij1ywB/pp7PnzbKbOrLnUcAaLN31GnqjexVs/gmTzvkT9OT8g6A74yV7BsXwa7q1PwpALTWvsq3QW6qXyov/5ycVHcAXlbLqGezV8317+rQ/CkAtM6R6oD8aWONU/erubNXCUn1HIAfqaZP/vYd9dP8KQC0ynnq6/nTRntKHZc/TUuKRwD80/8HVRM/+w/xeQAXqY2yVwDQfDeoDdXk7FXzLaQeVEkdBUjxCMCxqi2Tv72pPqfuyF4BQLNNVFurtkz+5iPayR0FSO0IwCvKP/0/l71qlyXVjWrR7BUANI/H9rXVfdmrdknuKEBqRwB+rto4+dsjakvlnSAAaJrXlc+Gb+Pkbz4K4DkuGantAPikkDbz/e93VG9nrwCgGXykeRd1ffaqvZKa41L6COBFtYjyZ+Jt9xV1fP4UAGrvQHVE/rTVfNL302r+7FXFUjoCcJli8s+doH6YPwWAWvt/isk/5znOc10SvAMwJX9auds6j8gdpM7MnwJALf1aeaU/vCeVue4NfwTgExMWzF5Wazt1fv4UHXOoS9V62at6uEJxJAeIz4ePfe18Xdys1levZq8wZIJK4VyAZ/x/HlI+D6DqllOYnm8mcbcKvWcpxt8jUIzxKrTNpZgvd/MSuJiex8jQe1Z2E/0RQCqXnbX18r/ReFGkLZRPHKmDxTuPAOJarPOYuheUxywvgYvppTLXvZTSDsCsnUdM7wFVl5Wz6jJIAXVTh23L55T5EPdd2SuEpDLXvewdAK+9nwJ2AGbsJvUF5Xtnp4wjAEAxUl8l1IeVd1dXZ68wklTmuuwIwKP588qxAzC6C1Tqt85kBwAoRupHAL6tTs+fYgZSmese8Q7AvfnzyvkEF4zu6E6p+kDnEUBcvl9Iqk5Sh+VPMQrf7yYF93oHIJV1mdftPGJ0PgqQ6iWTvuyHozlAXB6rN8ifJucStVf+FF34ZOexatnc/1E1/PKAKrpYoXtzKt9TO/ReVl2qAxVQV76DXmhbq7q/qHkUuvcrFXovy255NdMY5RPLQv+DMpukvJeL7i2sfG/t0PtZZUcpAPH8QIW2tSrzHUy56qd3XoAn9H6WmRdr88JSmYdV6H9Udr58BL3xXpyvKw29n1XlRUAAxJPaYmD+ge0jCr3ZRIXez7K7R73LZ26G/kdl5z8Unx/3zudP+F7bofe0qj6mAAxuBRXaxqrK1/pvrNAbH+H2Ryah97TsTlbvHnL3+u0p8E+ze+ZP0YNr1a7Kf7Gp2K3zCGAwqW1Lvl15Mne0qxGP0an8YHRV5zGzjBq+h1BVXj6Sk0r6800Vek+r6A2VyuUuQF0toV5ToW2sir6j0Dufa/eYCr2nVbSUmkYq5wG47yr053gVek+r6GcKQP9OUaFtq4p+qtCfQ1ToPa2i4Dlap6rQ/7iKfPvIZRV6N4v6rQq9r2Xnq0s4FwDoj0+ye1uFtq2yu1y9e9Y4euIjoV5yP/S+VpF3Kqezowr9j6vKZ72OVejd3OpPKvS+lh3rOwD9uUiFtqmyu0PNp9C7eZXfv9D7WlWe66fjhWVeUqFfUFU+OZG9zv74xiGpfKzz9wpA91L5gexxxfLe/fHRWP8AFHpfq8pzvOf6oNNU6BdV2TlqDoXeraReVKH3tcx8EtNqCsDoVlX+GDS0LZWZD1v7z4Le+QfX/1ah97XKPMePaDMV+kVVd6XiEFR/NlS+bjf0vpaZ7zqZ+u1Mgaotov6qQttQmb2ltlDonT+C9f0RQu9r1XmOH5EX4XlahX5h1d2quNVsf3ZRofe07G5U71MApje78poeoW2n7HytP3o3Tt2sQu9p1XluH3WhPa/jHvrFKeQ1lD+r0Lt/V6H3tOzOVKz2CEzLnxf7MrvQNlN231fo3ZbqCRV6T1Ooq3u0+JIF3ygg9Buk0v9XPsyC3qRyTbEvKVpAAZhppvlVKieLnaFmVuie56ITVOj9TCXP6V0vzJbiyQvD813wNlfonk9MuVSF3s+y89+fT1IE2szLn6dyo59rFCdc98Zz0P0q9H6mlOf0rnkBihRuEdxN/mny4wrd8XWpt6vQe1l2viRlawW00WfUCyq0bZSdd0I4Ktc9zzmee0LvZWp5Lu/5zo2/VqHfLMX8DXrZWdae786SKpV1qb3S2bFqYQW0gRc4O0L5TPvQNlF2vv/K0gqj8xzjuaYuPyA7z+U9W1uFfrOU82RyofqcYgGhGVtFpbQ8pY8GHKx80wygiXwFzIHqeRXaBqrI6w2soTAyzyUTlJdYT2Vp5l7yXN4Xn7Ed+g3rkC958F72igph/vwqtRM+fWRiD+WzooEm8G3XfSluSjdcc57MtlUI8/kZP1RPqtD7V4c8h/fNh4pTWJFq0K5TuyuuHJjenir0nlWdd+B8tcc2asSlK4FE+af9rdSJKtUJZB+FaXms2VldrULvWZ3y3O05fCD/pkK/eR3zIW9vkGspvMfX/Yber1TyP+QLlI8MrKuWUewUIBWe7P0Z+jpqN/UL9YoK/VtOpf+r8B4veXycSmHp9Fh57p6hbq739EB7l1oqe9Ucd6r78qfvGv5+lP26W1P/uhjPfYjSE6sf68Qbq29W4p+wvNwxUBav2vd+5eWt63bXUp/A5jPY/RFA2aYef4Z4sqry0Yf6m3bPA3/c5I+/J2evRhD6ywjx50T+CQwAAKTNK+b+Mn86sm5PtLpHLaG43h4AgHSdpA7Pn85Yt0cAbC51i1ouewUAAFLij7WHbic9ql4+8/Vv+AXly8YAAEA6PDd7ju5q8rder7X2CVdevWqj7BUAAEjBIers/Gl3+llsxdfUf1hxIxcAAKp3jto/f9q9Xs4BmJqve71C9b3EIAAAGNgf1Ibq9exVD/rdAbCF1A1qfPYKAACUybdV98J2z2avejTIwi/+D26hfGMLAABQHs+9noP7mvxt0JXf7lW+NSIAACiP517PwX2r29KvAAAgAnYAAABoIXYAAABoIXYAAABoIXYAAABoIXYAAABoIXYAAABoIXYAAABoIXYAAABoIXYAAABoIXYAAABoIXYAAABoIXYAAABoIXYAAABoIXYAAABoIXYAAABoIXYAAABoIXYAAABooZk7j4M4Su2XP0VBjlUH5k8BIHmHq6/mT1GQo9X++dPqeAfgb1Rofo8BoC6YF4pv4HmBjwAAAGghdgAAAGghdgAAAGghdgAAAGihGDsAb3ceURzeYwB1wphVvIHf4xg7AE91HlEc3mMAdcKYVbyB3+MYOwCPdR5RHN5jAHXCmFW8gd/jGDsAj3ceURzeYwB1wphVvIHfY44A1APvMYA6Ycwq3sDvcYylgOdWL+dPUZB51Cv5UwBIHvNC8QaeF2IcAfAf4H/ypyiA31smfwB1wrxQrCjzQowdADuv84j4eG8B1BFjV3GivLfsAKTv/M4jANQJY1dxosy5Mc4BGDJRLZM/RSQPqaXzpwBQOw+qD+ZPEckDanz+dDCxjgAYRwHi4z0FUGeMYfEl+Z56j+QNFbpvMfXeFLW8AoC68hjmsSw0xlHveY6N8tO/xTwC4I8AjsufIoIfq3vzpwBQSx7DPJYhDs+xnmujiHkOgI1V96sFslfo1wtqWfV89goA6svzgecFzw/on+cDzwueH6KYpfMYy+vKh3s2y16hXwerK/OnAFBrk5XnhU2zV+jXv6qr8qfpmk3dqUKfX9Do+b2bXQFAU3hMY17oP793nltrYTn1nAp9IzRyzyof4gGApvHY5jEuNPbRyHku9ZxaK+srzv7sPp/duZ4CgKbyGMfVYt3nOdRzaS3toULfFE3fzgoAms5jXWgMpOnzHFpr31Whb4ze69sKANrCY15oLKT38tzZCF9SvkIg9E22OZ8du5MCgLbx2OcxMDQ2tjnPlZ4zG2UN9agKfcNt7BG1mgKAtvIY6LEwNEa2Mc+RnisbaZz6vQp9423K78EiCgDazmMh80L+HniObDQvP7yL8l2iQm9Ck/P37O895hLMAFB3zAstmxe8MMQ+6ikVelOalL9Hf68s8AMAI2NeaJm51AHKhz/eUqE3qo75e/H35O/N3yMAoDtNnRfeVtcq5oWABZWvET1LTVKhNzDl/Gf2n93fg78XAMBg6j4vvKTOUT7Mv5BKRuy7AcbkP9vCarFh+Y5SVf+5/ZfqOzM9rp7oPLpnlP9/AID4hs8Li3YefcfBFOYF36lvaD4Ymhs8L7yjAAAAqjbTTP8LY3VbtJADN18AAAAASUVORK5CYII=;" vertex="1" parent="1">
          <mxGeometry x="120" y="476" width="167.12" height="110" as="geometry" />
        </mxCell>
        <mxCell id="SQHfie_VFYTviweRCv75-4" value="" style="sketch=0;outlineConnect=0;fontColor=#232F3E;gradientColor=none;fillColor=#BF0816;strokeColor=none;dashed=0;verticalLabelPosition=bottom;verticalAlign=top;align=center;html=1;fontSize=12;fontStyle=0;aspect=fixed;pointerEvents=1;shape=mxgraph.aws4.certificate_manager_2;" vertex="1" parent="1">
          <mxGeometry x="506" y="120" width="78" height="72" as="geometry" />
        </mxCell>
        <mxCell id="SQHfie_VFYTviweRCv75-5" value="" style="image;sketch=0;aspect=fixed;html=1;points=[];align=center;fontSize=12;image=img/lib/mscae/Certificate.svg;" vertex="1" parent="1">
          <mxGeometry x="590" y="414.5" width="50" height="42" as="geometry" />
        </mxCell>
        <mxCell id="SQHfie_VFYTviweRCv75-6" value="" style="shape=image;verticalLabelPosition=bottom;labelBackgroundColor=default;verticalAlign=top;aspect=fixed;imageAspect=0;image=data:image/png,iVBORw0KGgoAAAANSUhEUgAAAgAAAAIACAYAAAD0eNT6AAAABHNCSVQICAgIfAhkiAAAAAlwSFlzAAAOxAAADsQBlSsOGwAAABl0RVh0U29mdHdhcmUAd3d3Lmlua3NjYXBlLm9yZ5vuPBoAACAASURBVHic7d15tGVFfejxbzfdDa3Mk4AMIhgZRBCjRI0jYhRUnorxaTQ+H1E0Rn2a917UmJjExJjEJclzilFjnI0jahRnjbOiUUQUEWlAmWSelKG77/ujbi+apu/tc0/Vrt+uU9/PWrVgLbj796va++z9O/vsXQWSJEmSJEmSJEmSJEmSJEmSJEmSJEmSJGkslkUnIEmLmMv8e89x0gKWRycgSZLqswCQJKlDFgCSJHXIAkCSpA5ZAEiS1CELAEmSOmQBIElShywAJEnqkAWAJEkdsgCQJKlDFgCSJHXIAkCSpA5ZAEiS1CELAEmSOmQBIElSh1ZEJyBp1OYy/35ZkSzi9N5/zTDvAEiS1CELAEmSOmQBIElShywAJEnqkAWAJEkdsgCQJKlDFgCSJHXIAkCSpA5ZAEiS1CELAEmSOmQBIElShywAJEnqkAWAJEkdcjVASdIGOwL33qg9KTYdDcmlKiUtJno53N7jD2l74J7c9oJ/ELe9Mzzm/JXJOwCSNPsmudirMxYAkjRbvNhrIhYAktQuL/aamgWAJLXBi72KsgCQpPHxYq/BWQBIUiwv9gphASBJ9Xix12hYAEjScB7GbS/2B+C79RoJD0RJi4meCKf1+K3zGjHDvO0kSVKHLAAkSeqQzwBIUrLpQjj3jk1HGpYFgKQe+TS+umcBIGnWebGXNsMCQNIsO4f06p2kTfiKh6TF+Bpe37xGzDBvgUmS1CF/ApA0NjsCR+JT+Ll+hj9/aBEWAJIi+YBeGRcD392ofRO4DH9C0SIsACTV4sW+jE0v9t8ALg/NSE2yAJA0pP+DC+FMa450G3/ji/1/AVdHJqXZ4YdR0mK8hVzPEN/so9/i0Ih5B0CS6vM2vsJZAEhayA7RCcwAb+NrtCwAJAFsBxzO7R/Q09L4zV7NsACQ+rPQxd6n8ZfGi72aZgEgzTYv9mV4sdfMsQCQZocX+zK82KsLFgBSm7zYl+HFXt2yAJDGz4t9GV7spY1YAEjj4sW+DC/20hZYAEhxvNiX4cVemoIFgFSHF/syvNhLhVgASMN6D+lifzecV30p5oBzuP0MetdEJiXNEk9I0rBcTGcyfrMfhosBaUHeAZBUmxd7aQQsACQNyYu9NFIWAJJK8WIvNcQCQNI0vNhLjbMAkLQlXuylGWQBIGljm17svw5cEZqRpEFYAEj98mIvdcwCQOqDF3tJt2EBIM0eL/aStsgCQGqbF3tJU7EAkNrhxV6SpEbMZbY/Bh4CbF85b82G3ONPM8yFHqRhuRiLInn8aUGuRS5JUocsACRJ6pAFgCRJHbIAkCSpQxYAkiR1yAJAkqQOWQBIktQhCwBJkjpkASBJUocsACRJ6pAFgCRJHbIAkCSpQxYAkiR1yAJAkqQOWQBIktQhCwBJkjq0IjoBSYOai04g07LMv++9/9KCvAMgSVKHLAAkSeqQBYAkSR2yAJAkqUMWAJIkdcgCQJKkDlkASJLUIQsASZI6ZAEgSVKHLAAkSeqQBYAkSR2yAJAkqUMWAJIkdcgCQJKkDlkASJLUoRXRCTSg9fXEpRy569G3/vnpvf+aYd4BkCSpQxYAkiR1yAJAkqQOWQBIktQhCwBJkjpkASBJUocsACRJ6pAFgCRJHbIAkCSpQxYAkiR1yAJAkqQOWQBIktQhCwBJkjpkASBJUocsACRJ6tCK6AQaEL0eeG58xXI9eGl6nj8H5B0ASZI6ZAEgSVKHLAAkSeqQBYAkSR2yAJAkqUMWAJIkdcgCQJKkDlkASJLUIQsASZI6ZAEgSVKHLAAkSeqQBYAkSR2yAJAkqUMWAJIkdcgCQJKkDq2ITkCDi15Pu/f4rcsdv9b13n/NMO8ASJLUIQsASZI6ZAEgSVKHLAAkSeqQBYAkSR2yAJAkqUMWAJIkdcgCQJKkDlkASJLUIQsASZI6ZAEgSVKHLAAkSeqQBYAkSR2yAJAkqUMWAJIkdaj3tc5rcD36vrn/FSn6+MuNH22mP3/eAZAkqUMWAJIkdcgCQJKkDlkASJLUIQsASZI6ZAEgSVKHLAAkSeqQBYAkSR2yAJAkqUMWAJIkdcgCQJKkDlkASJLUIQsASZI6ZAEgSVKHLAAkSerQiugENLjW1wNvPX4012NXy6I//zPNOwCSJHXIAkCSpA5ZAEiS1CELAEmSOmQBIElShywAJEnqkAWAJEkdsgCQJKlDFgCSJHXIAkCSpA5ZAEiS1CELAEmSOmQBIElShywAJEnqkAWAJEkdWhGdgAYXvZ567/Fb53rs0ozyDoAkSR2yAJAkqUMWAJIkdcgCQJKkDlkASJLUIQsASZI6ZAEgSVKHLAAkSeqQBYAkSR2yAJAkqUMWAJIkdcgCQJKkDlkASJLUIQsASZI6ZAEgSVKHVkQnoMHlrscevR586/HVttzjp3XR/W89/qjPH94BkCSpQxYAkiR1yAJAkqQOWQBIktQhCwBJkjpkASBJUocsACRJ6pAFgCRJHbIAkCSpQxYAkiR1yAJAkqQOWQBIktQhCwBJkjpkASBJUocsACRJ6tCK6ARGbGfgSOA3gAOBA4DdgN3n/9tWwPbAzcANwFXz//wlsAY4d75Fi16Puvf4rYtej711Hn9tm+nj34PzVvsCRwMPA+5HuuCPgfuobbknkNz93/oJLPr4j95/ijXT+7/3OwCHACfMt8OCc5EkqZoeC4DtgScDJwL3Cc5FkqQQPRUAewDPBp4P7BSciyRJoXooAHYF/ox08V8VnIskSaMwy68BrgZeDJxD+tbf6sX/hcDK6CQkSWrBU4ELSE9wzkL7EXBM0RFSLbn7Pjp+dIvWev7K4/5vyO7AKcSftIZq7wd2KTZaqiH6BBJ9zEb3P1fr+SuP+78RxwOXEn/CGrpdBBxXaMw0vOgTSPTxGt3/XK3nrzzu/5HbDngL8Seqmm098Gp8NqAF0SeQ6GM1uv+5Ws9fedz/I7YfcAbxJ6mo9jXgztmjqCFFn0Cij9Ho/udqPX/lcf+P1H2Bi4k/QUW3i4DfzBxLDSf6BBJ9fEb3P1fr+SvPTO//Vl8DfDzwRdLkPr3bE/gS6RkISZJm1ouAdcR/MxlbWws8PWNcNYzobxDRx2V0/3O1nr/yuP9H5PnEn5DG3NYDz5t6dDWE6BNI9DEZ3f9creevPDO9/0e9VOEmTgLeSP2c1wCnAz+YbxcA12zUAHbYqO0L3BM4fP6f+1fOdw74I+ANleMuJPdDEL0cbuvxezf6k7C0CD//wNOod9t/LfBV4AXAPgVy3wd4FvBx4KZKfVgP/I8CuZcQXUH3Hr93NT5vNttQrXsnkC7KQw/0T0nfnHcYsC87kn7GOKdCf24Gjh2wL5OK/gD0Hr930Sdwmy2nde1I4FcMO8BfBh5L3TcilpOe2v9KwX5srl1H+hkiUvQHoPf4vYs+gdtsOa1buwDnMtzAXgD8frXeLOwxwM8Yrp/nkdZIiBL9Aeg9fu+iT+A2W07r0grg8wwzoDeQlgneulpvtmwb4KWk3Ibo83+SxjRC9Aeg9/i9iz6B22w5rUuvYZjBPBM4rGI/luog4HsM0/e/rtiPjUV/AHqP37voE7jNltO68zjKD+J64LWkb9pjtw3wesqPwTrg4RX7sUH0B6D3+L2LPoHbbDltUGN7x3Bn0rf0klP83kR6Je59BbdZw5OBfwNWFdzmNaR5DbYnve2w3fz2ryYdbFeR1le4CPg58GPS/vgRt855sFS5B3Hr7+FHx+/d4CdRaUCDfv7HdnJ5B+md/1KuId1R+GLBbdZ0NPBh0gU70npSIfBV0psLnwaunPBvoy+AvcfvnQWAWtZNAXAs8ImC27sYeBRpFr+WHQGcyrgWPlpHWor4o8B7SWO9kOgLYO/xe2cBoJZ1UQBsD/yQMjPvAVwOPBA4q9D2oh1M+ua9S3Qim7EO+CzwNtLdirWb/PfoC2Dv8XtnAaCWdfH5P5lyD01cB9y3bvpVHAVcT/xDKYu1C4A/AXbaKO/oh2B6j9+76M+EzZbTZt5+wI2UGaybgUfWTb+qh1FurIZs1wGvIk19HP0B6D1+76I/CzZbTpt5b6fcYD2rcu4RTiL+oJy0XVFgG7l6j9+76M+AzZbTBhX9+8I9SA/plZiH/32kV+d6UPptiTFr/Tf46Pi9G/wkKg1opj//H6NMlXQW6Z32XmxLejc/ujpdavsksNcA4zFm0d8Aovd56/2Xcnj8LeAoypwgbgQOqZz7GBxGmuQo+gS91PZL4AkDjMdYRZ8Aovd36/2Xcnj8LeA9lDlBvLx24iPyCuJP0NO2NzOuBZmGEn0CiN7PrfdfyuHxtxl7UObb69m0Mb//ULYm/fwRfZKetn0XuEvpQRmZ6BNA9D5uvf9SjlEffyUevpvGs8if436O9ET8jfnpNOsm4I+ik8hwJPBt0qRNkqQZtxK4kPzK6P21Ex+xDxP/TS2n/Zq0ZsMsiv4GEL1vW++/lMPjbxNPIn9Q1pEeglNyD9KYRJ+sc9pa4NmlB2YEok8A0fu19f5LOTz+NnEq+YPynupZj98HiD9Zl2h/XHpggkWfAKL3Z+v9l3KM+virPcnAjsCl5P3+v470jXdWFvop5VDgB+Q91zFHej5jX9IYHw7cNT+1JefwPOD1leMOJfdDHD0RUbTo/s/0RCwanMffRp5KfkX0oepZt+Oj5I/v726yzbuSHjT8FOm3+hrf+tYDJ5YZknDR3wBq7K8hW3T/pRwefxv5CPkD8ojqWbfjOPLH912LbH8H0h2CMwvE2VJbBxyfMxgjEX0CGHo/Dd2i+y/l8Pibd0fgBvIG41ziXl1swVbAeeSN8ZXAii3EWQ48CvhWZqwtteuAI6Yci7GIPgHUvFgP0aL7L+Xw+Jt3AvmD8ZLqWbfnZeSP80OXEO8xpAmZhroAXAjsvcQxGJPoE0CtC/VQLbr/Ug6Pv3n/TN5ArKO/hWSmsTfpN/ScsT55iTFXAi9luLUJvsqW70qMVfQJIOKiXbJF91/K4fE37wzyBuIb9VNu1rfJG+v/mjLuoaTpfYe4ELxqypyiRZ8AIi7aJVt0/6UcHn+kh8dyJ6p5afWs2/Vn5I31LaRnNqaxinQHofSFYB3puYPWRJ8Aoi7cpVp0/6UcHn+kJ/dzB+Ie1bNu1+Hkj/eDMnM4kfI/CVwK7JqZV23RJwDjtx3fFttyRcdfVK0n6u+X+fdrgB+WSKQTpwMXZG7jqMy/fyup8Lsiczsb2x34p4Lbk6Ru1SoAHpD5918ukkVfvpL597kFAMB/Ag8DLi+wrQ2eAvy3gtuTpC7VKgAOz/z7bxfJoi/fyvz7EgUApOmJj6HsnYDXAdsV3J4kdadGAbAd6dZtjtyLWY9yx+zOTP8g4Ka+TyoCrim0vTvjQ6GSlKVGAZC7mMyNpG+RWprvk8ZuWsuAu5RJBYDvkdYZWFtoey8CDiy0LUnqTgsFwBmk19K0NDeT5uzPUXolwM8A/7vQtlYBryy0LUnqTgsFwLlFsuhT7tjtXySL2/on0hsCJZwA/GahbUlSV2oUAAdk/v2aIllMb9TvcW7BeZl/f5cCOWzOH5F/dwLSzxR/WmA7ktSdGgXAvpl/f36RLPp0Xubfl/4JYIMbgWdQ5nmA44F7FtiOJHWlRgGwfebfR98BaFnu2O1UJIvNOw346wLb8S6AJE2hRgGQ+yrZpUWy6NMlmX+/bZEsFvZK4KwC23k8sE+B7UhSN2oUALkXkeuLZNGnX2X+fal5ABZyC/C8AttZATyrwHYkqRst3AHIvYj17IbMvx+6AAD4HPDJAts5Cdi6wHYkqQs1CoA7ZP69BcD0cu+e1CgAAP6YtNxvjt1wjQBJmlgLPwHkfovt2dh/AtjgLOCDBbbzewW2IUldWFYhxs3Ayoy/X0m56WOnkfsuf40xXshK0vhPay15+24pDidNF5wzXrcAe1J24aFc0ceP8fuOn8v8246/qBp3AHK/ha4ukkWfcn9++XWRLCZzOvCpzG2sBB5XIBdJmnk1CoDcW/i5F7Ge5RZPNQsAgFcX2MbvFtiGJM28GgVA7kXEOwDTy/0Nv3YB8EXy1y94MMPPXyBJzWvhDsAORbLo03aZf1+7AJgD3pm5jVXAQwvkIkkzrYVnAO5cJIs+7Z3591cWyWJp3k7+gzOPLJGIJM2yGgXALzP/3ilep5c7dhcXyWJp1gBfy9zGI0okIkmzrEYBcEHm3+d+i+1ZbgHwiyJZLF3uzIAHAncqkYgkzaoaBcB5mX+/X4kkOpW7FHPuYkLTOrXANu5bYBuSNLNqFADnZ/79YUWy6NM9M//+oiJZLN3p5P/8cFSJRCRpVrVwB+AQ0pPdWpptgIMyt3F2iUSmMAd8JnMb3gGQpEW0cAdgFXBwiUQ6cyh50/jOAWcWymUa38r8e+8cSdIiahQAl5F/O/fIEol0JnfMLgCuK5HIlL6T+fd74BwSkrSgGgUAwGmZf/+QEkl05iGZf39GiSQy/IC8hYwAfqNEIpI0i2oVALnf5h5O/KpSLVkGHJ25jR+WSCTDTQVyyH0GQpJmVit3APYiPQyoydyD/Pfgv14ikUw/yfz7/YtkIUkzqFYB8N0C23B2t8nljtV64KslEsmU+wCpkwHlm8tskkaqVgFwGXBO5jZc5nVyT8r8+x8CV5VIJFPuLJIWAJK0gFoFAMCnMv/+t0hTvGpxBwD3ydzGV0okUkBuAbBHkSwkaQbVLAA+UWAbTyywjVn3ewW28fkC2yjhwsy/361IFpI0g2oWAF8if2ngp+HbAItZDjw1cxu/Jn8WvlKuz/z7OxTJQpJmUM0C4EbgC5nbOBg4pkAus+pY4G6Z2/gMcEOBXErILRi3LpKFJM2gmgUAlPkZ4AUFtjGrnl9gG6cU2EYpuQXA6iJZSNIMqn07fVfS77o5i/vMke4E5L4jvpR4OWqN8SGkp/dz4q0F9gQuL5JRvpXkzQa4lrz1EEqIPn5afxUvuv+tx89l/m3HX1TtOwCXAx/P3MYy4GUFcpk1f07+wfIfjOfiD/EfPkmaWbULAIC3FdjGU4DDC2xnVtyTMm9IvLXANkq6Y+bfj+VZBkkanYgC4NPARZnbWA78VYFcZsWryN+Xl5A/V0NpFgCSNJCIAmAt8I4C23ksrhIIadGfRxXYzttI+2ZMcl/jy32IUJJmVkQBAPDPwC2FttPzq17bAG8ssJ1bSGM5Nrl3ACwAJGkBUQXA+cC7C2zn7sCfFthOq15G/nv/AO8hf9rdIeyZ+ff+BCBJI3R3YB35q43dBBw2YJ5jXQ3tcFLfc/NbR3qtcoz+kLy+faR+yrcTffzkxo9u0f1vPX4u8287/qKi7gBAeo//wwW2swr4ILBdgW21YlvgveTNp7DBx4AfF9jOEPbP/Pvc5YQlSQO5F2nt+RLfFEo8WLg5Y6zg3l0grznSt/8jB8qxhA+Q178X1k/5dsZ4/PQkevyj4+cy/7bjj957KXMxmwOeNUB+Y9uBubfFN25DFU2lfIe8/j2+fsq3M7bjpzfR4x8dP5f5tx1/9PYmrfpW4oK2lvR6YElj2oHHkp7YLzFWvwb2LZxfSVuTFpDK6eMY7m6M6fjpUfT4R8fPZf5tx2/Cn1HmojYHXAfcu2BuY9mB96FcoTQHvLJgbkM4ivw+7lI969sby/HTq+jxj46fy/zbjt+EbYBzyR+sDe0S4NBCuY1hBx4GXFoglw3tfMb/0OTzyevjL+qnvFljOH56Fj3+0fFzmX/b8RcV+RbAxm4EXlRwe3cCvsQ4bgHnug+pL7sX3OazSXdKxuyozL8/rUgWkqQq3kGZb7gb2tXAAzJziqzgHgRcUyCHjdvbM3OqYRlpYqKcfr60etabN+pvAB2IHv/o+LnMv+34TdkBWEOZC92GdiNwYkZOUTvwmeQ/BLdpuxjYOSOnWo4gv6+PqJ715nkCiBU9/tHxc5l/2/Gb8wDS0/y5A7dpexPTTZxTeweuIK3uV7r/6xjPRXFLXk5eX9czjgcAwRNAtOjxj46fy/zbjt+kv6XMRW/T9h3gnkvMpeYOPBz47gD9nqOt5ZNPI6+vZ9VPeUGeAGJFj390/Fzm33b8Jq0EvkCZC9+m7SbSN8yVE+ZSYweuAv4SuHmgPn8B2GrCXKLtTf7skCdXz3phngBiRY9/dPxc5t92/GbtDPyUMhfAzbWzgBNID5wtZsgduAx4EnD2gP28ANhjC3mMSYk5IY6pnvXCPAHEih7/6Pi5zL/t+E07CLiK/EFcrH0beBQLvxI5xA5cDhxH/lS3W2pXM+xKiaVtRZqjIKfP15FmERwLTwCxosc/On4u8287fvOOodz0t4u1c4A/AXbdJH7JHbgDab2CH1Xoz82M65vwJB5Nfr9PqZ714jwBxIoe/+j4ucy/7fgz4akM82bA5tqNwKeA5wL7FdjefvPb+jTlX+tbqK0Hnj7VSMf6OPl9f2b1rBfnCSBW9PhHx89l/m3Hnxn/nXpFQMttPWnFwNYcSnpVMafvN3H7OzjRPAHEih7/6Pi5zL/t+DPFImDx1urFH+BD5Pf/36tnvWXRJ4DoY7L1/rceP5f5tx1/5vwPLAI219YCfzD9sIY6gvxX/+aAR9ZOfALRJ4Do47L1/rceP5f5tx1/Jj2K8nPkt9yuAx6TNaKxTiF/DH7OOOc6iD4BRB+brfe/9fi5zL/t+DPrUMouIdxquxC4d+ZYRnoEZcbhFbUTn1D0CSD6+Gy9/63Hz2X+bcefabsBXyX+JBXVvg3cOXsU46wmvX6ZOw43AftUzn1S0SeA6GO09f63Hj+X+bcdf1ELTX7TisuAo4FXk35D7sUcqc+/TboD0KqXAQcU2M47ST8BSJI69GDgPOK/sQzdLmWcD7st1eGkb+6547EWuFvl3Jci+htA9PHaev9bj5/L/NuO35UdgLcTf9Iaqr0LuFOx0YqzHfATyozJeyvnvlTRJ4DoY7b1/rceP5f5tx2/Sw8Dvk/8yatUOwf4naIjFOudlBmX9cC9Kue+VNEngOhjt/X+tx4/l/m3Hb9bW5Gmhb2E+JPYtO1K4CXANoXHJtJzKDc+76qc+zSiTwDRx3Dr/W89fi7zbzt+97YD/gq4gviT2aTt2vmcdxxgPCI9kjK/+8+R5j5o4Q2I6BNA9LHcev9bj5/L/NuOr3l3AJ4NnEX8SW1L7QkDjUGk+wHXU26MXlI3/alFnwCij+XW+996/Fzm33Z8bWI5cBzwMeqtzrfUdj3woKEGIMChlL0Dcw6wddUeTC/6BBB9LLfe/9bj5zL/tuNrEdsDvwd8BPgV8Se7jdt1wAOH63o196b8cxiPrtqDPNEngOjjuPX+tx4/l/m3HV8T2hY4FvhL4NPA1cSf/K4Hjh+y0wM7hvQ8Q8kxeVvVHuSLPgFEH8Ot97/1+LnMv+34mtJy4BDiT4DrSL93Lxu2u8U9jXIP/G1o55Lu2rQk+gQQffy23v/W4+cy/7bjL6qFi8r+pFnj7jnf9iVN+LOhbUX6pnw1aYXAnwBnAz8Cvkb+FLFjOIgB3g2cBNwQncgWrAZOJuVa0jrgIaS1H1qSe/zkfkaN33f8XObfdvzmrCLdOn49cAH5FdRPgX8hTaQzzXKxQ367WWo7hzT//1gdBvyQYfr+yor9KCn6G4Dx+46fy/zbjt+MA4HXMuxv7xcBr5mPNamhcpm2rSMtBLR6CX0Y2mrgzxnuQcrPAyur9aas6BOA8fuOn8v8244/eg8EPkq6sOUO1qRtLfDvwJET5Fcrp6W2XwAnMt1djZKeyLCLMP0E2LlWZwYQfQIwft/xc5l/2/FH667Ah8kfoJy2HngPsPcieebGGPptgjOBE4AViw12YVsBjyc9YzFk364EfqNSn4YSfQIwft/xc5l/2/FH5w7A3zKuSXiuB/6Uzd9mzt32g6kzx8AvSLfh91p8+LPsDLyQ9DT+0P25GTh6wL7UEn0CMH7f8XOZf9vxR+Vw0tP5uYMyVPsWt//GWWIHPha4pVIfbib9Zv7HwEEL74qJ7Qc8f36btfqwFnhygdzHIPoEYPy+4+cy/7bjL6rWKwbLgOcC/8D4V7a7AXget044k7sTNozx7wP/Rv3XOi4Avkf6qeAHwBrSrfVrSa9NLiMtOrQj6bXKfUmvW2549XK/yvmuA55Oeu1xFpQ6foxv/Ajm33b8cFsD7yW/EqrdXkP6rbtkBXcSdR92bK2tBZ7KbCl5/Bjf+LWZf9vxQ+0AfIH8QYhqnyiwjU09kXE9/zCWdgtp9sBZU/r4Mb7xazL/tuMvasjbC3sCp5JuJfdsc2P8cNICRNtWzmWsrgGeRFqDYdbkfohbvwVp/Nj4ucy/7fghG98V+AplHkJr3UJjfB/gFIZ9ar8FPwMeA/w4OpGBRJ8AjN93/Fzm33b8RS0fYJt3IE3s48V/cacBRwCfi04k0NeB+zO7F39JGq3SBcAq0rfa+xfe7qy6DHgU8HeM4/eyWtaR+vxQ4JfBuUiSCngT+Q89zFqb1GOBi0eQ79BtDWn6517UOn6Mb/whmH/b8av57+R3dhbbUuxIKqLWjyDvIdr7gZ2WOCatq3n8GN/4pZl/2/EXVeoBg0OAbwN3LLS9zTmP9FreaaSJbS4Drpr/bzsBu5EW97kPcBz1J7BZyDRj/HBSIXDXwrlEOZ00M+HnoxMJkPshbv0hJOPHxs9l/m3HH9zWpFnmciudzbWbgbcAR7G0gVgG3I80m9/NA+U2dAW3DfAiUqETmX9Ouxj4A+JXLIwU/Q3A+H3Hz2X+bccf3F+Q38lN23rStLl3KZDf/sA7iLutnms74OWkd+Uj8p+mXQ78Jc5zAPHHj/H7jp/L/NuOP6i7U35Wu58xzCpwx1BnFbuhduAuwJ+QHqKr3YdJ249J0x3foWC/Wxd9/Bi/7/i5zL/t+INZRvlpfj9JehBuKDsBnyqcc+0duJw0cc6pjGNdgV+T5n04lgZ+rwoQffwYv+/4ucy/7fiDeSL5ndu4/SN1fivezXN3bQAAFmJJREFUCnht4dyjduAewLNIhVPN9QV+BXwYeAqw/cB9bF308WP8vuPnMv+24w9iOfBD8ju3of1D3fSBtNpfqfzHsAO3Ax4PvBr4MmlZ41J9uJp05+QvSRMX+dv+5KKPH+P3HT+X+bcdfxBPJr9jG9rrK+e+sRoTF0VZQZpqODf/QxhmyuheRB8/xu87fi7zbzt+cVuRHvbK7dgc6Zvqqrrp38ZK0rvpJfoy1h3Yev6tix5/4/cdP5f5tx1/UdN8szueMgv9/AJ4HOk9/Si3kJahvTAwB0mSqpumADipQNw54JnAFQW2lety4BmMo1qVJGmU9qfMq2dvqJ34BP6F/H55C0ybih5/4/cdP5f5tx2/qFeS36ErSZPajM3OpDsSuf0b2w5sPf/WRY+/8fuOn8v8246/qKX8BLAceHqBmK9gHLf+N3Ul8KroJCRJqmEpM7cdBXwzM95FpJ8RIh/8W8w2pKl29yi4zejZ8XKryOj8Wxc9/sbvO34u8287/qKWcgfgsQXi/SPjvfhDmk3vddFJSJI0tKVUF2cA98iIdR2wD2lVuzHbGbgAuGOh7fVeAfcuevzH8Dtsjuj+tx4/l/m3HX9Rk94B2J+8iz/Ahxj/xR/SswAfiU5CkqQhTVoAPKhArHcV2EYtLeUqSdKSTVoA3DczzsXAFzO3UdPngEujk5AkaSiTFgC/lRnn08D6zG3UtA74THQSkiQNZZICYDVwWGacFi+mn45OoIAToxOQJI3TJAXAPUir5uX4XObfR/h8dAKZHg68MToJSdI4TVIA3DUzxvnAZZnbiHAJacXCFh0MvJ/8wk2SNKMmKQD2z4zxX5l/H6nF3HcFPgbsFJ2IJGm8JikA9suM8YPMv490enQCS7Qa+DhwYHQikqRxq3EH4LzMv490XnQCS7AceDv5b2xIkjowSQFwp8wYP8/8+0gt5f43wBMLb/PvC29PkjQSkxQAuXPit3QR3VQruZ8IvLjwNj8EvKTwNiVJI1GjAGhh/v+FXBudwAQeDLyh8Da/CzydtiZvkiQtQY0C4FeZfx9p7LkfTFq4aFXBbZ4HHAfcUHCbkqSRmaQAuENmjF9n/n2kMV8Eh3jd71rgsbgOgiTNvBUT/D/R6znr9rYhXfxLvu53C3ACcEbBbSqen19JmzXJHYDcb/C5dxAi5f78MYRlwFuB+xXe7guAzxbepiSpYZcCcxkt9zXCSHuR1/e5AXJ6VYGcNm2vGiBPJWM7fnoTPf7R8XOZf9vxs60hrwN3r59yMQczrh14YoF8Nm0fZPJlobV0Yzp+ehQ9/tHxc5l/2/EXNcmJP/c1vr0z/z7SmHI/mvKr+30LeBq+7idJ3ZmkALgwM8Y+mX8fad/oBOYdDHyAsqv7nQccT9tvaUiSpjRJAZA7G95dMv8+0n7RCQC7A5+g7Ot+1wCPxtf9JKlbkxQAv8iMcUTm30e6V3D8bYBTyF+QaWO3kNYMOLPgNiVJjZmkADg/M0b0RTRHZO7LgXdQ/nW/P8TX/SRJEziC/CcZd6+edb49ye93zlOcf1so/sbt7zLy0XRG/RRwB6LHPzp+LvNvO362VcBN5HXiydWzzvc0ylx0p/GMQrE3br7uF6P5E0Djosc/On4u8287/qImuSDcDPw4M84jMv8+wjFBcR8M/HPhbX4HV/eTJE3hX8mrYi4Gtqqe9fS2Ai6hzDfvpTgEuKpQ3A1tDW3Pxti6UX8D6ED0+EfHz2X+bcdf1KS3hL+UGWcP4KGZ26jpGOpfNHcFPgrsWHCbru4nScqyF+n2cU4l87bqWU/v3ZT59j1pBbcN8PWCMedIP91E/YyhW436G0AHosc/On4u8287fjE/JK8j11H22+1QdgFuoMxFeJIduBx4f8F4G9ofTDsAKmpmTgCNih7/6Pi5zL/t+ItasYT/9zPAoRmxtgWezfhXnnsOdZcw/hvSxDwl/T3wlsLb1HisBA4C7gEcCNx5vu1L+pztQCosdyQtH30tsI5U2F66UTsH+Ol8O5M0SZTasBdpnpIDSbOt7kPa/7uQzl9bk46DZcDVpP1/LemL2M9JE7xdSDoGfgCcDayt2QG15bfIr2YuIh2YY7UN5R7+m6SCG2J1vw/g635jUuL42YP0Ku2/AN8j/7XczbUbSYtDvY5UkO5afCRiRH8DKxF/BfAA4M+BUyl/jpojrQnyHeD1wBNIhUSp/CNF5x8dv5hlwLnkd+hFtRNfgv9L+Q/WQo4m/U5fMtY3gdWZY6Cycvdp7k9v07Z1wHeBl5PuNLQq+gScG/9jpG/uEfv/v0Ywfrmi84+OX9Qrye/QldxaXY7JbqRbZaU/SJvj6379GPpEXaudBbyUdOu5JdEn4Oj9Ft2iRecfHb+og8l/G2AOeFPtxCfwFup8AHanzJ2UjdvV5D2foeFEn4BLt7Wkb6UPKzlIA4o+AUfvr+gWLTr/6PjFfZr8Tq0Hfqd24ot4FGUKmy3twNXANwpv/2bg4cVGQqVFn4CHbN8BfpdxP3MSfQKO3kfRLVp0/tHxizuWMgfGzxnHTwG7kp6GHfoDsAxf9+tR9Am4RjsdeEypASus1Oc3Kn7rLVp0/tHxi1tG+j2wxMHxBdIrTVFWkmY5rPEBGGJ1v7G/Uqn4E3DN9mXg8DLDVkypz29U/NZbtOj8o+MP4qmUO0BKL3wzqWUM97v/pjvQ1/36FX0Crt1uAf4fsH2JwSugxOc3Mn7rLVp0/tHxB7Ec+D7lDpKTSRfkWpYB/1Qw/8Xagyn/3vZp1J2sSNOLPgFHtYuA4wqMX67cfkTHb71Fi84/Ov5gHkvZA+V11FkxcAXwxsK5L9Z83a9PK0kzMkaefKPbetLnepvMscyR24dpLQP+pED81tufEnunMmr/jyX+oL5I2YPl08DOA+a7C/C5wjnXbFeT5hDQuN2F8m97tNy+C9w1Z0Az5OY+jd2ATxaIPSvtM8R9aYnY/2OKP6i7k6YQLXmwrAEeMUCujwTOL5xrzebrfm14BGmyq+jjZWztKtIbRLXl5r1U9yfNsx893mNrF5Gmk6+t9v4fW/zB/RnDHDDvpMy3hgOAdw2UY83m637j92zSQ3DRx8pY21rgeVOP7nRyc16KJ5Hm1I8e57G2X8+PUU019/8Y4w9uFWk1qSEOmFuAfyMthLGUhwSXAb8NvIPZOCH7ut+4LQNeQ/xx0kr7R+o99Jub66RezHCTic1SW096LqCWWvt/rPGrOJi0zOSQB875wBuAZ5DeNd6LNLPe6vl/PwL4n6QH/C4YOJeazdf9xm0r4K3EHyettbdS56Hf3Dy3ZBnw2gJxemv/MMHYljD0/h97/EWVrMKfRvrGrXK+BTyUdOusRbuR1iy/O2n9+t8gPQx0R2Cn+X/OAdds1K7g1jXKzyCthndd7cQntAJ4O/CUoPiXkR6w+x7p2ZnzSTNsXk16Nuda0qpuO5JyvROpWN6HVLQfBhxJ2k8R3keaU2TdlH+/krQGxkHzbT/SWhu7c+uXg9yfERc7Ry4jveXwh5kxpnUZacW+M4Afkfb9RcClpDG9mvTlYQfSMuw7AfvOt7uS9v29iZuR9XXA8xn2Qpe77dxrZHT8qt5EfGU5K20N7b3ut5o0JezJpOlhS9wSXQ+cSXql7oHU+dY4ieXAu6l7TFwLfBh4JulNgxKWkd4seQ7wCer/hv2vTH6SWw7cD3gF8J/ADRXyW2zcXl95rH4N/AfpWZNDljBuW3Igaf9/HLi+cp9eW6gPCxlq/7cSv6oVwKnUPYBmsV1FO6/7LQMeRJpV8RqGH5vLSd+6H1Cjc4s4mTrHwi2kE/MJpG9xQ9uW9K38i9T7Tfs1W8jpKNLF9peV8tm4LeQfKsVfD3yedJdp2y2MUwl3AH6P9Er2ugr9myM9SD6UofZ/K/Gr25a0SljtD+qstFZe99saOIl0uz5qrE4j/fS0auC+bqrGBC9Xk9aP2LNSnzbnbqRnamrcFfhfm8TemvS8z1APGE/afpfb33U6qULcX5GKngOJcxfSjKk17go8a6A+5ObVevwQdyL9dhv5wW21jf11v9XACxnXu84Xk36HXTFgvzc4nmG/GV9Lekp6hwp9mdSdSE/ul57SeuO2lrQs90rS7eiLBoy11HYu6WeXFaR5HoZ8s+gm0h2R3SfaM3XsSipGhywEbyE971Rabl6txw+zK+kBpegPb0tt7K/7HUc6GUaP00LtDODowXqfHjQb6meOdcCbgT0GzD/XAcCHGG7/XQ38ZMDt57afzOc41PY/COw/8d6ob1/Scy9DFcC/nI9RUm5OrccPtQPwVeI/uNO2/6gYa8yv++0DfIT4/TFp+wjpafeStgN+PFC+Z5MebmvF8YzrDlDr7QLSw7OtOIbhZlX9DmWfdcnNp/X44bamzrK7Jdt64K9JF+Qa8b5JurU+RsfT5tS2lwK/U3AchjiG15Oegm5xZcedSN9Yo/dz6+3fGdfPPZPaHngbw4zJqwvmmZtL6/FH4zkM+xtiqXYd8ISN8h463hrG+brfKtKT7i3Pbrae9LNK7rMBjxkgt+upPy3qEFr5XI+t3chwD77V9EzKrwezDnhIofxyc2k9/qjcm/R+ePSHb6H2dW7/+t2Q8cb6ut9OwFeI3x+l2pfn+zSNXYFLCudzLmkSnlnxYNLrmdH7uZX2S9JU5bPivpT/jJxPusuQKzeP1uOPzirgL0ivu0V/EDe0a4Dnsvnf4IeKOdbX/fYiPUwXvU9Kt+8z3Z2W0rf+z6T88wljcDfgPOL389jbucQtjTykAyn/gPDJBfLKzaH1+KN1d9KDb5G3mNcB7wfuvEieQ8U+cakDVsGBpJ8kovbH0O1s0nSxkzqKspOhnEbctKs17Av8lPj9PNb2E9IDtbNqL9KUxKXG6xby75Tl5pArOv7o3Qf4JPVmnZojfft+O5Pdfh8i/hhf99uL2b74b2gXMNk0usuBbxeMeyaw8wRxW7c3wz0h3nJbw2ze+dnUnSl7HvkSeVMe58bPFR2/GQeSnv68guE+hJeTbist5V3T0jm8n/G97rcT8TOu1WxnsOXfF59SMN75pAtjLw4iLVQTvZ/H0i4l/UTSiwMp+0zAYzNyyY2dKzp+c7Ymvb71Osr8pngB8C/Ao0mzjC1VyRPBNxjf636rmK0H/iZtn2ThhYW2otw7/9cD91h4+GfWAxnXcz5R7SbamuOhlPtT7u2Q7zH9XYDc2Lmi4zcvegBLnQjWMM7X/f6R+JNkVPunBcbkqQVj/P4iYz/rnkv8Po5us/Cq37SeQ7lxfPyUOeTGzRUdf1EtrDWcOwjR6zlDmj70AaQHZMbkeNKseUMfB5eSVpf7JnAWqRi6jLSc63LSTxA7kX4//M35dn/qTIt7Helho6vn87x4Pn6JKUnfSNxa8WPxPurMd3A26ZmNs0nH1+Wk99MBtiG9zrk/6eHjo6izyM67ScVkz95FWl0w1yXAz0mTJu3AbRcAu570SvWVpP3+C9Ld4zXARzPjRl8/WrhGDyq6gsqNP9bX/fZh2Bn+riDNcnffKfNbTpoM5E0D5zlU+xlwxyn7Pkt2Zphpg9cBnyFNRDPNnbU9SN/OP8swDyBfAOw4RV6zZifgQuI/j9O2XNHxmxc9gLnxx/i6Hww3t/+FpNUCS178tgNeSjuTzaxnmJXNWnUs5cb2V6SfrQ4omN+BwP+j7Gp3jyiYX+uOI/4zOW3LFR2/edEDGB1/CEN8IG8G/p5hv/VuR3pTZO0A+Zds/zrUADTsw+SN6XrgnQz7Hv2G1e5y9/8HBsyxVbn7P6rlio7fvOgBjI5f2mrKz9h1NnCvin14wHzM6JPD5toNLD6xVK/2I317n2ZMLwIeVTHXRzP9a2w3UH5J21lwIG2uGZErOn7zogcwOn5pL6TsB+QUyszZvVTbAqdOke/Q7ZVDdrpxr2Tp4/k1YLeAXO9Eem13qfn+dUCurTiZ+M/nUlvuK7y58bsXPYDR8UvamrIPZL2Zhd+lr2El6XZ79EliQ7uO6Rcd6sH2pIVwJh3P95Oe4I+ymqUteXwp6Wcqbd6elF85cOi2jjRr7H5T9jk3fveiBzA6fkknUe6D8WbG8YrKMtJET9EnijnSg2Ra3KRzA7yF2OJyg62AtzJZzs8JyrElbyb+czpNuxF4Del10qXIjdu96AGMjl/KMuAcynwYTmEcJ+cNVgCfIvYEsZbZXOWttJWkRXEWG8uTGUdxucEy0qRRi+X8Y9JxqMUdROwCcLntMuDJS+jvrFw/wkQPYHT8Uh5EmQ/A2cT85r8l21F2JbKltlOH7+LMeBwLj+MrAvPakr9h4byPD8yrNbMw9fhHmWxxp1m5foSJHsDo+KWUWNf+Zuo+7b9Uv0XcK4I9T/k7jU0vAuuB/xua0WRezO33/X+GZtSeZxLzGS3drmLLMz3OyvUjTPQARscvYTVwDfl9+fvaiU/h1dQ/EfwKH/5aqqO49VbwOtr6/fy53Jr7etKS5prcDpSddCm6vYHbTk28sVm4foSKHsDo+CU8hvx+XEgbU9uupv569B+q0rPZ8z7SOgxPi05kCk8n3W16T3Qijfoo8Rfuku1rbP4ngVm4foSKHsDo+CWUeP/2hdWznt5TqPvh9/b/dO7K9Ku8jcETSAsMael+n/iLdul2MWkRs43NwvUjVPQARscv4XTy+nAFbXz732AZaeXBGh/6W4Bd6nRLmhk70ubMgFtqNwCP3Kifs3D9CBU9gNHxc+1G/ms3r62edb77U+d1oy/W6pA0Y8Y4k2eJdhNwwnwfR3398L3V2Xcv8t+pfkeJRCr7OvAS0jeNKxdpa0kP8O0N3I30uuTRwKETxsldb1zq1Qe57bflTV1Dunt5OnAm6Tmkn5Nmk7yR9PDtOtLnd1vSLJz7zreDSOe+w6n/gO4q0vMtf1A57kyKrqCi4+d6Hnn5X8K4JmWpZU/S75SnsPgTy07+I01nV9JPaHOkQvwHpFk9nwEcTJnzzlaktzReTLpbV/M14RJ3ILsXPYDR8XO9jrz831s/5dHZnvS+78e47Vzmp0cmJc2AZ5DuuNX6lr4n8ALge9QrBFq+foSLHsDo+Lk+S17+L6if8qjtQLoz8HHgZcG5SJrebwP/TvoZIfpCP9brR7joAYyOn+sM8vL/nfopS1I1B5Oec4qaRXTM149w0QMYHT/XGvLyP6B+ypJU3X2B7xB/0R/T9SNc9ABGx891OXn5+467pF4sJ031fD3xF/8xXD/CRQ9gdPxcuZNtLDTHtSTNqv2Br2IBEC56AKPj58pddGPr+ilLUriVpEnQLAACRQ9gdPxcl5CX/271U5ak0fif3Pb135kpAJYPHUDhrs78+82tcCVJvfhX0oqqN0QnUpoFwOzLLQAOLpKFJLXrs8DDyT+fjooFwOz7RebfH1kkC0lq2zeBY5mhOwEWALPvx5l//+AiWUhS+74BPA64OTqRXkQ/RBEdP9eTyct/LT4IKEkbO5EZeAiwBdEDGB0/1xHk98FlLSXptmq8IjioSZZbHMNFTJIkLc2i13ifAZAkqUMWAJIkdcgCQJKkDlkASJLUIQsASZI6ZAEgSVKHLAAkSeqQBYAkSR2yAJAkqUMWAJIkdcgCQJKkDlkASJLUIQsASZI6ZAEgSVKHLAAkSZIkSZIkSZIkSZIkSZIkSZIkSZIkSZIkSQr0/wGFei1g6BfP/QAAAABJRU5ErkJggg==;" vertex="1" parent="1">
          <mxGeometry x="797.1" y="430.5" width="90" height="90" as="geometry" />
        </mxCell>
        <mxCell id="SQHfie_VFYTviweRCv75-7" value="" style="shape=image;verticalLabelPosition=bottom;labelBackgroundColor=default;verticalAlign=top;aspect=fixed;imageAspect=0;image=data:image/png,iVBORw0KGgoAAAANSUhEUgAAAgAAAAFXCAYAAADUG/YoAAAAAXNSR0IArs4c6QAAAARnQU1BAACxjwv8YQUAAAAJcEhZcwAAEfUAABH1ARq81csAABluSURBVHhe7d0JrG1VeQfwR5lBiwgyKyBKKzS2ilVwCIJDcIiKWhxom9Raa0KrbbVRa9tYG6u2qanW2MSaNg5UxRFwwBaNBo2ComhFq6CoKIMyKiCPsd+393nweG+/x7337HPvWnv9fsk/Z+0rvNLz9v7Wd/ew9joAAAAAAAAAYBK2mX3CgZEHRPbcJPeObBsB6nJr5OrIFZvkwsgPIjROA9Cm/Hs/LPKYjXLfCNCGn0TO2ijfjNweoSEagLbkb/kvivxBZN/8AUC4PPKfkbdHLsofMH0agOnL0/dPifxx5LjIr0QAhtwW+e/Iv0U+HsnLCEyUBmDajo/8c+Tgbgtg6fJMwMsiH+m2mBwNwDT9WuQtkSd2WwArl2cEXhL5TrfFZLi7e1ruEfn7yLsih+YPAOZ0SCQvIWZ9+VLkpggT4AzAdORBelok7+4HWIRvRZ4W+V63RdXcEDYNx0bOiZj8gUXKGpO1JmsOlXMJoH4nRU6O7NptASzWzpETI1dFvpw/oE4agLq9KZLX/J3JAVZT1pwnR3aLfCp/QH00APV69SwAa+WoyC2RXE2QymgA6vSCyJv7IcCayvsBLo58rduiGp4CqM9TI7kwx3bdFsDay7MAufDYx7otqqABqMuDI1+M7NJtAZTjhkheEvhGt0XxNAD1yN/4z448tNsCKM9XI4+I5BkBCucegHq8MvK7/RCgSPmW0fURNwVWwBmAOjwokjfY7NhtAZQrG4CHRL7dbVEsz4+XL/+O/iNi8gdqkLUqa5b5pXD+gsr33MiR/RCgClmzsnZRMJcAynduxI1/QG3yhsAj+iElcgagbMdETP5AjbJ2ZQ2jUBqAsr189glQIzWsYC4BlCvv/D8/4u8IqNXtkcMjnggokDMA5crX/Jr8gZplDctaRoFMMGXaPnJpZI9uC6BeV0ZygaCbuy2K4QxAmY6LmPyBKcha9qR+SEk0AGX6vdknwBRYxrxALgGUZ7fIZZGdui2A+t0Y2SdybbdFEZwBKM+zIyZ/YEqypmVtoyAagPI4/Q9MkdpWGJcAynK/yA8i/l6Aqck1AQ6K/KjbYs05A1CWEyMmf2CKsrZljaMQJpuy5Mp/h/VDgMn5ViRXBqQAzgCUI1+cYfIHpixrnBecFUIDUA7PyQItcDNgIVwCKMO2kR9H8jlZgCnLdU4OiNzabbFmnAEow+MjJn+gBVnrntAPWUsagDI4JQa0xCXPArgEsPZ2jVw++wRowQ2RvSPXdVusCWcA1t4zIyZ/oCW7RI7vh6wVDcDacyoMaJFLn2vMJYC1tW/k4kg+BVCL9ZHz+iFQkHy+fvt+WIXbIvk0wKXdFjTmLyK5PnZNOTkClOdDkaFjtuS8LAJN+lpk6KAoOcdFgPI8IzJ0zJacrIHQnFwPe+iAKDm5gEdNlyugJTtErowMHbsl5zcirAE3Aa6dGm+AeW/E6l1Qppsip/TDqrgZkKbkzZf5TuyhbrjkHBEByvWoyNCxW3LyRmi/jNKMYyJDB0LJydd4AuX7XmToGC45x0ZYZbqutVHjs//vmX0CZavxWLUeCk3YKXJtZKgLLjX5vO6BEaB8D4wMHcclJ2vizhFWkTMAq+9pkV/th9U4K/LDfggU7oLI2f2wGlkTszayijQAq6/GO17fPfsE6lDjZQBPAzBpe0ZujgydAis1N0buFQHqkbUmHwscOqZLTdbG+0RYJc4ArK7nRrbrh9U4PXJNPwQqcUXkU/2wGlkbs0bCJOV1uaHOt+Q8PQLU54TI0DFdcs6JwOTUeGdu/hZR09vFgDvV+MRR5tAIq8AlgNVT4w0uuaxoXpcD6pP373ywH1bFzYBMTo2rcx0VAer12MjQsV1yvh/J5dJhEmpcn/vCCFC3Wt878ugIC+YSwOqw9C+wFnIyPbkfVsXSwExCre/ofkAEqN/hkaFjvORcFcnaCVV7RmRoBy85X4wA0/HVyNCxXnKOj7BALgEsXo13tDr9D9NS43LengagarmEbj6KM9TdlppcPnSPCDAd+0RuiQwd86VmfWT3CAviDMBi5UpcO/bDapwRyXsWgOm4LHJmP6xG3gOQNZQF0QAsVo13snrzH0yTNwTCKjkocltk6NRWqcmX/uTyocD07Bq5LjJ07JecgyMsgDMAi3NipLbVrHLZ0LxnAZie6yMf7odVsSYA1fm/yFA3W3KOjgDT9cTI0LFfcr4TgWo8LDK0I5ecH0asvw3Ttm3kkshQDSg5D48wMpcAFqPGG1dyudA80IDpujXy3n5YFZcBqMJ2kcsjm3awpeewCDB9vxUZqgEl56eRrK1QtCdHhnbgknNuBGjH/0aGakHJeUqEEbkEMD5v/gNKZ00AGNk9IzdEhrrXUpPLg+YyoUA7Dojk/QBDNaHUZG391QgjcQZgXM+M7NwPq5HLg+YyoUA7fhz5XD+sRtbWZ/VDxqABGFeNp6gs/Qtt8oZAGMn+kdpOqeWyoLk8KNCePJ1e2yXLrLF5+YIROAMwnudHavs+c1nQXB4UaM/PI6f1w2pkjc1l1qEoX48MdawlJ5cFBdqVj9YN1YaSk48wQjEeHBnaUUtOLgeay4IC7crFdXKRnaEaUXJyMSPm5BLAOGq8MSWXA83raUC78jHg9/XDqlgamCJkE5WP1Ax1qSVHBw2kfNHOUI0oOc5gUoTHR4Z20JLzzQjABvnK3aFaUXLcwzQnlwDmV+OpKM/+AxurcWlglwFYU7tE8lGaoe601NwWuW8EYIODI1kbhmpGqbGOyZycAZjP0yO5/n9NPhu5uB8CdC6KfKEfViMn/2f0Q1ZCAzAfS/8CU+ENgbBEe0Vujgydmio1v4x4mxYwZPfI+shQ7Sg13mY6B2cAVu55kVxEoyanRvKeBYBNXR35eD+sRj4KmLUYVtWXI0Mdacl5agRgS46PDNWOknNuBFbNr0eGdsSSk8t91nbGAlhdO0SuigzVkJJzWIRlcglgZWp8/vT9kbxeBrAlN0VO6YdVcTPgCmwz+1yO+0RqffYyb3C5tB+uWH5n348c1G3V4xGRc/ohwBY9KvL5fliNH0WyJufZgHnsG9mxH1YnX+3+s344nlzs5mWRz0WuiGx66qW25E1wX4q8LrJnZLkeExn6c0tOLvMJsFT5S85QLSk5j40sV84BORfknFDbom5DyTk65+qcs3PuXrH8TffPI5dHhv4PTSG/iLw+snNkqd4eGfqzSs7fRACW6rWRoVpSct4RWaqs+Vn7cw4Y+rOmkJy7cw5f9pn+vBEkXxE59IdOMXm6K5+BvTt5aigflRn6M0rO/SMAS3VoZKiWlJxrIjtF7k7W+qz5Q3/GFJNzec7pS5KT3JmRoT9oyjk/kov7bM2zIkP/bsmp7VoeUIazI0M1peT8TmRrssZnrR/6d6ecnNOXdG/DqyJDf0ALeWdkaz4SGfr3Ss6LIwDL9SeRoZpSck6LbE3W+KF/r4Xk3L5V+0WmfE3k7pJvw8q75YfcO1LbMpn535v/3QDLlU981bbceT7GuKWbu7O21/bGwzGTc3vO8XfYdB2Al0Tu0Q+blDdLvLIfbuaEyJKvoxTiE5Fc1ANgufKRsjP6YTW2jzynH24mfwNeyaPvU5Fze87xW/T1yFDn0FKySxqa6PNVmUP/fMl5ZgRgpXIyHaotJScf6dtU1vSWz25vSM7xg/aPDP0LLeaYyMbyLvqhf67k5G/+tS5oAZQh76q/NjJUY0rOAyMbOzYy9M+1mJzrOxtfAjhu9sm6dU+afW5Q49K/H4jkPQAAK3Vj5IP9sCqb1mzz253u+C42bgA2nfRatunOUmMD8K7ZJ8A8/mv2WZMTZ58bmN/utNl3kW+Jy0UUhk4XtJoNp0nyztGh/73kfC8CMIb8RfHHkaFaU3IeGUkHRIb+91aTc333ZtgNZwDyi9qtHzKz4SxAjb/9nzz7BJhXPjpX41mADbXb6f+7yrm+a442NABOj2wud5p8pOS53VZd3jP7BBjDu2efNcknGPLuf/Pb5u7ynZwXGTpV0HLyNMnxm/yshuTynQBjq/Ex8WdHanyKYdHJOb+TayMP/QOybt2FAz8rPbl8J8DYXh4Zqjkl56KBn0mfvXJVpCMjX4xQv1si+0byndAAY8plZC+ObPz0GPU6Kv8i71gUgOrlsp0mf2ARLol8ph8yAftrAKalxht1gHqoMdOhAZiQn0fu7lWYAPP4cOSGfkjlNAATkst15rKdAItyXeSj/ZDKaQAmxLP/wGpQa6Zh/3wK4LuRTd+cRF3yztwDI/loB8AibRv5SWTvbotaXZBnAPLRDuqWy3Sa/IHVcGvkff2Qiu2XDUA+O07d3JkLrCY1p343ZwOQp3KoVy7peH4/BFgV50a+3Q+p1CUagPrpxIG14GbAuv1EA1C3vBb33n4IsKrytePuPaqXBqByn45c2g8BVtUPI2f1QyqkAaic0//AWlKD6qUBqNj1kY/0Q4A1kSuQru+HVEYDULGc/LMJAFgr10RO74dUpmsALohYC6A+7sAFSqAW1Sfn/G4lwHyL3BfzJ1TjssiZ/RBgTX0icmU/pBI55/88G4D0ydkndchH//IRQIC1dnPklH5IJbo5XwNQJ3feAiVRk+rSzfn5NsANn3kz4L7dFiX7VuTwfghQjAsjh/RDCpZrx+wfuX3DGYBczemMfkjhdNpAidwMWIec67sVHDc0AEkDUL78S8vlNwFKowGowx1z/YZLAOlekSsi23ZblOizkWP6IUBx8u7yI/shBcqbx/eM5PoNdzkDkD/4Uj+kUE7/AyVTo8qWc3w3+aeNG4B02uyT8twYyWU3AUr1/kg+FkiZtjrH3yOSTwPktWYpK3lgAZTu1MhQDZO1Tc7tOcffYdMzANdFXtkPKYwbbIAaqFVlyrk95/ityhsD/zUy1EHI2uRnke0jAKXbKZLXmYdqmaxNck7f+Kb/u/VXkaE/SFY/b40A1OIdkaFaJqufnMtX5NjIWZGhP1RWL4+IANTi6MhQLZPVS87dOYdv0VJPCTwu8rRILkH7oMiukRrtENm5H1YjX9d8aD8EqELOLT+I3K/bqscvIzf1w+pcH/l25PxI3u3/6chWLeuawAS8PfJH/bAa+apNz9YCtXlB5An9sBr/HnlRP5y+lhqAvDElH4O4d7cFAHd1VSRflJPrrkzepo8BTtF+kb+LXBQx+QOwJTlH5Fzx2sgB+YMpm/IZgPzLe2PkhMh2+QMAWKJcN/9Dkb+M/Ch/MDVTfPFPTvZ/Fsllc4+ItHCWA4Bx5dyRN77nPQF5Y+A5kdsikzG1MwB5x+lHIw/ptgBgHF+LPCMymbMBU2oAfjuSjz7s020BwLgui+Qj8V/utio3ldPj+ReS78o3+QOwKDnH5FyTc071pnAG4KjIZyL5mB8ALNr6SC6Q94Vuq1K1NwAHR86O3KfbAoDVcWUkfwHN1VqrVHMDkL/xnxs5rNsCgNWVk3/edJ7L8Fan5scAXxN5Vj8EgFW3RyRf1f4/3VZlaj0DkL/1nxfxjnwA1tItkTwL8M1uqyK1PgXwtojJH4C1lovPvbUf1qXGMwD5bvwv9UMAKMKRkbwpvRo1ngF4yewTAEpR3dxU2xmAXIQhl2F0+h+AktwcyeXoc7XAKtR2BiDv+jf5A1CanJuqejKttgbg6NknAJSmqjmqtksAeWpl734IAEW5PFLNO2lqOgNwaMTkD0Cpco7KuaoKNTUAue4/AJSsmrmqpgZgz9knAJSqmrmqpgbAG/8AKF01c1VNDUC+dAEASlbNXFVTA+D5fwBKV81cVVMDAACMRAMAAA3SAABAgzQAANAgDQAANEgDAAAN0gAAQIM0AADQIA3A2vhe5E2R50fy/dGHRHaO5OuZa86OkXwRxqMjz4m8PvKtCLB8eezkMZTHUh5TB0V2iAwdezUla13WvKx9WQOzFmZNhC16Q+T2inNN5DWRwyOteUDkFZFLI0PfjYj0uSySx0oeM63J2pg18urI0HdTS3KuYmS1NgDrI/8S8S6Ddet2jfx15NrI0Hcl0mqui+Tkd49I63aP/FPkl5Gh76r0aAAWoMYG4LzIAyPcVb4u81ORoe9MpLV8JrJPhLs6MPKVyNB3VnKqaQDcA7A4H4g8MnJBt8XGrog8OfKWbgva9bbIEyN56p+7+mHkMZH3dVuMTgOwGK+LnBC5odtiyK2Rl0b+tNuC9uS+f1Lklm6LIXkZ4HmRrKmMTAMwvpMjeZ2bpXlr5B/7ITQj9/nc91marKlZWxmRBmBcX468sB+yDK+KnN4PYfJyX899nuXJ2po1lpFoAMZzfeSZkRu7LZbjtsiJkZ90WzBduY/nvp77PMuTtTVrbNZaRqABGE8uZvHjfsgK/CLyt/0QJiv38dzXWZmssVlrGYEGYBw/i+Rzq8znnZHz+yFMTu7buY8zn6y1WXOZkwZgHPncp65+fvlkgLMATFXu27mPM5+stRbbGYEGYBynzD6Z38cjuSoaTEnu07lvMw41dwQagPnlSlWu/Y8nl04+ox/CZOQ+nfs248iam7WXOWgA5nfq7JPx+E6ZGvv0+Hync9IAzO/s2Sfj8Z0yNfbp8flO56QBmN8ls0/G4ztlauzT4/OdzkkDML98xz3jyoU+PFXBVOS+bPGa8am9c9IAzOemyFX9kJE5uJkK+/JiZO3NGswKaQDms+0sjG+H2SfUzr68GOrvnDQA88mdb69+yMj2nX1C7ezLi5G1VwMwBw3A/Bzc47t3ZMd+CNXLfTn3acal9s5JAzC/+84+GY/vlKmxT4/PdzonDcD8Hjf7ZDy+U6bGPj0+3+mcNADze9rsk/H4Tpka+/T4fKdz0gDM78DIb/ZDRrBH5NH9ECYj9+nctxlH1tysvcxBAzCOF8w+md/vR9zZy9TkPp37NuNQc0egARjHiyP374fMYbfIq/shTE7u27mPM5+stVlzmZMGYBy50Mc/9EPm8KqI06RMVe7buY8zn6y1FlcagQZgPCdEju2HrMBhkZf2Q5is3MdzX2dlssZmrWUEGoDxbBN5f8SNKcuXi6ScFtmp24Lpyn0893ULAy1f1tassVlrGYEGYFx7Rk6N7NJtsRTbRU6JHNJtwfTlvp77fO77LE3W1KytWWMZiQZgfPl4ykcj9+q22JqdI++JWNCD1uQ+n/t+HgNsXdbSrKketx6ZBmAxnhA5J/Kgbosh+0fOijyn24L25L6fx0AeCwzLGpq1NGsqI9MALM4DI2dH8tlf16zu6qmRr0SO6LagXXkM5LGQxwR3ypqZtTNraNZSFkADsFj3jLwzcm7Eae516x4e+Wzk9Mg++QOgOxbymMhjI4+R1mWtzJqZtTNrKAuiAVgdD4mcGckD/KRIS2+x2jvywsgnI9nNHx0BNpfHRh4jeazkMZPHTiuyJmZtzBqZtTJrJgtW06npN0Re0Q8n4auR7HIv3SjrIzXbPpK/zewXyXd1PzjyiIhGE5bvtkg2BN+IXBLJGnFZ5OZIzXaMZH3YkLwM8tDIVLwx8sp+WDYNAACMp5oGwG9mANAgDQAANEgDAAAN0gAAQIM0AADQIA0AADRIAwAADdIAAECDNAAA0CANAAA0SAMAAA3SAABAgzQAANAgDQAANEgDAAAN0gAAQIM0AADQIA0AADRIAwAADdIAAECDNAAA0CANAAA0SAMAAA3SAABAgzQAANAgDQAANEgDAAAN0gAAQIM0AADQIA0AADRIAwAADdIAAECDNAAA0CANAAA0SAMAAA3SAABAgzQAANAgDQAANEgDAAAN0gAAQIM0AADQIA0AADRIAwAADdIAAECDNAAA0CANAAA0SAMAAA3SAABAgzQAANAgDQAANEgDAAAN0gAAQIM0AADQIA0AADRIA9CWN0e2ERHZQrJG0AgNAAA0SAMAAA3SAABAgzQAANAgDQAANEgDAAAN0gAAQIM0AADQIA0AADRIAwAADdIAAECDNAAA0CANAAA0SAMAAA3SAABAgzQAANAgDQAANEgDAAAN0gAAQIM0AADQIA0AADRIAwAADdIAAECDNAAA0CANAAA0SAMAAA3SAABAgzQAANAgDQAANEgDAAAN0gAAQIM0AADQIA0AADRIAwAADdIAAECDNAAA0CANAAA0SAMAAA3SAABAgzQAANAgDQAANEgDAAAN0gAAQIM0AADQIA0AADRIAwAADdIAAECDNAAA0CANAAA0SAMAAA3SAABAgzQAANAgDQAANEgDAAAN0gAAQINqagCumH2ycr5DYGvUiPlV8x3W1ACcO/tk5XyHwNaoEfOr5jvcZvZZg90iV0dq+m8uzV6Rn/VDgM3cJ/LTfsgK3B7ZPXJtt1W4ms4A5Bd6QT9kBS6OmPyBrckakbWClck5qorJP9V2E+DnZ58s31mzT4CtUStWzhy1QPtFrorkaRZZerIjvV8E4O5krciaMVRLZMvJuSnnKBboxMjQly9bzh9GAJYqa8ZQLZEtJ+cmVsGHI0N/AbJ5PhEBWK6sHUM1RTZPzkmskj0jZ0SG/iLkznw6sncEYLmydmQNGaotcmdyLso5iVX2osjPI0N/KS3nushJEY9MAvPIGpK1JGvKUK1pOTn35BzEGjoo8tGIm1bWrftF5GORQyIAY8makrUla8xQ7WkpOdfknJNzT9Wm9Bti/v9yaOSIyMMirdyNeWkkV576SuS7kdsiAIuQj45nnc0am7V230gLLolkjc1am3U2GwEAgNqsW/f/KeKyEK4NSUoAAAAASUVORK5CYII=;" vertex="1" parent="1">
          <mxGeometry x="864.9200000000001" y="540" width="134.35" height="90" as="geometry" />
        </mxCell>
        <mxCell id="SQHfie_VFYTviweRCv75-9" value="" style="shape=image;verticalLabelPosition=bottom;labelBackgroundColor=default;verticalAlign=top;aspect=fixed;imageAspect=0;image=data:image/png,iVBORw0KGgoAAAANSUhEUgAAAgAAAAIACAYAAAD0eNT6AAAABHNCSVQICAgIfAhkiAAAAAlwSFlzAAAN1wAADdcBQiibeAAAABl0RVh0U29mdHdhcmUAd3d3Lmlua3NjYXBlLm9yZ5vuPBoAACAASURBVHic7d13uCRVnf/x9/cyCIiDCgoMsoIiIDkNUVBBWXFRBPMaUWFFf7rmCKYVA7gq67omDChmcSWIwqIIgkgYQEWJooDIqASVIAMM8/39UTU44NyZ212nu7q73q/n6WfcnXtOfy53+p5PV1fVicxE6kdE7AHsC2wHbAFcBZwH/Aj4So7pP66ImAW8BNiN6ntbF/g5MA84JjPPajFeIxExBzgQmFs/oPq+5gFHZub8trI1FRG7AM+k+r62Aq4FzgfOAL6QmQtbjNe3iAjg+cDuwPbA+sBFVN/bsZl5anvpNM5iTH9Hq0URMRv4MNVCMp0fAS/NzKuGEqqQiNgM+CLVwr80i4AjgIMzc8HQghUQEf8KfBxYfZovuQl4VWZ+bXipmouIlYH3Aa8Fpqb5svOBF2fmr4YWrICIWB/4PNXiP50jgTdk5i3DyKTJYQFQTyLiAVTvFjeewZffAuyYmZcMNlUZ9TvIU4GVZvDlZwO7jcu7yoh4L3DIDL/80Mx8xyDzlFIfrTkD2GkGX34HsMe4HMGJiE2Ac4DZM/jyy4C5mXnrYFNpkkzXlqXp/CczW/yh+sX1pfqX9EiLiFWAo5jZ4g/VgjPTBbVVEbEj8LYehrytHjMODmFmiz9UP9uj6p/1SKtfM19iZos/VK/J/xxcIk0iC4BmLCIeC7y8x2FzgdcNIE5phwAb9jjm4Ppd2qj7PLBCD1+/Qj1mpNX/7Q/ucdiGjEdxex1/P0djpl5ev0alGbEAqBd79TnuyUVTDEY/GWcBe5YOUlJEPBzYtI+hm9ZjR9meVD+DXk3qv0fo/zWqDrIAqBe9viNZbLv6TOaRFBErAZv3Obzf/ybD0iTfpH5vm9c/85FUv1amOwl1eUb9Z6YRYgFQL7bsc9xqwHolgxS2CbBin2P7/W8yLE3yTer3tiLVz3xUrUf1munHqP/MNEIsAOrFyi2NHbRJ/b7A720QYwdtUr8vjRgLgCRJHWQBkCSpgywAkiR1kAVAkqQOsgBIktRBFgBJkjrIAiBJUgdZACRJ6iALgCRJHWQBkCSpgywAkiR1kAVAkqQOsgBIktRBFgBJkjrIAiBJUgdZACRJ6iALgCRJHWQBkCSpgywAkiR1kAVAkqQOsgBIktRBFgBJkjrIAiBJUgdZACRJ6iALgCRJHWQBkCSpgywAkiR1kAVAkqQOsgBIktRBFgBJkjrIAiBJUgdZACRJ6iALgCRJHWQBkCSpgywAkiR1kAVAkqQOsgBIktRBFgBJkjrIAiBJUgdZACRJ6iALgCRJHWQBkCSpgywAkiR1kAVAkqQOsgBIktRBFgBJkjrIAiBJUgdFZradYeJExIOBfwIevsSfDwdWBy4G5gE/zszfDzjD44C5wNbAAwpMuyuwQp9jzwP+ViDDIKwGbNPn2NuBcwtmKe2RVP8G+/E74DcFs5S2A7BKn2MvBG4umKWk+wPb9zn2buDMglmG7VZgPnDdEn9eB8wf5O/LrrIAFBARKwCPB54J7AusPYNhtwMHA/+VmYsK53k68CngoSXnlaQW/Q44DjgWOD0zF7acZ+xZAPoUESsCT+Dvi/4afU51GrBXZt5RKNcngYNKzCVJI+rPwIlUZeCkzLyt5TxjyQLQo3rhfyVwCPCQQtN+ODPf2HSSiHgBcHSBPJI0Lm4A3gt8MjPvajvMOLEA9KA+tH4Y8KjCUy8CHp+ZZ/Q7QUSsA/wKeFCxVJI0Pq4E3g58K13YZsSrAGYgInaIiDOAb1N+8Yfq5/C8hnM8DRd/Sd21AfAN4JyIeFzbYcaBBWAZImLF+jP1s6nOgB+kHRuOn1skhSSNt+2B0yLiU/VHtpqGHwFMIyJWp3rH//ghPeVCYJV+z2yNiAvo/1I2SZpEPwaekZk3tB1kFHkEYCkiYiPgHIa3+APc2PCyFv+BS9K9PRY4LyK2bDvIKLIA3EdE7EF1yH8Qn/Uvy4UNx59fJIUkTZb1gbMiYr+2g4waC8ASIuK5wMnAg1t4+rMajv9pkRSSNHlWBb4dES9tO8go8RyAWkTsQPV50UotPP01wGaZeWu/E0REAKcy3I8tJGmc3Ak8ITPH+XbJxVgAgIiYQ3V//nVaivDkzDyp6SQRsT5wEWXu+y9Jk+hPwPaZeU3bQdrW+Y8AImIl4H9pZ/G/CXhOicUfIDOvAvYCfl1iPkmaQGsCx0fEqm0HaVvnCwDVpjk7Dfk5/wR8HdgiM79ZcuLM/AmwFfAR4OqSc0vShNgK+GL90WlndfojgIh4OVUBGJRrgZ8BV9WP3wIX1O/UhyIiHkK57YAlaZBWBR5WP9alenM2yKOzr8nMjw1w/pHW2QIQEatR3Tu61IY+i10JHEP1scJ53pNakvpTv0OfC+wDPAvYuPBT3ARskJl/KTzvWOjyRwBvouzifx3wEmCjzHxrZp7r4i9J/cvKeZn5DmBTqt+x1xZ8itWBtxWcb6x08ghARKxNdaJciZNAFgKHAh/KzL8VmE+SNI2IWAV4A/AuYFaBKRdQvXH7XYG5xkpXjwC8kzKL/5+BJ2Xme1z8JWnwMvP2zDwU+GfgxgJTrkz1Jq5zOncEICI2BC6meXO8AnhKZl7ePJUkqVcR8UjgeGCzhlMtArbNzJ83TzU+ungE4E00X/yvAx7n4i9J7cnM3wBPoPl5AVPA65onGi+dOgIQEVPAfKobQfTrDuCxmXlumVSSpCYiYlvgTGCVBtPcCKyVmXeXSTX6unYEYCeaLf4AB7n4S9LoyMwLgKYb/awB7FYgztjoWgHYt+H4UzPzqBJBJEnlZObXgVMaTtN0jRgrXfsI4DJgoz6HJ7BDZs4rGEmSVEhEbA2cT/9vbq/KzEcUjDTSOnMEICI2of/FH+BbLv6SNLoy82fAlxtMsX5dIjqhMwUA2Lvh+P8qkkKSNEj/03D8k4ukGANdKgAbNBj7J+DsUkEkSQNzHtXVXv1av1COkdelAtBkR6kTMnNRsSSSpIGo92A5ocEUg9x9cKRYAGbme8VSSJIG7fsNxloAJlCTH+pviqWQJA3abxuMnVMsxYjrRAGIiBWAtRpMcV2pLJKkgWtyDsBa9Zox8TpRAKgW/35/oAuBGwpmkSQN1vVUv7v7MUWzN4xjoysF4CENxt7kCYCSND7qEwFvajBFkzVjbHSlADT5Prtzq0RJmhxNfnd3Ym3sxDcpSZLuzQIgSVIHWQAkSeogC4AkSR1kAZAkqYMsAJIkdZAFQJKkDrIASJLUQRYASZI6yAIgSVIHWQAkSeogC4AkSR1kAZAkqYMsAJIkdZAFQJKkDrIASJLUQRYASZI6yAIgSVIHWQAkSeogC4AkSR1kAZAkqYMsAJIkdZAFQJKkDrIASJLUQRYASZI6yAIgSVIHWQAkSeogC4AkSR1kAZAkqYMsAJIkdZAFQJKkDrIASJLUQRYASZI6yAIgSVIHWQAkSeogC4AkSR00q+0AmhwRMQXsAmwLPAxYp/5zDrBKi9GkcXM7MB/4PXBd/ecFwFmZuajNYJocFgA1EhErA08E9gX2AR7abiJpYjx6Kf+/6yPiBOBY4JTMXDDkTJogfgSgvkTEyhHxJqp3JycAL8PFXxq0hwIvBY4HrouIN9UlXOqZBUA9iYipiNgfuBw4HHhwu4mkznow1Wvw8ojYv/4ITpox/8FoxiLiEcA84AvAP7UcR1Lln6hek/Pq16g0IxYAzUhEPA44D9im7SySlmob4Lz6tSotlwVAyxURLwdOAdZoO4ukZVoDOKV+zUrLZAHQMkXEW4FPASu2nUXSjKwIfKp+7UrTsgBoWhGxH/D+tnNI6sv769ewtFQWAC1VRGwNHA1E21kk9SWAo+vXsvQPLAD6BxHxUKrrjFdtO4ukRlYFjq9f09K9/MOdACPiscBewFxgS2ASbjKxQtsBxsx78TI/aVL8E9Vr+qC2g4yRMyLi7rZDFLAA+AXV5dsnZeaPl/zLyMzqf0Q8APhPwLNH7+2Pmbl22yGGJSI2Bn6Jt4mWJslCYPPMvKztIMMSEX8A1mo7x4j5NPDGzLwV6o8AImI2VUNw8df7cfGXJs0sPKFX1Ro/r17z7zkH4MPAxq1F0kiIiJ2Ap7edQ9JAPL1+javbNqZa85kVEXsAB7abZ6Rl2wGG6ICCc10NnEu1hemFwF8Lzi0ty2OBw/oceyHwyoJZ+vVAqjv7bQvsAKxXaN4DgLMLzaXxdWBEfH0W1Tauml4nLoOrNxJ5aoGp/ga8DfjvXHyCiTREEdHknJ2bM3NUFsiTASIigFcDHwDu33DOp0bEVGYuahpOY2/fKWC7tlNoJOwMrNlwjrOBrTPzYy7+UhlZ+RiwNc3fva9J9VqXtpsCtmg7hUbC0xqOnw/8S2ZeUSKMpHurX1v/QvVaa6Lpa12TYYsp4Kq2U2gk7Nlw/EGZ+eciSSQtVf0aa3o9f9PXuibDVVNUW7xK6zYY+83MPL5YEknTql9r32wwRZPXuibHebOAHwEvbTvJCJv4z7IjYkWabfX77VJZJkVEPAjYCZhD9bnrQ5f4cwFw3RKP+fWfl2fmglYCa9x8G3h2n2PXiIgVM/OukoE0dn40C/gKVQHYveUwo6oLVwGsTbPvc16pIOMqIlYAtgeeBPwzsCO934L6tog4GTgW+K4fqWgZmrzmguo1/7tCWTR+fgR8ZVZmZkS8lOp+wbNbDqV2zGkw9qbM/E2xJGMmItYBXk9Voh/ccLpVqW7E9HRgYUT8mKoMfDEzb244tyZIZv4mIm4CVu9zijlYALrqFuClmZlTAJl5FdU7ls6/k+uoJgvXr4ulGCMRsWFEHAn8FngDzRf/+5oF7AF8DLgyIl4TEfcr/Bwab01ee6X/vWo8zAN2rNf8v28HnJmXUF0f+maqwwO+4+iOJof/J/4ciSVFxJoR8TXgUqq7qg1jUX4IcARwWUS8oL4xjNTktee/oe64mWpNfzOwc73WA/fZ9CUzFwIfAj5U/5JZj8nYDvjRwHfaDqHxFhFPBT5L8xsm9Wt94GjgjRHxb5l5bks5pEm3H1XJH3cLgKunuzHbtLu+1QOuGlCooYqISSgxaklErAp8BPi3trPUtgJ+HBEHZubRbYeRJtBVmTkJBWCZppb/JVJ3RcSGVBvEjMriv9hKwJci4vB6HwdJ6om/OKRpRMSjgdOBDdvOsgxvAo6PiNXaDiJpvFgApKWIiM2pFv8ml0gOy97ATyLigW0HkTQ+LADSfUTE1lRnzbZ1sl8/Nge+Xt+QSJKWywIgLSEi1qTah/0hbWfpw17AYW2HkDQeLADSvR3FeL3zv683RMSL2w4hafRZAKRaRPw78OS2cxTw6YjYue0QkkabBUACImIL4PC2cxSyEvA5zweQtCzT3ghI6or6rpdfpFo4S7sVOIXqvu3zgT/UzzOnfmxHtW1w6TK+CdUGRUcWnlfShLAASPA0YJuC8yXwLeBLwA8y845lfXFErAXsA7wS2LpgjndHxFcy828F55Q0IfwIQIJDCs51KrB9Zj4nM09c3uIPkJl/zMwjgW2BFwHXFMqyDvDaQnNJmjAWAHVaRDyZ6jB8UwuBV2bmEzLz/H4myMrRVIfvv1UgE8BbImKNQnNJmiAWAHVdiXf/NwBPzMxPFpiLzPxbZj4beAfNt1teDXh581SSJo0FQJ0VEVsCuzSc5m/AP2fm6QUi3UtmHgq8rcBU+xWYQ9KEsQCoy/6l4fgE9s/MC0uEWeoTZB4GfLnhNNtFxLol8kiaHBYAddneDcf/d2aW+qx+WQ4ALm8wPqiuMpCke1gA1EkR8WCgyd3y/gr8R6E4y1RfSfD2htPsWyKLpMlhAVBXPQlocqe8wzLzxlJhliczvw2c02CKx7tdsKQleSMgNbVpRJzWdog+PKLB2LuAT5QK0oOPAV/pc+yKwJbAGeXiSBpnFgA1NRt4XNshhuxHmfnXFp73ROBO4H59jl+nYBZJY86PAKTefaeNJ61Lx48aTDGnVBZJ488CIPXuvDF9bo8ASLqHBUDq3fwxfW6PAEi6hwVA6s0i4E8tPn+TAuARAEn3sABIvbkzMxe2+Py3Nxi7arEUksaeBUDqzcotX0//sAZjbyiWQtLYswBIvWvzs/QmBaDNjy4kjRgLgNS7R7b43Bs0GGsBkHQPC4DUu6abCPUlIoLqFsb9sgBIuocFQOrdvvViPGw7AGs1GP+HUkEkjT8LgNS7dYDHt/C8z204/qwiKSRNBAuA1J/3DfPJImI94BUNprg8M68qFEfSBLAASP3ZOSL2G+LzfQBYqcH4k0sFkTQZ3A1QTV0OvKXtEH16A7Brg/FHRMRZmfnHUoGWpi4aTQ//WwAk3YsFQE39OTOPbTtEPyJiJZoVgIcDx0bE7pm5oFCse4mILYGjgSYnHd4JnFYkkKSJ4UcA6rLjgL80nGMn4Mt1mSgqIh4FHE/zW/h+LTNvKxBJ0gSxAKiz6nft/1lgqmcAp0XE2gXmAiAi9gTOBdZrOFUChzVPJGnSTPsRQP2OZhNg5eHFGZgN2w6gkfVR4JU03ylvJ+C8iPh/mXl8v5NExKrAm4GDgRUaZgI4LjMvKTCP1CVbRMQkrH0LgEsy846l/eW9CkBErAIcAjwZ2BxYceDxpBZl5t8i4p3AZwtMty5wXEScCbwtM8+c6cCIuB/wYuA9lN1r4IMF55K64kttByjoroj4JfB94NDMvGdH0XsKQETsAhyF75bVPUcBrwM2KzTfrsAZEXE11Wf4JwKXAddl5p0AETGbqjBsB+wD7AXMLvT8i/0gM88pPKek8bIisE39eFZE7J+ZZ0FdACJiM+BUml1nLI2lzLw7It5MtVCXtB7w6voBkBFxA9XHaqUX+/u6FThowM8habxsCJwaEdtl5q+mImIW8EVc/NVhmfk94IcDfpoAHsrgF3+A12fmlUN4HknjZSXgixExawp4CdVhSC1dth1AQ/MiYKA39RmSEzLzyLZDSBpZ2wEvmQJ2azvJiGtj1ze1IDOvA54DLGw7SwPXAwe0HULSyNttCt/9S/fIzNOBt7ado083A0/NzD+1HUTSyNtuiupMZEm1zPww8F9t5+jRLcBenvUvaYbWnQJ+3nYKadRk5muB/2g7xwwtXvx/2nYQSWPj51PAvLZTSKMoM98FvJ7RPhH0L8CTF1/XK0kzNG8KOAZY1HaSETbKv/w1YJn5UWB/quvqR82ZwFaZ+ZO2g0gaK4uAY6bqdw5HtJ1mhHkVQMdl5peALRj8fQJm6m7g3cDjM/OalrNIGj9HZOZZi3cDPBg4u8000ijLzKuAPanurndLi1GuBB6Xme/JzLtbzCFpPJ1NteZX2wHX26LuRrURyThfAy0NTFY+TbVR1peBpe6wNSBXAi8FHu0hf0l9WEi1xu9Wr/l/3wwoMxcC746Ib1C905kLbMlkbAe8ErB+2yE0GerD7i+MiNcDLwNezuD+fV0OvA/4iu/4paG5iuEW/EFZAPyC6mT/U+67Nfis+351/QUTtX94RGwNXNh2Dk2WzLwe+GBEHE61hfYbgN0LTP0rqq07vw+c7sIvDd1+mfmztkMM2j8UAEm9ycxFwIkRcRv9F4AbgLcDJ2Xm74qFk6RpWACk0fB7N/CRNExTy/8SSZI0aSwAkiR1kAVAkqQOsgBIktRBFgBJkjrIAiBJUgdZACRJ6iALgCRJHWQBkCSpgywAkibNCi2NlcaKtwKWNPYiYiPgKfVj1wZT7RoRvwaOrR9n1Xs9SBPHAiBpLEXE2sCrgOcAjyo49QZUOzu+AfhTRJwAHJOZJxV8Dql1fgQgaaxExCYR8VmqPdsPpuzif19rAi8Dvh8R50fE3gN8LmmoLACSxkK98J8A/IpqUV5pyBG2Bb4bEWdHxJOG/NxScRYASSMtImZFxNuBC6k+44+WI+0InBQRZ0bEpi1nkfpmAZA0siJia+Bc4H0M/x3/8jwGOC8iDmg7iNQPC4CkkRQRrwfOA7ZpO8sy3B84MiK+HhGrtR1G6oUFQNJIiYgVIuITwIcZnyuVngP8LCJ2aDuINFMWAEkjIyJmAycAr2g7Sx8eAZweEU9oO4g0ExYASSMhIh4KnAE8ue0sDawMHB8RTW5GJA2FBUBS6yJiFeB4YKu2sxRwf+B7fhygUWcBkNSqiJgCjgZ2ajtLQbOpLhXcuu0g0nQsAJLa9iHgGW2HGIAHAyfXtyyWRo4FQFJrImJ/4PVt5xigNYEj2w4hLc24XGIjacJExBzgowN8ikXA2fVjfv24DrgdWBuYUz82BPYCHjSgHE+JiAMy87MDml/qiwVAUls+TvlFN4GTge8Ax2XmH2cyKCJWBB4P7Ac8C3hI4VwfiYgfZuZvC88r9c2PACQNXUTsBzy98LQ/ALbLzCdn5mdmuvgDZOZdmXlKZr4SeCTwXuC2gtlmA1+sT3iURoL/GCUNVX2zn/8pOOUlwJMyc8/MvLDpZJl5S2a+k+qjgc81Tvd3uwEvKjif1IgFQNKw/RvVZ+8lHA/skJn/V2i+e2Tm/Mw8gGrRvqPQtG+KiLZ3M5QAC4CkIao/a39toek+AOybmbcWmm+pMvNo4HHAHwpMtynVlsZS6ywAkobpX4F1C8zzmsx8e2ZmgbmWKzPPobpRUYkS8JYCc0iNWQAkDdObCsxxZGZ+rMA8PcnMq6muEmj6ccBjImKXApGkRiwAkoYiIh4LbN5wmjOBVxWI05fMPBs4sMBUbygwh9SIBUDSsOzTcPzNwDMz884SYfpVnxPQ9OqAJ0XE/UrkkfplAZA0LHs3HH9YL9f2D9g7aHafgFWZrM2PNIYsAJIGLiI2AB7dYIrrGOxtg3uSmfOBjzSc5oklskj9WuqtgCPi4cBcYEtg5aEmGow12w4gdVzTS9/elZm3F0lSzoeAV9D/bYOfCLyzXBwV9O8R8ae2QxSwAPgFMC8zr7nvX96rAETEjsDnqa5VlTQ8j4qI09oOMUAbNxh7O/DVUkFKycxbIuIY4KA+p9g+IlbLzJtL5lIRL2k7QGkRcTHw0vqSVmCJAhAR7wXeBqzQQjap61alutmM/tEPMvNvbYeYxnH0XwBmAbsAJ5WLI01rU+AnEfGBzHwH1OcARMS/Aofg4i9p9BzXdoBlOBW4pcH4h5cKIs3ACsAh9ZrPVL0n98fbzSRJ0/pu2wGmU1+SeEqDKdYqlUXqwccjYs4U1U0tVm87zQgbyq1GJS3VLSN06d90rmgw1gKgNqwOHDhFdba/pufOXVJ75rcdYAZ+32CsBUBtmWsBkDTKLADSYMz1RkBSOYvaDjCBSuy+N2jXNRjrPUrUmilgXtshpAnx67YDTKD7tx1gBlZtMLbJ7YSlJuZZAJbPkwA1I5l5HePxjnWczGk7wAw8rMHYcfiIQ5Np3hRwJHBT20lGmCcBqhc/bTvAhJn0AtDk4wOpXzcBR07Vm1q0tr+2NGEOAe5oO8QEWSsiRv1cJQuAxs2rMnP+FEBmfg04FLi73UzSeMvMi4H3tJ1jgsxi9K9UarKtrx8BaJjuBg6t1/y/bwdc3xv4McDFLQWTJsXhwLuBu1rOMSn2bTvAdCJiXWC7BlN4BEDDcjHwmMX7AMB9dgOsdwnabEK3A5643Z00mjLzbuA9EfEdqi1jdwZmt5tqrD0NeHvbIaaxT8PxFoDR9AWgW9sBL1Z/4TXA/w4223BExNZYADRkmfkL4EkREcBG9aONDbcOBTbrc+wHgXOW+1XLtz/VQt6PTSNio8y8vECO0vZrMPY24Felgqioj2Xmz9oOMWhLLQCSysnMBC6rH0MXEa9tMPyczDy2QIY76b8AQHUEYP+mOUqKiO2BJzSY4uTMXFAqj9SrUT+7VtJkOJVmN715YURsWSpMIYfT7DLhxsVKasICIGng6ne6JzeYYgo4rFCcxiJib+DxDaZYyAhvc6xusABIGpbjG47fKyKeXSRJAxGxGvCRhtOcnpl/LpFH6pcFQNKwnEjze418oT6ptxX1TYm+SnVCZxMe/lfrLACShiIzbwBOaDjN/YFjI+KhBSL1433A3g3nuBsLgEaABUDSML2b5htsrQecMOwSEBGvAd5aYKovZOa1BeaRGrEASBqazPw5Ze4vsiNwbkRsXmCuZYqI+0XEZ4EjCkz3N+BdBeaRGrMASBq2d1Nmm+31gbMiound+KYVEXOoLmF8WaEpj6i3jZZaZwGQNFSZ+UvgW4Wmmw0cFxHHR8SmheYkIlaNiHdS3bzpMYWmvZHq3gHSSLAASGrDu6juU17KU4FfRMSREbFhv5NExOyIOAj4NdWujiX3cDg0M/9acD6pEQuApKHLzEuB1xeedgXgAODyiLg4Ij4YETtHxIrLGhQRa0XEgRFxInA98Elg7cLZrgQ+UXhOqRH3AlDnRMQqwMOAOcA6SzxmA3+k2qP9uvoxH/hDvcOfCsrMT0bE7sCzBjD9JvXjLUBGxJ+A31P9TG+jWuDn1I9B79R4K/D0zLxzwM8j9cQCoE6IiEdQbUbzNGA3etuV7y/1u8NjgZMy89YBROyqA4BtgQ0G+BwBrFU/th3g8yxNAi+sd4aURooFQBOrXvT3B/YFmmwk8yDg+fVjQUT8kOpStq9k5h1Nc3ZZZt4cEc8BzgLu13aeATikxG6K0iB4DoAmTkQ8JCKOAC4F3kmzxf++Vqa6E9zngMsi4gUR0WRHuM7LzPOpjgQsajtLYV/NzPe3HUKajgVAEyMiVomIt1OdcPUaBv+Ocj3gaOCCiNhzwM810TLzaKojLAvbzlLIuZS7d4A0EBYATYSI+BeqS7feB6w25KffGvi/iDgpItYa8nNPjMz8OtUJgeN+stwPgL3qLZClkWUB0NiLiDdSbTKzTstRnkR1e9rWdqsbd/Xn5ftS9h4Bw/QxqsXfrX418iwAGlsRsVJEHAV8iNH5t/xw4MyIeHrbQcZVZn4f2Ivqkr1xcSdwQGa+xktGNS5G5Zem1JP6UPuPgBe3nWUpVgWOiYh3tB1kXGXm6cDmwNfbeZVOYgAAFcNJREFUzjID1wNPyMzPtR1E6oUFQGMnImYDPwR2bjvLMgTwHxHxnraDjKvM/HNm/ivwXOCmtvNM41hgbmae2XYQqVcWAI2ViJgCvgps1naWGXpnRDy77RDjLDO/QXU04IS2syzhLOAxmblfZl7TdhipHxYAjZsPAE9pO0SPjoqI7doOMc4yc35m7gNsDxxDe/cMuAzYLzMfk5lntZRBKsICoLERES8E3tx2jj6sQrVl7Zy2g4y7zJyXmc8CHg18BhjWnRh/BhwEbO6d/TQpLAAaCxGxCXBk2zkaeBjwtbZDTIrMvCIzXw6sD7wO+B7VJj+l3A2cDrwWeERmbpOZn87MSblRkeReABobHwBWajtEQ4+LiH19B1lOZv4BOAI4IiLuR3Vi6J71YzOqKzKWZxHVmfzzqW4mdSJwQmbeOJDQ0oiwAGjkRcSuVLv4lXYXcA7wW+Ba4K9U28OuC2xKtZ1saR+MiO/6TrK8ervd0+vHIXDP1s9r1o+H1n+uBPyBe2/37M9DnWMB0Dg4vPB83wOOAk7OzJun+6KI2AB4KvBq4JGFnntjqnvEf7rQfFqGzLwduLp+SFqC5wBopNV31Ct1vf/5wO6ZuXdmfmtZiz9AZl6ZmUdQHQl4HVDq9q7vjoiZHJqWpIGxAGjUvbPQPB8HdsrM03odmJl31kVgG+DnBbKsDRxYYB5J6psFQCMrIh4FbNVwmgQOysxXN/2cNzOvBh4DfLdhJoBnFJhDkvpmAdAoK3Hi37szs9jn7Zl5G/Bsqo8TmtglItYsEEmS+mIB0Cjbt+H4Y4D3lgiypPrEsn2BPzWYZorqBENJaoUFQCMpIh4K7NJgiluBV2VmFop0L5l5LXBww2kGcWmjJM2IBUCj6ik0+/d5eGb+sVSYaXwBuLTB+D0j4v6lwkhSLywAGlVNTv67HfhoqSDTycy7gQ81mGJlYKNCcSSpJxYAjaomG+eckpm3FkuybMdT3Te+X24QJKkV/3AnwHrTlT2BucCWVO9Sxt2430O+i9ZpMPY7xVIsR2beEBFnAo/rc4om36ekwfhORAxrp8lBWgD8AphH9cbokiX/8p4CEBGzqO6ffTDeIljta7IwlrhZT6/PZwGQJsf6bQcoaCvghcDCiHgfcOjie6JMAUTEysAZwLtw8ddoaHJofH6xFIN/PguApGGYRbXGn1Gv+fecA/A+YKe2UklLiogHAqv0OXwRza7P78cfGoxdu1gKSVq+najWfKYiYhfgte3mGWkDuY5cy9Tklr1TwANLBZmhBzcYu6BYCkmamddGxC5TwDPxaoBlibYDdE19u90mJ+BsUCrLDDXZKnjQ9yqQpPuaAp45RXW2vzRqbmowdtgFoMnzWQAktWHuFM13W5MGoUkB2LhYisE/X5PzBySpX1tNAde2nUJaimsajH1hRAzlo5uI2Ak/ApA0fq6dovm2ptIgnNVg7KOAvUsFWY5/bzj+yiIpJKk3509RXf+v6XkVQDt+0nB804V5uSJiDtVJtP26KjMvK5VHknpwxhTVjmYeBZieVwG041yaXQ64Z0Q8tVSYaXwIWLHB+O+VCiJJPTgf+MJUfUvAF9PssiupqPpSwHMbTnN0RDyqRJ77ioh/B57fcJoTS2SRpB7cAbw4MxdOAWTmr4A9gCtajSXd21ENxz+QalOPVQtkuUdE7AZ8uOE0twM/KhBHkmbqCmCPes3/+w2AMvMsqksC3w9cCNzVSjzp774O3NZwjs2BH0TEwwvkISKeQ3XovumeGSdl5u0FIknSstxFtaa/H9iqXuuB+/wSq38hHQwcHBErAZswGdsBbwh8qe0Q6k1m3hIR3wBe2nCqnYCfRcT+mXl8PxNExP2AjwD/r2GWxd5faJ5B+86QrqiURsmLmIwj4guASzJzqR/xT/suph7ws0GlGqaI8H7r4+sTwEtofjLmg4HjIuKrwP8s2YKXJSJWAV4AvI6qEJdwYmbOKzSXpPIuysyJWP+Wxa1/NdIy8/x60W56wt1izwOeFxG/BD4DnAlcB1yfmYsiYhbVjX02AnYFDgDWKPTci7278HyS1DMLgMbBW4H9gPsXnHNz4GNL/N8LI+IG4CEM9nXhu39JI8FdADXyMvNa4PABP80sYG0Gu/jfDrx5gPNL0oxZADQuDgMuaDtEQ6/KzIvbDiFJYAHQmMjMBcAzaLZLYJu+nJmfbzuEJC1mAdDYyMyrqE7iW9RylF5dChzUdghJWpIFQGMlM08G3tR2jh7cADyzvrWxJI0MC4DGTmZ+BHhD2zlm4FrgsYtvuylJo8QCoLFUl4CBb/nbwK+BXTPzkraDSNLSWAA0tjLzv6l2shy1w+u/oFr8r247iCRNxwKgsZaZXwK2ZTQuEVwEHAHskpl/bDuMJC2LBUBjLzMvB3YGPgTc3VKMi4CdM/N1nvAnaRxYADQRMvPOzHwzsBnwLSCH9NR/Aw4BtsvMc4f0nJLUmHsBaKJk5mXAsyNiW6rD8bsN6KkuBT4FfDEz/zKg5xgFLwBObDuEluoUYG7bITS+LACaSJl5QUR8nrIF4HaqxfCTmXlqwXlH2W0TXnDGVkS09XGXJoQFQFq6RcDFwLlLPC7KzIWtppKkQiwA0tKdkJn7th1CkgbFkwAlSeogC4AkSR1kAZAkqYMsAJIkdZAFQJKkDrIASJLUQRYASZI6yAIgSVIHWQAkSeogC4AkSR1kAZAkqYMsAJIkdZAFQJKkDrIASJLUQRYASZI6yAIgSVIHWQAkSeogC4AkSR1kAZAkqYMsAAJY1GDsCsVSSOpFk9dek9e8JsSs6f4iIgJYD1h5eHEGZv22A4y4GxuM3TgipjLTXyjSkETEFLBxgymavOa7YP2IWNB2iAIWAFdnZi7tL+9VACJiFvA64MnAdsBqA4+nUTC/wdjZwEbApYWySFq+jahee/1q8prvgu+0HaCgmyPifOD7wEczc+Hiv7jnI4CI2AT4KXA4sDsu/l3yR5odEty+VBBJM9LkNbeI6jWvbliNak0/HPhpvdYDdQGIiPWBc4C5LYRTyzLzbuD6BlO8qFQWSTPS5DV3ff2aV/fMBc6p13ym6s/6P0+zw0kaf1c3GPvEiDigWBJJ06pfa09sMEWT17rG32zg81GfSPJ8qsMDWrqlnjwxgb7fcPyHI2LdIkkkLVX9Gvtww2mavtY1/nYHnj+Fi//yRNsBhuS4huNXA06LiN1KhJF0b/Vr6zSan5/V9LWuybD7FJ7AJSAzLwSuaTjNBlQl4CMRsUqBWFLnRcQqEfERqsV/g4bTXVO/1qXtZ+E18vq744BXN5xjiupS0ldGxC+AC4ALgb82nLcfOzYY+7CIeG6xJO1as8HYXSNiEu4FMm4eCGwDbAtsCaxUaF7f/Wux9QP4CbBL20lG2B8zc+22QwxDRGwK/ALv7idNoruBLTPz4raDDENE/AFYq+0cI+ysKeD8tlNoNNS/GI5qO4ekgTiqK4u/ZuT8KeDYtlOMuK5cBbDYu4Db2w4hqajbqV7b0mLHTmXmqcCRbScZYV25CgCAzPw9cETbOSQVdUT92pYAjszMUyMziYjZwHk021xiUnXmHIDFIuIBwFnAFm1nkdTYRcAumXlr20GGyXMApnUZsH1m3jIFkJm3UN0i8NOtxtJIqH9R7EOz2wNLat/1wD5dW/w1rU8Dc+s1n7jvLoER8VhgL6pCsCWTsR3wCsAD+hzbuSMAi0XErsAPgfu1nUVSz+4E9sjMn7QdpA0NjwDcSnXVxLhbQHVl1zzgpMz88ZJ/+Q8FYBJFxNZU16L3o7MFACAiXkh1ZcDUcr5U0uhYBOyfmUe3HaQtDQvANpn5s5J5RpG/1LVM9S+QpwI3t51F0ozcDDy1y4u/ZsYCoOXKzO8BOwG/bjuLpGX6NbBT/ZqVlskCoBnJzEuobq17fNtZJC3V8cCO9WtVWi4LgGYsM2/KzKdR7SB5Xtt5JAHVa3H3zHxaZt7UdhiNDwuAepaZp2XmDsCzgUvbziN11KXAszNzh8w8re0wGj+z2g6g8ZWZ3wK+FRFbAPvWj23bTSVNtPOpbt9+bGb+su0wGm8WADWWmRdR3W3svRHxT1TbmD4MWKf+cw6wSnsJpbFzOzAf+D1wXf3nhZn5u1ZTaaJYAFRU/QvKX1KSNOI8B0CSpA6yAEiS1EEWAEmSOsgCIElSB1kAJEnqIAuAJEkdZAGQJKmDLACSJHWQBUCSpA6yAEiS1EEWAEmSOsgCIElSB1kAJEnqIAuAJEkdZAGQJKmDLACSJHVQVwrA3S2NlSRpJHWlAPya/hfyS0sGkSRpFHSiAGTm7cDFfQ4/v2QWSZJGQScKQO2MIY+TJGlkdakAvBu4vscxJ2fmCQPIIklSqzpTADLzeuAVPQz5C/CyAcWRJKlVnSkAAJn5beC5wA3L+dILgMdm5u8Hn0qSpOHrVAEAyMxvAJsCn6Y6wz/rv1oAnAO8BdgxMy9qJ6EkSYM3q+0Abag/DjgIICJmA+sCV2TmwlaDSZI0JJ0sAEvKzFuAS9rOIUnSMHXuIwBJkmQBkCSpkywAkiR1kAVAkqQOsgBIktRBFgBJkjrIAiBJUgdZACRJ6iALgCRJHWQBkCSpgywAkqRJ1GR9u7tYihFmAZAkTZSIWAFYvcEUfyqVZZRZACRJk2ZNYIU+xy4Eri+YZWR1ejfAiAjg+cBjgW2A9YCLgPOAYzJzXovxJEn9mdNg7B8zc1GxJCMsMrPtDK2IiEcBn6Na/JdmEfBR4B2ZefvQgkmSGomIZwHf7HP4eZm5Q8k8o6qTHwFExPbAz5l+8Yfqv80bgDMiYsWhBJMklbB3g7Hzi6UYcZ0rABGxEvAF4P4zHLIdcMjgEkmSSqlPAHxKgymuK5Vl1HWuAABvATbrcczbImKrQYSRJBX1GGCNBuN/UyrIqOtiAXhaH2NWBD5RnzQoSRpdr2o4/sQiKcZAp04CjIiVgZupFvR+7J+ZXywYSZJUSETsDJzVYIrLM3PjUnlGXdeOAGxA/4s/wGER8cBSYSRJRX244fjvFEkxJrpWAH5Ls1s8rgX8R6EskqRCIuLlwM4Np+lUAejURwAAEfErYNMGU9wN7JqZZxeKJElqICKeCHyPZkd4rwPWzQ4til07AgBwRsPxKwD/FxF7lAgjSepfRGwGHEOzxR/g2C4t/tDNIwAbAJfS/DbIdwDPz8xvN08lSepVRKwG/Ax4RMOpFgJbZOalzVONj84dAcjMK4GjC0y1EvDNiPi3AnNJknr33zRf/AGO7NriDx08AgAQEY8ELqPcZkifBD6Qmb8rNJ8kaRki4mnAsQWmugV4VGZ2YgvgJXXuCABAZv4GKHk9/yuAKyPicxGxUcF5JUlL9/xC83ywi4s/dPQIAEBErE219e9DCk+9CPg28Bng4szszH2lJWlYIuJ3wLoNp/kdsHFXd3ztbAGAooeQluVW4PL6cRnwlwE/nySNmpuoTta7ODMXNp0sIlYHbmycCl6cmV8qMM9Y6nQBAIiIzwAHtp1DkjrgDqqPX9+Ymbf0O0lETFG9uVqlQZYvZ+YLG4wfexaAiFWBC4EN284iSR1xFfCCzPxJvxNExAXANn0OPwN4Ymbe2e/zT4JOngS4pMy8DXgG8Oe2s0hSR6wPHBsRazaY4/Q+x10B7Nv1xR88AnCPiNgB+AEwu+0sktQR38nMp/czMCIeBFwCrN3DsBuBnTLz1/0856Tp/BGAxTLzXGAfoJNng0pSC/aLiK37GZiZfwFe08OQO6je+bv41ywAS8jM04BnUv1DkSQN3vb9DszMb1J9hHv9cr70KmDvzDyz3+eaRBaA+8jM7wG7Ate0nUWSOmBuk8GZ+b/A5lRXF/z+Pn89H/gosHlm/rDJ80wizwGYRkSsAXwN2LPtLJI0wY7OzBeVmqy+ydsGwOWZubwjA53mEYBpZOaNwF7AB6ju7idJKu/8kpNl5h8y8ycu/stnAViGzFyUmW+nOkT147bzSNIEmtd2gK6yAMxAZl6YmY8DngX8tu08kjQhzgXObjtEV3kOQI8iYiXgZVS3D+7r8hVJErcD22TmZW0H6SoLQAMRsR1VGXge8MCW40jSuLgVODAzv952kC6zABQQEasAj1nisSOwWquhJGk0nQ68JDP9OLVlFoABqHeq2hxYD1gdWKN+rE6z3ava9jxgxT7HHgv8tWCWkh4C7N3n2L8y+C2lm9gW2KLPsRcBFxTMUtq+9H/k7Xss/+YxbVkN2K/PsXdSXb48am6kOtt/HnBFuvCMBAuAZiwi/kL/v3A3ycxLS+YpJSJ2An7a5/DLMvPRJfOUFBEfBN7S5/DDMvOtJfOUFBGXAhv3OXznzBzJk88i4tFU97jvx18z80El82hyeRWAJEkdZAGQJKmDLACSJHWQBUCSpA6yAEiS1EEWAEmSOsgCIElSB1kAJEnqIAuAJEkdZAGQJKmDLACSJHWQBUCSpA6yAEiS1EEWAEmSOsgCIElSB1kAJEnqIAuAJEkdZAGQJKmDLACSJHWQBUCSpA6yAEiS1EEWAEmSOsgCIElSB1kAJEnqIAuAJEkdZAGQJKmDLACSJHWQBUCSpA6yAEiS1EEWAEmSOsgCIElSB1kAJEnqIAuAJEkdZAGQJKmDLACSJHWQBUCSpA6yAEiS1EEWAEmSOsgCIElSB1kAJEnqIAuAJEkdZAGQJKmDLACSJHWQBUCSpA6yAEiS1EEWAEmSOsgCIElSB1kAJEnqIAuAJEkdZAGQJKmDLADqxYKWxg7apH5f4Pc2iLGDNqnfl0aMBUC9+EWf424Gri4ZpLBLgLv6HNvvf5NhaZJvUr+3u6h+5qPqaqrXTD9G/WemEWIBUC/m9Tnu/MzMokkKysw7gF/2Obzf/ybD0iTfpH5vv6x/5iOpfq2c3+fwUf+ZaYRYANSLk/oc9/2iKQajn4wLgVNKBykpM68BLu5j6MX12FF2CtXPoFeT+u8R+n+NqoMsAJqxzPwx8Okeh80DPjqAOKUdClzR45j3ZeYoH0pe7KXA3T18/d31mJFW/7d/X4/DrqD6WY+6j9L7u/lP169RaUZihI/MagRFxAOofjFtPIMvvwXYcUwWSSJiF+BUYKUZfPnZwG6Z2c870KGLiPcCh8zwyw/NzHcMMk8pETELOAPYaQZffgewR2aeNdhUZUTEJsA5wOwZfPllwNzMvHWwqTRJPAKgntS/YLYHjlzOl/4I2HJcFn+AemHYjmV//roI+Aiw+7gs/gD1gv484KZlfNlNwPPGZfEHqH8Gu1P9TBYt40vPB7Ybl8Uf7jnCsSXVa2lZjgS2d/FXrzwCoL5FxB7AvlSL5hbAVcB5VL+wvjLKJ/4tS/2u8iXAblTf27rAz6mOfBwzTovIfUXEHOBAYG79gOr7mgccmZnz28rWVH0E55lU39dWwLVUC/8ZwBfGqbAtKSICeD5V0dkeWB+4iOp7OzYzT20vncbZ/wesA6UbId3yygAAAABJRU5ErkJggg==;" vertex="1" parent="1">
          <mxGeometry x="887.1" y="340.5" width="90" height="90" as="geometry" />
        </mxCell>
        <mxCell id="lXtjA7sEgOe613vTCs32-1" value="" style="group" vertex="1" connectable="0" parent="1">
          <mxGeometry x="50" y="498" width="50" height="68.5" as="geometry" />
        </mxCell>
        <mxCell id="lXtjA7sEgOe613vTCs32-2" value="" style="sketch=0;aspect=fixed;pointerEvents=1;shadow=0;dashed=0;html=1;strokeColor=#6F0000;labelPosition=center;verticalLabelPosition=bottom;verticalAlign=top;align=center;fillColor=#a20025;shape=mxgraph.mscae.enterprise.key_permissions;rotation=90;fontColor=#ffffff;" vertex="1" parent="lXtjA7sEgOe613vTCs32-1">
          <mxGeometry x="12" y="-12" width="26" height="50" as="geometry" />
        </mxCell>
        <mxCell id="lXtjA7sEgOe613vTCs32-3" value="" style="image;sketch=0;aspect=fixed;html=1;points=[];align=center;fontSize=12;image=img/lib/mscae/Key.svg;rotation=90;" vertex="1" parent="lXtjA7sEgOe613vTCs32-1">
          <mxGeometry x="9.5" y="28" width="31" height="50" as="geometry" />
        </mxCell>
        <mxCell id="58ncaHHomo6hpnsB3Xn0-1" value="" style="sketch=0;aspect=fixed;pointerEvents=1;shadow=0;dashed=0;html=1;strokeColor=#6F0000;labelPosition=center;verticalLabelPosition=bottom;verticalAlign=top;align=center;fillColor=#a20025;shape=mxgraph.mscae.enterprise.key_permissions;rotation=90;fontColor=#ffffff;" vertex="1" parent="1">
          <mxGeometry x="480" y="410.5" width="26" height="50" as="geometry" />
        </mxCell>
        <mxCell id="58ncaHHomo6hpnsB3Xn0-3" value="" style="endArrow=classic;html=1;rounded=0;" edge="1" parent="1">
          <mxGeometry width="50" height="50" relative="1" as="geometry">
            <mxPoint x="320" y="460" as="sourcePoint" />
            <mxPoint x="760" y="460" as="targetPoint" />
          </mxGeometry>
        </mxCell>
        <mxCell id="58ncaHHomo6hpnsB3Xn0-4" value="&lt;font style=&quot;font-size: 28px;&quot;&gt;+&lt;/font&gt;" style="text;html=1;align=center;verticalAlign=middle;resizable=0;points=[];autosize=1;strokeColor=none;fillColor=none;" vertex="1" parent="1">
          <mxGeometry x="530" y="410.5" width="40" height="50" as="geometry" />
        </mxCell>
        <mxCell id="58ncaHHomo6hpnsB3Xn0-5" value="&lt;font style=&quot;font-size: 20px;&quot;&gt;1.&lt;/font&gt;" style="text;html=1;align=center;verticalAlign=middle;resizable=0;points=[];autosize=1;strokeColor=none;fillColor=none;" vertex="1" parent="1">
          <mxGeometry x="400" y="410.5" width="40" height="40" as="geometry" />
        </mxCell>
        <mxCell id="58ncaHHomo6hpnsB3Xn0-6" value="" style="endArrow=classic;html=1;rounded=0;" edge="1" parent="1">
          <mxGeometry width="50" height="50" relative="1" as="geometry">
            <mxPoint x="870" y="330" as="sourcePoint" />
            <mxPoint x="630" y="150" as="targetPoint" />
          </mxGeometry>
        </mxCell>
        <mxCell id="58ncaHHomo6hpnsB3Xn0-7" value="" style="image;sketch=0;aspect=fixed;html=1;points=[];align=center;fontSize=12;image=img/lib/mscae/Certificate.svg;" vertex="1" parent="1">
          <mxGeometry x="730" y="170" width="50" height="42" as="geometry" />
        </mxCell>
        <mxCell id="58ncaHHomo6hpnsB3Xn0-8" value="&lt;font style=&quot;font-size: 20px;&quot;&gt;2.&lt;/font&gt;" style="text;html=1;align=center;verticalAlign=middle;resizable=0;points=[];autosize=1;strokeColor=none;fillColor=none;" vertex="1" parent="1">
          <mxGeometry x="670" y="142" width="40" height="40" as="geometry" />
        </mxCell>
        <mxCell id="58ncaHHomo6hpnsB3Xn0-9" value="" style="endArrow=classic;html=1;rounded=0;" edge="1" parent="1">
          <mxGeometry width="50" height="50" relative="1" as="geometry">
            <mxPoint x="547.1" y="220" as="sourcePoint" />
            <mxPoint x="797.1" y="420" as="targetPoint" />
          </mxGeometry>
        </mxCell>
        <mxCell id="58ncaHHomo6hpnsB3Xn0-10" value="" style="verticalLabelPosition=bottom;verticalAlign=top;html=1;shape=mxgraph.basic.tick;fillColor=#008a00;fontColor=#ffffff;strokeColor=#005700;" vertex="1" parent="1">
          <mxGeometry x="663.1" y="274" width="40" height="40" as="geometry" />
        </mxCell>
        <mxCell id="58ncaHHomo6hpnsB3Xn0-11" value="&lt;font style=&quot;font-size: 20px;&quot;&gt;3.&lt;/font&gt;" style="text;html=1;align=center;verticalAlign=middle;resizable=0;points=[];autosize=1;strokeColor=none;fillColor=none;" vertex="1" parent="1">
          <mxGeometry x="627.1" y="253" width="40" height="40" as="geometry" />
        </mxCell>
        <mxCell id="58ncaHHomo6hpnsB3Xn0-12" value="" style="endArrow=classic;startArrow=classic;html=1;rounded=0;" edge="1" parent="1">
          <mxGeometry width="50" height="50" relative="1" as="geometry">
            <mxPoint x="320" y="610" as="sourcePoint" />
            <mxPoint x="760" y="610" as="targetPoint" />
          </mxGeometry>
        </mxCell>
        <mxCell id="58ncaHHomo6hpnsB3Xn0-13" value="&lt;font style=&quot;font-size: 20px;&quot;&gt;6.&lt;/font&gt;" style="text;html=1;align=center;verticalAlign=middle;resizable=0;points=[];autosize=1;strokeColor=none;fillColor=none;" vertex="1" parent="1">
          <mxGeometry x="400" y="566.5" width="40" height="40" as="geometry" />
        </mxCell>
        <mxCell id="DHNZzlxUqDgVNH6S-S7g-1" value="" style="html=1;verticalLabelPosition=bottom;align=center;labelBackgroundColor=#ffffff;verticalAlign=top;strokeWidth=2;strokeColor=#0080F0;shadow=0;dashed=0;shape=mxgraph.ios7.icons.locked;" vertex="1" parent="1">
          <mxGeometry x="490" y="560" width="70" height="90" as="geometry" />
        </mxCell>
        <mxCell id="X5UGgJI4NXUIbnroRBgY-2" value="" style="endArrow=classic;html=1;rounded=0;" edge="1" parent="1">
          <mxGeometry width="50" height="50" relative="1" as="geometry">
            <mxPoint x="760" y="530.5" as="sourcePoint" />
            <mxPoint x="320" y="530.5" as="targetPoint" />
          </mxGeometry>
        </mxCell>
        <mxCell id="X5UGgJI4NXUIbnroRBgY-3" value="&lt;font style=&quot;font-size: 20px;&quot;&gt;5.&lt;/font&gt;" style="text;html=1;align=center;verticalAlign=middle;resizable=0;points=[];autosize=1;strokeColor=none;fillColor=none;" vertex="1" parent="1">
          <mxGeometry x="400" y="491" width="40" height="40" as="geometry" />
        </mxCell>
        <mxCell id="X5UGgJI4NXUIbnroRBgY-4" value="Chiave Pubblica" style="text;html=1;align=center;verticalAlign=middle;resizable=0;points=[];autosize=1;strokeColor=none;fillColor=none;" vertex="1" parent="1">
          <mxGeometry x="440" y="384.5" width="110" height="30" as="geometry" />
        </mxCell>
        <mxCell id="X5UGgJI4NXUIbnroRBgY-5" value="Certificato" style="text;html=1;align=center;verticalAlign=middle;resizable=0;points=[];autosize=1;strokeColor=none;fillColor=none;" vertex="1" parent="1">
          <mxGeometry x="570" y="382.5" width="80" height="30" as="geometry" />
        </mxCell>
        <mxCell id="X5UGgJI4NXUIbnroRBgY-6" value="Autorità di Certificazione" style="text;html=1;align=center;verticalAlign=middle;resizable=0;points=[];autosize=1;strokeColor=none;fillColor=none;" vertex="1" parent="1">
          <mxGeometry x="470" y="90" width="150" height="30" as="geometry" />
        </mxCell>
        <mxCell id="X5UGgJI4NXUIbnroRBgY-7" value="Everything" style="text;html=1;align=center;verticalAlign=middle;resizable=0;points=[];autosize=1;strokeColor=none;fillColor=none;" vertex="1" parent="1">
          <mxGeometry x="897.1" y="468" width="80" height="30" as="geometry" />
        </mxCell>
        <mxCell id="X5UGgJI4NXUIbnroRBgY-8" value="Vehicle" style="text;html=1;align=center;verticalAlign=middle;resizable=0;points=[];autosize=1;strokeColor=none;fillColor=none;" vertex="1" parent="1">
          <mxGeometry x="173.56" y="440" width="60" height="30" as="geometry" />
        </mxCell>
        <mxCell id="X5UGgJI4NXUIbnroRBgY-9" value="Chiave di sessione" style="text;html=1;align=center;verticalAlign=middle;resizable=0;points=[];autosize=1;strokeColor=none;fillColor=none;" vertex="1" parent="1">
          <mxGeometry x="465" y="460.5" width="120" height="30" as="geometry" />
        </mxCell>
        <mxCell id="X5UGgJI4NXUIbnroRBgY-10" value="Traffico cifrato" style="text;html=1;align=center;verticalAlign=middle;resizable=0;points=[];autosize=1;strokeColor=none;fillColor=none;" vertex="1" parent="1">
          <mxGeometry x="475" y="531.5" width="100" height="30" as="geometry" />
        </mxCell>
        <mxCell id="X5UGgJI4NXUIbnroRBgY-11" value="Certificato" style="text;html=1;align=center;verticalAlign=middle;resizable=0;points=[];autosize=1;strokeColor=none;fillColor=none;" vertex="1" parent="1">
          <mxGeometry x="715" y="130" width="80" height="30" as="geometry" />
        </mxCell>
        <mxCell id="X5UGgJI4NXUIbnroRBgY-12" value="" style="html=1;verticalLabelPosition=bottom;align=center;labelBackgroundColor=#ffffff;verticalAlign=top;strokeWidth=2;shadow=0;dashed=0;shape=mxgraph.ios7.icons.smartphone;strokeColor=#000000;" vertex="1" parent="1">
          <mxGeometry x="1010" y="420.5" width="60" height="111" as="geometry" />
        </mxCell>
        <mxCell id="X5UGgJI4NXUIbnroRBgY-13" value="Verifica del&lt;br&gt;Certificato" style="text;html=1;align=center;verticalAlign=middle;resizable=0;points=[];autosize=1;strokeColor=none;fillColor=none;" vertex="1" parent="1">
          <mxGeometry x="660" y="234" width="80" height="40" as="geometry" />
        </mxCell>
        <mxCell id="X5UGgJI4NXUIbnroRBgY-14" value="&lt;font style=&quot;font-size: 40px;&quot;&gt;Vehicle to Everything&lt;br&gt;(con CA)&lt;br&gt;&lt;/font&gt;" style="text;html=1;align=center;verticalAlign=middle;resizable=0;points=[];autosize=1;strokeColor=none;fillColor=none;" vertex="1" parent="1">
          <mxGeometry x="35" y="60" width="400" height="110" as="geometry" />
        </mxCell>
        <mxCell id="TkG46tA9R1oOeXCwVcdy-3" value="" style="group" vertex="1" connectable="0" parent="1">
          <mxGeometry x="490" y="486" width="70" height="40" as="geometry" />
        </mxCell>
        <mxCell id="TkG46tA9R1oOeXCwVcdy-1" value="" style="ellipse;whiteSpace=wrap;html=1;" vertex="1" parent="TkG46tA9R1oOeXCwVcdy-3">
          <mxGeometry width="70" height="40" as="geometry" />
        </mxCell>
        <mxCell id="TkG46tA9R1oOeXCwVcdy-2" value="" style="sketch=0;pointerEvents=1;shadow=0;dashed=0;html=1;strokeColor=none;fillColor=#505050;labelPosition=center;verticalLabelPosition=bottom;verticalAlign=top;outlineConnect=0;align=center;shape=mxgraph.office.security.key_permissions;rotation=90;" vertex="1" parent="TkG46tA9R1oOeXCwVcdy-3">
          <mxGeometry x="22.5" y="-6" width="25" height="53" as="geometry" />
        </mxCell>
      </root>
    </mxGraphModel>
  </diagram>
</mxfile>
